<svg width="92" height="74" viewBox="0 0 92 74" fill="none" xmlns="http://www.w3.org/2000/svg">
<path d="M23.3562 15.16C22.3828 15.16 21.5162 14.9933 20.7562 14.66C19.9962 14.3267 19.3962 13.8733 18.9562 13.3C18.5162 12.7133 18.2695 12.06 18.2162 11.34H21.5962C21.6362 11.7267 21.8162 12.04 22.1362 12.28C22.4562 12.52 22.8495 12.64 23.3162 12.64C23.7428 12.64 24.0695 12.56 24.2962 12.4C24.5362 12.2267 24.6562 12.0067 24.6562 11.74C24.6562 11.42 24.4895 11.1867 24.1562 11.04C23.8228 10.88 23.2828 10.7067 22.5362 10.52C21.7362 10.3333 21.0695 10.14 20.5362 9.94C20.0028 9.72667 19.5428 9.4 19.1562 8.96C18.7695 8.50667 18.5762 7.9 18.5762 7.14C18.5762 6.5 18.7495 5.92 19.0962 5.4C19.4562 4.86667 19.9762 4.44667 20.6562 4.14C21.3495 3.83333 22.1695 3.68 23.1162 3.68C24.5162 3.68 25.6162 4.02667 26.4162 4.72C27.2295 5.41333 27.6962 6.33333 27.8162 7.48H24.6562C24.6028 7.09333 24.4295 6.78667 24.1362 6.56C23.8562 6.33333 23.4828 6.22 23.0162 6.22C22.6162 6.22 22.3095 6.3 22.0962 6.46C21.8828 6.60667 21.7762 6.81333 21.7762 7.08C21.7762 7.4 21.9428 7.64 22.2762 7.8C22.6228 7.96 23.1562 8.12 23.8762 8.28C24.7028 8.49333 25.3762 8.70667 25.8962 8.92C26.4162 9.12 26.8695 9.45333 27.2562 9.92C27.6562 10.3733 27.8628 10.9867 27.8762 11.76C27.8762 12.4133 27.6895 13 27.3162 13.52C26.9562 14.0267 26.4295 14.4267 25.7362 14.72C25.0562 15.0133 24.2628 15.16 23.3562 15.16ZM29.2885 9.42C29.2885 8.26 29.5218 7.24667 29.9885 6.38C30.4685 5.51333 31.1285 4.84667 31.9685 4.38C32.8218 3.91333 33.7952 3.68 34.8885 3.68C36.2885 3.68 37.4552 4.04667 38.3885 4.78C39.3352 5.51333 39.9552 6.54667 40.2485 7.88H36.6085C36.3018 7.02667 35.7085 6.6 34.8285 6.6C34.2018 6.6 33.7018 6.84667 33.3285 7.34C32.9552 7.82 32.7685 8.51333 32.7685 9.42C32.7685 10.3267 32.9552 11.0267 33.3285 11.52C33.7018 12 34.2018 12.24 34.8285 12.24C35.7085 12.24 36.3018 11.8133 36.6085 10.96H40.2485C39.9552 12.2667 39.3352 13.2933 38.3885 14.04C37.4418 14.7867 36.2752 15.16 34.8885 15.16C33.7952 15.16 32.8218 14.9267 31.9685 14.46C31.1285 13.9933 30.4685 13.3267 29.9885 12.46C29.5218 11.5933 29.2885 10.58 29.2885 9.42ZM45.4979 5.7C45.8979 5.08667 46.3979 4.60667 46.9979 4.26C47.5979 3.9 48.2646 3.72 48.9979 3.72V7.34H48.0579C47.2046 7.34 46.5646 7.52667 46.1379 7.9C45.7112 8.26 45.4979 8.9 45.4979 9.82V15H42.0779V3.84H45.4979V5.7ZM55.7126 15.16C54.6192 15.16 53.6326 14.9267 52.7526 14.46C51.8859 13.9933 51.1992 13.3267 50.6926 12.46C50.1992 11.5933 49.9526 10.58 49.9526 9.42C49.9526 8.27333 50.2059 7.26667 50.7126 6.4C51.2192 5.52 51.9126 4.84667 52.7926 4.38C53.6726 3.91333 54.6592 3.68 55.7526 3.68C56.8459 3.68 57.8326 3.91333 58.7126 4.38C59.5926 4.84667 60.2859 5.52 60.7926 6.4C61.2992 7.26667 61.5526 8.27333 61.5526 9.42C61.5526 10.5667 61.2926 11.58 60.7726 12.46C60.2659 13.3267 59.5659 13.9933 58.6726 14.46C57.7926 14.9267 56.8059 15.16 55.7126 15.16ZM55.7126 12.2C56.3659 12.2 56.9192 11.96 57.3726 11.48C57.8392 11 58.0726 10.3133 58.0726 9.42C58.0726 8.52667 57.8459 7.84 57.3926 7.36C56.9526 6.88 56.4059 6.64 55.7526 6.64C55.0859 6.64 54.5326 6.88 54.0926 7.36C53.6526 7.82667 53.4326 8.51333 53.4326 9.42C53.4326 10.3133 53.6459 11 54.0726 11.48C54.5126 11.96 55.0592 12.2 55.7126 12.2ZM66.787 0.2V15H63.367V0.2H66.787ZM72.6854 0.2V15H69.2654V0.2H72.6854Z" fill="white" fill-opacity="0.5"/>
<path d="M1.5 19L45.75 41.68L90 19" stroke="white" stroke-opacity="0.5" stroke-width="3" stroke-linecap="round"/>
<path d="M1.5 34.5681L45.75 57.2481L90 34.5681" stroke="white" stroke-opacity="0.35" stroke-width="2" stroke-linecap="round"/>
<path d="M1.5 50.2721L45.75 72.9521L90 50.2721" stroke="white" stroke-opacity="0.2" stroke-linecap="round"/>
</svg>
