<svg width="388" height="443" viewBox="0 0 388 443" fill="none" xmlns="http://www.w3.org/2000/svg">
<ellipse cx="192.589" cy="319.344" rx="178.222" ry="88.9525" transform="rotate(11.7361 192.589 319.344)" fill="#516679"/>
<ellipse cx="195.321" cy="313.891" rx="178.222" ry="88.9525" transform="rotate(11.7361 195.321 313.891)" fill="white"/>
<ellipse cx="197.025" cy="310.479" rx="163.095" ry="83.56" transform="rotate(11.7361 197.025 310.479)" fill="url(#paint0_linear_125_220)"/>
<g filter="url(#filter0_d_125_220)">
<g filter="url(#filter1_d_125_220)">
<path d="M235 327.5L281 322L301 400L248 404L235 327.5Z" fill="#FEE6B7"/>
<g filter="url(#filter2_d_125_220)">
<path d="M212.002 256.953C204.614 255.832 187.835 259.667 180.502 259L213.5 298C213.5 303.5 225.002 306.5 225.502 309.5C226.002 312.5 233.002 333.5 236.002 342C239.002 350.5 241.498 353.559 250 347C267.498 333.5 270 332 281.5 326.5C286.089 321.689 279 317.5 274 307.5C269 297.5 264.502 291 254.002 278.5C242.623 264.953 225.502 259 212.002 256.953Z" fill="#88A3E7"/>
</g>
</g>
<path d="M105.5 193.035L174.5 199.535C174.5 199.535 182.5 248.5 185.5 256.5C188.5 264.5 218 269 215.5 300.035C213 331.07 132.463 338.156 114.316 303.035C103.612 282.319 122.624 265.035 119.316 243.535C116.008 222.035 105.5 193.035 105.5 193.035Z" fill="#FEE6B7"/>
<g filter="url(#filter3_d_125_220)">
<path d="M249 135C249 162.239 255.5 162.5 263.5 182.5C263.5 234 195.5 255.5 172.5 246C128 227.62 96 196.304 96 135C96 73.6964 130.25 24 172.5 24C190.454 24 230.45 29.9743 243.5 45C260.002 64 249 99.7474 249 135Z" fill="#FEE6B7"/>
</g>
<g filter="url(#filter4_d_125_220)">
<path d="M243.5 54C240.7 51.6 230.666 47.3333 226 45.5C224.5 38 216.333 26.1667 218 28.5C220.166 28.6667 225.6 29.2 230 30C235.5 31 241.5 33.5 243.5 34C245.5 34.5 249.5 44 252 47C254.5 50 256 57.5 256 59.5C256 61.1 258.333 64.8333 259.5 66.5L256 65L257 71C256.5 70.1667 255.3 68.1 254.5 66.5C253.5 64.5 247 57 243.5 54Z" fill="#B8966F"/>
</g>
<g filter="url(#filter5_d_125_220)">
<path d="M171 38C168.333 40.1667 162.4 45.4 160 49C157 53.5 153.5 63.5 152.5 66C151.833 63.6667 150.7 58.7 151.5 57.5C152.3 56.3 151.833 53.6667 151.5 52.5C149.833 53.8333 146.2 57.2 145 60C143.5 63.5 138 72 137.5 72.5C137 73 136 72 135.5 69C135.144 66.8611 135.295 64.9764 135.412 64.2518C135.07 64.8382 133.785 66.0019 132.5 69C131.008 72.481 128.527 75.962 128.5 76.4916C128.5 76.5204 128.5 76.524 128.5 76.5C128.5 76.4973 128.5 76.4945 128.5 76.4916C128.505 75.9203 128.596 65.4281 130.5 64C132.5 62.5 133.5 54 134.5 52.5C135.5 51 136 42 140.5 40.5C144.1 39.3 162.333 38.3333 171 38Z" fill="#B8966F"/>
</g>
<g filter="url(#filter6_d_125_220)">
<path d="M123.5 65.5C125.1 59.9 129.5 52.8333 131.5 50H101.5C98 50 88.5 62.5 83.5 73C78.5 83.5 76.0001 96 74.0001 108.5C72.7204 116.498 70.8333 131.167 72 137C71.8333 134.5 73.6001 127.4 74.0001 125C74.4001 122.6 77.5001 116.333 79.0001 113.5C79.1667 115 79.1001 118.9 77.5001 122.5C75.5001 127 76.0001 143.5 76.0001 151.5C76.0001 157.9 80 169.833 82 175C81 171.167 83.5 165.5 83.5 165.5C83.5 165.5 84 172.5 88 173C92 173.5 95.5 173 98.5 167C101.5 161 98.5 153.5 108 151.5L123.5 147L119.5 125C119.5 115 120 97.5 119.5 96C119 94.5 121.5 72.5 123.5 65.5Z" fill="#B8966F"/>
</g>
<g filter="url(#filter7_d_125_220)">
<path d="M205 16C213.5 21 215.5 24 223.5 32.5L219.5 38L134 43L113.5 63C105.833 67.5 90.3 76 89.5 74C88.5 71.5 76.5 76.5 75 76.5C73.4999 76.5 69.5 80 67.5 78.5C65.9 77.3 69.8333 71.6667 72 69C70.5 69.6667 67 71 65 71C63 71 61.5 76 61 78.5L59.5 74C59 72.5 65 64.5 67.5 63C70 61.5 69.5 56 69.5 52.5C69.5 49.7 74.1667 45 76.5 43C75.1667 43 71.9 43.4 69.5 45C67.1 46.6 65.5 49.6667 65 51V47C65 45.5 77.5 36 80 32.5C82.5 29 95 22 98.5 20C101.3 18.4 112 15.6667 117 14.5C121.833 12.3333 132.5 7.7 136.5 6.5C141.5 5 160.5 3 165.5 4.5C169.5 5.7 172.833 7.33334 174 8C177 7.5 196.5 11 205 16Z" fill="#B8966F"/>
</g>
<g filter="url(#filter8_d_125_220)">
<path d="M224.5 28.5C222.1 27.3 203.833 21 199 21C172.833 22.5 138 24.5 126 28.5C118.278 31.0739 112 36.3333 108 40C104 43.6667 100.2 51 103 49C105.8 47 113.5 45.5 119 43.5C114.333 48.8333 104.6 55 103 55C101 55 97 71 95.5 71C94 71 88.5 87 87 91.5C85.8 95.1 85.1666 100.667 85 103C86 102.167 88.1 100.2 88.5 99C88.9 97.8 91.6666 94.8333 93 93.5V100.5C93 104.1 95.6666 107.667 97 109C97.6666 107.5 99 104.2 99 103C99 101.5 104.5 88 105 85C105.4 82.6 110.833 74.6667 113.5 71C112.667 73.5 110.8 79.8 110 85C109.2 90.2 111.333 94.5 112.5 96C113.833 91.6667 116.7 82.4 117.5 80C118.5 77 125.734 63.6878 128.5 60C133 54 144 48 151.5 46C159 44 170.5 45.5 178.5 49C181.707 50.4029 197.5 56 203 57.5C208.5 59 222.5 60.5 227.5 60C232.5 59.5 234.223 57.8213 236.5 56C239 54 240.507 51.6483 241.5 49C243 45 241.5 46.5 241.5 43.5C241.5 40.5 235 36.5 233 35.5C231 34.5 227.5 30 224.5 28.5Z" fill="#B8966F"/>
</g>
<g filter="url(#filter9_d_125_220)">
<path d="M100.5 155L112 144.5L122.5 137.5L124 143.5L113.5 149.5L100.5 157V155Z" fill="#5D626F"/>
<path d="M264 118.5C264.5 117 263.5 115.5 262.5 113.5C260.833 113.333 257 113 255 113C252.5 113 240.485 113.224 238 113.5C233.5 114 219.5 117.1 216 118.5C213.633 119.447 210.791 120.709 210 121.5C209 122.5 206 125 203.5 126.5C203.071 126.757 198 126.5 196.5 127C195.439 127.354 192 128.5 190 128.5C189.5 128.5 183.693 127.139 183 127C180.5 126.5 166 126.5 163.5 127C162.029 127.294 148.5 129.5 145 130.5C143.077 131.049 139.192 132.186 135.5 133.5C134.564 133.833 132 134 130.5 134.5C129.077 134.974 124 137 122.5 137.5C121.551 137.816 121.882 142.882 123 144C123.5 144.5 124.606 144.053 125.5 144.5C127.5 145.5 128.314 146.536 128.5 147C129.5 149.5 135.333 161 136 162C137 163.5 140.8 166.4 141.5 166.5C145 167 156 166.5 159 166.5C162.041 166.5 168.643 165.243 170.5 164.5C173 163.5 182.882 160.618 184 159.5C185.5 158 187.868 153.265 188.5 152C189.5 150 192 134 193 133C194.275 131.725 196.667 131.333 198 131C199.833 130.667 203.142 130.927 203.5 132C204 133.5 210.5 145 212 147.5C213.5 150 218 153 219.5 153.5C222.385 154.462 234 153 235 153C236.5 153 244.051 151.316 245 151C246.5 150.5 256.5 146.5 257.5 144.5C258.5 142.5 259 138.5 259.5 137.5C260 136.5 260 127.5 260 126.5C260 125.5 261 120.5 262 120.5C263 120.5 263.5 120 264 118.5Z" fill="#5D626F"/>
<path d="M182 156.5C179.152 158.399 171.797 161.56 164 163C154.5 164 146.202 164.313 142 163C135.5 159 132 146.627 132 140C132.771 136.146 144.5 133 157 130.5C171.5 129.5 180.854 129.528 184.5 130.5C189.5 135.5 184.5 152.5 182 156.5Z" fill="white"/>
<path d="M254.58 141.349C253.5 143.632 247.99 147.018 241 149C232.426 150.662 223.428 151.015 219.5 150C213.275 146.467 209.008 134.608 208.5 128C208.907 124.103 218.631 120.543 229.822 117.175C242.95 115.163 250.105 116.461 253.5 117.175C258.436 121.81 256.55 137.186 254.58 141.349Z" fill="white"/>
</g>
<g filter="url(#filter10_d_125_220)">
<ellipse cx="107" cy="173.5" rx="20" ry="24.5" fill="#FEE6B7"/>
</g>
<g filter="url(#filter11_d_125_220)">
<path d="M123 144.5C124.2 148.1 129 164.333 129.5 167C130.167 172 132 185.5 132 185.5C132 185.5 126.289 174.012 124.5 172C121.762 168.919 122.07 166.307 122.536 164.966L117 176.5C115.199 176.5 119.456 165.592 118.5 160C117.544 154.408 112.5 150 112.5 150L123 144.5Z" fill="#B8966F"/>
</g>
<circle cx="166.5" cy="144.5" r="9.5" fill="black"/>
<path d="M169 141.5C169.707 142.207 169 142 170 142.5H171C172 142 171.4 140.8 171 140C170.6 139.2 170.333 138.833 170 138.5C169.5 138 169 137.5 168 137C167.106 136.553 166.384 136.732 166 137.5C165.5 138.5 165.646 139.646 166 140C166.5 140.5 166.868 140.184 167.5 140.5L167.5 140.5C168.5 141 168.5 141 169 141.5Z" fill="#C4C4C4" stroke="black" stroke-width="0.25"/>
<circle cx="230.5" cy="133.5" r="9.5" fill="black"/>
<path d="M233 130.5C233.707 131.207 233 131 234 131.5H235C236 131 235.4 129.8 235 129C234.6 128.2 234.333 127.833 234 127.5C233.5 127 233 126.5 232 126C231.106 125.553 230.384 125.732 230 126.5C229.5 127.5 229.646 128.646 230 129C230.5 129.5 230.868 129.184 231.5 129.5L231.5 129.5C232.5 130 232.5 130 233 130.5Z" fill="#C4C4C4" stroke="black" stroke-width="0.25"/>
<g filter="url(#filter12_d_125_220)">
<path d="M145 112.5C142.6 114.1 140 118.167 139 120C142 118.833 148.4 116.3 150 115.5C152 114.5 165.5 111 167.5 111C169.5 111 174 112 175.5 112C177 112 177 106.5 176.5 105C176 103.5 171 104.5 168.5 104.5C166.697 104.5 148 110.5 145 112.5Z" fill="#B8966F"/>
</g>
<g filter="url(#filter13_d_125_220)">
<path d="M240.637 96.947C243.456 97.5551 247.367 100.385 248.97 101.723C245.751 101.738 238.868 101.729 237.086 101.572C234.858 101.375 221.016 103.071 219.155 103.805C217.294 104.538 213.475 107.119 212.079 107.67C210.684 108.22 208.667 103.103 208.581 101.524C208.496 99.9456 213.515 99.0418 215.84 98.1247C217.518 97.4635 237.112 96.1869 240.637 96.947Z" fill="#B8966F"/>
</g>
<g filter="url(#filter14_d_125_220)">
<path d="M192.5 167C193.167 167.667 195 169.2 197 170C199.5 171 203.844 171.443 206.5 171C209.5 170.5 212.5 168.5 214 167C215.5 165.5 216 163.118 216 162C216 160 215.5 157.5 214.5 156.5" stroke="#B9A57F" stroke-linecap="round"/>
</g>
<path d="M197 170C195 169.2 193.167 167.667 192.5 167L214.5 156.5C215.5 157.5 216 160 216 162C216 163.118 215.5 165.5 214 167C212.5 168.5 209.5 170.5 206.5 171C203.844 171.443 199.5 171 197 170Z" fill="#FEE6B7"/>
<path d="M114 167.5C111.5 167.5 110 168.5 108.5 169.5C107.552 170.132 105.5 172 105 173C104.368 174.265 103.5 175.5 103.5 176.5M109 172.5C109.333 173 110.1 174.2 110.5 175C110.9 175.8 111.333 177.667 111.5 178.5" stroke="#B9A57F" stroke-linecap="round"/>
<path d="M181 206C182.5 207.5 187.539 209.108 189.5 209.5C192 210 197 209.5 200.5 209C202.587 208.702 206.833 206 209 205" stroke="#B9A57F" stroke-linecap="round"/>
<path d="M102 264.5C104.8 262.9 112.833 260.5 119.5 259V264.5L126.5 281L143.5 290L156.5 295L187.5 293L201.5 287L205 281L198.5 268.5L185.5 257.5C191.667 260.833 205.9 267.7 211.5 272.5C218.5 278.5 222 288 225.5 295C229 302 233 307.5 236.5 315C240 322.5 246 346 249.5 360C253 374 255 394 256.5 398C257.7 401.2 257.5 400.667 258 405L169 395.5C135.333 384.667 69.7 360.1 68.5 354.5C67 347.5 81.9999 286 82.9999 282.5C83.9999 279 98.4999 266.5 102 264.5Z" fill="#88A3E7"/>
<path d="M225 293C230 301.833 238.751 320.185 239.5 322.5C245 339.5 248.812 351.5 251 369C252 377 256.5 399.5 257 404.5" stroke="#5D76B5"/>
<g filter="url(#filter15_d_125_220)">
<path d="M77.5 266.5C84.7 264.5 101.167 262.667 108.5 262L118 297C118 302.5 96.5 320.5 96 323.5C95.5 326.5 88.5 347.5 85.5 356C82.5 364.5 78.0001 357 76.5001 357.5C75.0001 358 40.5001 341 44.0001 325C47.5001 309 50 300.5 56.5 288.5C63 276.5 68.5 269 77.5 266.5Z" fill="#88A3E7"/>
</g>
<g filter="url(#filter16_d_125_220)">
<path d="M118 298.5C111.5 305.5 98.1 320 96.5 322C94.5 324.5 86 360 83 362.5" stroke="#5D76B5"/>
</g>
<g filter="url(#filter17_d_125_220)">
<path d="M117.5 261.499C117.5 258.499 117.5 255.5 119.5 253V257.5C121 264 120.5 260.697 120.5 262.5C120.5 265.5 120.291 267.231 124 272C127.5 276.5 128.5 279.5 132 282C135.5 284.5 150.423 291.5 157 291.5C163 291.5 181 291.5 186.5 290.5C190.435 289.784 194.5 289 197.5 286.5C200.5 284 202 282.803 202 281C202 278.5 200.144 274.302 198.5 272C196 268.5 194.561 266.562 192.5 264.5C190.5 262.5 187.333 259.5 186 258C188.667 260.167 194.7 264.1 195.5 264.5C196.5 265 203.025 272.075 205.5 279.5C207 284 207.561 286.938 205.5 289C203 291.5 198.5 295 193.5 296C188.5 297 161.5 297 152.5 297C148.964 297 134.326 291.54 130 288C124.5 283.5 118.56 273.182 117.5 270C116.5 267 117.5 263.5 117.5 261.5V261.499Z" fill="#5D76B5"/>
</g>
</g>
<path fill-rule="evenodd" clip-rule="evenodd" d="M20.1316 291.849C24.7133 336.157 90.2363 382.912 177.228 400.984C273.599 421.005 359.824 398.242 369.817 350.142C370.854 345.151 371.029 340.084 370.403 334.987L357.607 333.411C357.705 336.85 357.413 340.269 356.71 343.653C347.323 388.837 268.22 410.614 180.028 392.292C102.521 376.19 43.7883 334.477 37.0667 293.934L20.1316 291.849Z" fill="white"/>
<defs>
<filter id="filter0_d_125_220" x="40.7509" y="3.96875" width="265.249" height="409.031" filterUnits="userSpaceOnUse" color-interpolation-filters="sRGB">
<feFlood flood-opacity="0" result="BackgroundImageFix"/>
<feColorMatrix in="SourceAlpha" type="matrix" values="0 0 0 0 0 0 0 0 0 0 0 0 0 0 0 0 0 0 127 0" result="hardAlpha"/>
<feOffset dx="1" dy="4"/>
<feGaussianBlur stdDeviation="2"/>
<feComposite in2="hardAlpha" operator="out"/>
<feColorMatrix type="matrix" values="0 0 0 0 0 0 0 0 0 0 0 0 0 0 0 0 0 0 0.5 0"/>
<feBlend mode="normal" in2="BackgroundImageFix" result="effect1_dropShadow_125_220"/>
<feBlend mode="normal" in="SourceGraphic" in2="effect1_dropShadow_125_220" result="shape"/>
</filter>
<filter id="filter1_d_125_220" x="180.502" y="251.746" width="128.498" height="155.254" filterUnits="userSpaceOnUse" color-interpolation-filters="sRGB">
<feFlood flood-opacity="0" result="BackgroundImageFix"/>
<feColorMatrix in="SourceAlpha" type="matrix" values="0 0 0 0 0 0 0 0 0 0 0 0 0 0 0 0 0 0 127 0" result="hardAlpha"/>
<feOffset dx="4" dy="-1"/>
<feGaussianBlur stdDeviation="2"/>
<feComposite in2="hardAlpha" operator="out"/>
<feColorMatrix type="matrix" values="0 0 0 0 0 0 0 0 0 0 0 0 0 0 0 0 0 0 0.5 0"/>
<feBlend mode="normal" in2="BackgroundImageFix" result="effect1_dropShadow_125_220"/>
<feBlend mode="normal" in="SourceGraphic" in2="effect1_dropShadow_125_220" result="shape"/>
</filter>
<filter id="filter2_d_125_220" x="176.502" y="253.746" width="110.479" height="101.796" filterUnits="userSpaceOnUse" color-interpolation-filters="sRGB">
<feFlood flood-opacity="0" result="BackgroundImageFix"/>
<feColorMatrix in="SourceAlpha" type="matrix" values="0 0 0 0 0 0 0 0 0 0 0 0 0 0 0 0 0 0 127 0" result="hardAlpha"/>
<feOffset dy="1"/>
<feGaussianBlur stdDeviation="2"/>
<feComposite in2="hardAlpha" operator="out"/>
<feColorMatrix type="matrix" values="0 0 0 0 0 0 0 0 0 0 0 0 0 0 0 0 0 0 0.5 0"/>
<feBlend mode="normal" in2="BackgroundImageFix" result="effect1_dropShadow_125_220"/>
<feBlend mode="normal" in="SourceGraphic" in2="effect1_dropShadow_125_220" result="shape"/>
</filter>
<filter id="filter3_d_125_220" x="94" y="20" width="175.5" height="232.187" filterUnits="userSpaceOnUse" color-interpolation-filters="sRGB">
<feFlood flood-opacity="0" result="BackgroundImageFix"/>
<feColorMatrix in="SourceAlpha" type="matrix" values="0 0 0 0 0 0 0 0 0 0 0 0 0 0 0 0 0 0 127 0" result="hardAlpha"/>
<feOffset dx="2"/>
<feGaussianBlur stdDeviation="2"/>
<feComposite in2="hardAlpha" operator="out"/>
<feColorMatrix type="matrix" values="0 0 0 0 0 0 0 0 0 0 0 0 0 0 0 0 0 0 0.25 0"/>
<feBlend mode="normal" in2="BackgroundImageFix" result="effect1_dropShadow_125_220"/>
<feBlend mode="normal" in="SourceGraphic" in2="effect1_dropShadow_125_220" result="shape"/>
</filter>
<filter id="filter4_d_125_220" x="213.776" y="25.2005" width="49.7231" height="50.7995" filterUnits="userSpaceOnUse" color-interpolation-filters="sRGB">
<feFlood flood-opacity="0" result="BackgroundImageFix"/>
<feColorMatrix in="SourceAlpha" type="matrix" values="0 0 0 0 0 0 0 0 0 0 0 0 0 0 0 0 0 0 127 0" result="hardAlpha"/>
<feOffset dy="1"/>
<feGaussianBlur stdDeviation="2"/>
<feComposite in2="hardAlpha" operator="out"/>
<feColorMatrix type="matrix" values="0 0 0 0 0 0 0 0 0 0 0 0 0 0 0 0 0 0 0.5 0"/>
<feBlend mode="normal" in2="BackgroundImageFix" result="effect1_dropShadow_125_220"/>
<feBlend mode="normal" in="SourceGraphic" in2="effect1_dropShadow_125_220" result="shape"/>
</filter>
<filter id="filter5_d_125_220" x="124.5" y="35" width="50.5001" height="46.5158" filterUnits="userSpaceOnUse" color-interpolation-filters="sRGB">
<feFlood flood-opacity="0" result="BackgroundImageFix"/>
<feColorMatrix in="SourceAlpha" type="matrix" values="0 0 0 0 0 0 0 0 0 0 0 0 0 0 0 0 0 0 127 0" result="hardAlpha"/>
<feOffset dy="1"/>
<feGaussianBlur stdDeviation="2"/>
<feComposite in2="hardAlpha" operator="out"/>
<feColorMatrix type="matrix" values="0 0 0 0 0 0 0 0 0 0 0 0 0 0 0 0 0 0 0.75 0"/>
<feBlend mode="normal" in2="BackgroundImageFix" result="effect1_dropShadow_125_220"/>
<feBlend mode="normal" in="SourceGraphic" in2="effect1_dropShadow_125_220" result="shape"/>
</filter>
<filter id="filter6_d_125_220" x="68.6344" y="47" width="67.8656" height="133" filterUnits="userSpaceOnUse" color-interpolation-filters="sRGB">
<feFlood flood-opacity="0" result="BackgroundImageFix"/>
<feColorMatrix in="SourceAlpha" type="matrix" values="0 0 0 0 0 0 0 0 0 0 0 0 0 0 0 0 0 0 127 0" result="hardAlpha"/>
<feOffset dx="1" dy="1"/>
<feGaussianBlur stdDeviation="2"/>
<feComposite in2="hardAlpha" operator="out"/>
<feColorMatrix type="matrix" values="0 0 0 0 0 0 0 0 0 0 0 0 0 0 0 0 0 0 0.5 0"/>
<feBlend mode="normal" in2="BackgroundImageFix" result="effect1_dropShadow_125_220"/>
<feBlend mode="normal" in="SourceGraphic" in2="effect1_dropShadow_125_220" result="shape"/>
</filter>
<filter id="filter7_d_125_220" x="55.4706" y="0.96875" width="172.029" height="82.905" filterUnits="userSpaceOnUse" color-interpolation-filters="sRGB">
<feFlood flood-opacity="0" result="BackgroundImageFix"/>
<feColorMatrix in="SourceAlpha" type="matrix" values="0 0 0 0 0 0 0 0 0 0 0 0 0 0 0 0 0 0 127 0" result="hardAlpha"/>
<feOffset dy="1"/>
<feGaussianBlur stdDeviation="2"/>
<feComposite in2="hardAlpha" operator="out"/>
<feColorMatrix type="matrix" values="0 0 0 0 0 0 0 0 0 0 0 0 0 0 0 0 0 0 0.5 0"/>
<feBlend mode="normal" in2="BackgroundImageFix" result="effect1_dropShadow_125_220"/>
<feBlend mode="normal" in="SourceGraphic" in2="effect1_dropShadow_125_220" result="shape"/>
</filter>
<filter id="filter8_d_125_220" x="81" y="20.5" width="165.167" height="96" filterUnits="userSpaceOnUse" color-interpolation-filters="sRGB">
<feFlood flood-opacity="0" result="BackgroundImageFix"/>
<feColorMatrix in="SourceAlpha" type="matrix" values="0 0 0 0 0 0 0 0 0 0 0 0 0 0 0 0 0 0 127 0" result="hardAlpha"/>
<feOffset dy="3.5"/>
<feGaussianBlur stdDeviation="2"/>
<feComposite in2="hardAlpha" operator="out"/>
<feColorMatrix type="matrix" values="0 0 0 0 0 0 0 0 0 0 0 0 0 0 0 0 0 0 0.5 0"/>
<feBlend mode="normal" in2="BackgroundImageFix" result="effect1_dropShadow_125_220"/>
<feBlend mode="normal" in="SourceGraphic" in2="effect1_dropShadow_125_220" result="shape"/>
</filter>
<filter id="filter9_d_125_220" x="97.5" y="111" width="171.633" height="61.7222" filterUnits="userSpaceOnUse" color-interpolation-filters="sRGB">
<feFlood flood-opacity="0" result="BackgroundImageFix"/>
<feColorMatrix in="SourceAlpha" type="matrix" values="0 0 0 0 0 0 0 0 0 0 0 0 0 0 0 0 0 0 127 0" result="hardAlpha"/>
<feOffset dx="1" dy="2"/>
<feGaussianBlur stdDeviation="2"/>
<feComposite in2="hardAlpha" operator="out"/>
<feColorMatrix type="matrix" values="0 0 0 0 0 0 0 0 0 0 0 0 0 0 0 0 0 0 0.5 0"/>
<feBlend mode="normal" in2="BackgroundImageFix" result="effect1_dropShadow_125_220"/>
<feBlend mode="normal" in="SourceGraphic" in2="effect1_dropShadow_125_220" result="shape"/>
</filter>
<filter id="filter10_d_125_220" x="82" y="149" width="48" height="57" filterUnits="userSpaceOnUse" color-interpolation-filters="sRGB">
<feFlood flood-opacity="0" result="BackgroundImageFix"/>
<feColorMatrix in="SourceAlpha" type="matrix" values="0 0 0 0 0 0 0 0 0 0 0 0 0 0 0 0 0 0 127 0" result="hardAlpha"/>
<feOffset dx="-1" dy="4"/>
<feGaussianBlur stdDeviation="2"/>
<feComposite in2="hardAlpha" operator="out"/>
<feColorMatrix type="matrix" values="0 0 0 0 0 0 0 0 0 0 0 0 0 0 0 0 0 0 0.25 0"/>
<feBlend mode="normal" in2="BackgroundImageFix" result="effect1_dropShadow_125_220"/>
<feBlend mode="normal" in="SourceGraphic" in2="effect1_dropShadow_125_220" result="shape"/>
</filter>
<filter id="filter11_d_125_220" x="109.5" y="141.5" width="27.5" height="49" filterUnits="userSpaceOnUse" color-interpolation-filters="sRGB">
<feFlood flood-opacity="0" result="BackgroundImageFix"/>
<feColorMatrix in="SourceAlpha" type="matrix" values="0 0 0 0 0 0 0 0 0 0 0 0 0 0 0 0 0 0 127 0" result="hardAlpha"/>
<feOffset dx="1" dy="1"/>
<feGaussianBlur stdDeviation="2"/>
<feComposite in2="hardAlpha" operator="out"/>
<feColorMatrix type="matrix" values="0 0 0 0 0 0 0 0 0 0 0 0 0 0 0 0 0 0 0.5 0"/>
<feBlend mode="normal" in2="BackgroundImageFix" result="effect1_dropShadow_125_220"/>
<feBlend mode="normal" in="SourceGraphic" in2="effect1_dropShadow_125_220" result="shape"/>
</filter>
<filter id="filter12_d_125_220" x="135" y="101.173" width="45.799" height="23.8265" filterUnits="userSpaceOnUse" color-interpolation-filters="sRGB">
<feFlood flood-opacity="0" result="BackgroundImageFix"/>
<feColorMatrix in="SourceAlpha" type="matrix" values="0 0 0 0 0 0 0 0 0 0 0 0 0 0 0 0 0 0 127 0" result="hardAlpha"/>
<feOffset dy="1"/>
<feGaussianBlur stdDeviation="2"/>
<feComposite in2="hardAlpha" operator="out"/>
<feColorMatrix type="matrix" values="0 0 0 0 0 0 0 0 0 0 0 0 0 0 0 0 0 0 0.5 0"/>
<feBlend mode="normal" in2="BackgroundImageFix" result="effect1_dropShadow_125_220"/>
<feBlend mode="normal" in="SourceGraphic" in2="effect1_dropShadow_125_220" result="shape"/>
</filter>
<filter id="filter13_d_125_220" x="204.58" y="93.7128" width="48.3893" height="18.9981" filterUnits="userSpaceOnUse" color-interpolation-filters="sRGB">
<feFlood flood-opacity="0" result="BackgroundImageFix"/>
<feColorMatrix in="SourceAlpha" type="matrix" values="0 0 0 0 0 0 0 0 0 0 0 0 0 0 0 0 0 0 127 0" result="hardAlpha"/>
<feOffset dy="1"/>
<feGaussianBlur stdDeviation="2"/>
<feComposite in2="hardAlpha" operator="out"/>
<feColorMatrix type="matrix" values="0 0 0 0 0 0 0 0 0 0 0 0 0 0 0 0 0 0 0.5 0"/>
<feBlend mode="normal" in2="BackgroundImageFix" result="effect1_dropShadow_125_220"/>
<feBlend mode="normal" in="SourceGraphic" in2="effect1_dropShadow_125_220" result="shape"/>
</filter>
<filter id="filter14_d_125_220" x="188" y="154" width="32.5" height="23.6715" filterUnits="userSpaceOnUse" color-interpolation-filters="sRGB">
<feFlood flood-opacity="0" result="BackgroundImageFix"/>
<feColorMatrix in="SourceAlpha" type="matrix" values="0 0 0 0 0 0 0 0 0 0 0 0 0 0 0 0 0 0 127 0" result="hardAlpha"/>
<feOffset dy="2"/>
<feGaussianBlur stdDeviation="2"/>
<feComposite in2="hardAlpha" operator="out"/>
<feColorMatrix type="matrix" values="0 0 0 0 0 0 0 0 0 0 0 0 0 0 0 0 0 0 0.5 0"/>
<feBlend mode="normal" in2="BackgroundImageFix" result="effect1_dropShadow_125_220"/>
<feBlend mode="normal" in="SourceGraphic" in2="effect1_dropShadow_125_220" result="shape"/>
</filter>
<filter id="filter15_d_125_220" x="31.7509" y="258" width="86.2491" height="106.08" filterUnits="userSpaceOnUse" color-interpolation-filters="sRGB">
<feFlood flood-opacity="0" result="BackgroundImageFix"/>
<feColorMatrix in="SourceAlpha" type="matrix" values="0 0 0 0 0 0 0 0 0 0 0 0 0 0 0 0 0 0 127 0" result="hardAlpha"/>
<feOffset dx="-8"/>
<feGaussianBlur stdDeviation="2"/>
<feComposite in2="hardAlpha" operator="out"/>
<feColorMatrix type="matrix" values="0 0 0 0 0 0 0 0 0 0 0 0 0 0 0 0 0 0 0.5 0"/>
<feBlend mode="normal" in2="BackgroundImageFix" result="effect1_dropShadow_125_220"/>
<feBlend mode="normal" in="SourceGraphic" in2="effect1_dropShadow_125_220" result="shape"/>
</filter>
<filter id="filter16_d_125_220" x="79.6799" y="295.16" width="43.6865" height="72.7243" filterUnits="userSpaceOnUse" color-interpolation-filters="sRGB">
<feFlood flood-opacity="0" result="BackgroundImageFix"/>
<feColorMatrix in="SourceAlpha" type="matrix" values="0 0 0 0 0 0 0 0 0 0 0 0 0 0 0 0 0 0 127 0" result="hardAlpha"/>
<feOffset dx="1" dy="1"/>
<feGaussianBlur stdDeviation="2"/>
<feComposite in2="hardAlpha" operator="out"/>
<feColorMatrix type="matrix" values="0 0 0 0 0 0 0 0 0 0 0 0 0 0 0 0 0 0 0.5 0"/>
<feBlend mode="normal" in2="BackgroundImageFix" result="effect1_dropShadow_125_220"/>
<feBlend mode="normal" in="SourceGraphic" in2="effect1_dropShadow_125_220" result="shape"/>
</filter>
<filter id="filter17_d_125_220" x="113.055" y="247" width="97.7881" height="52" filterUnits="userSpaceOnUse" color-interpolation-filters="sRGB">
<feFlood flood-opacity="0" result="BackgroundImageFix"/>
<feColorMatrix in="SourceAlpha" type="matrix" values="0 0 0 0 0 0 0 0 0 0 0 0 0 0 0 0 0 0 127 0" result="hardAlpha"/>
<feOffset dy="-2"/>
<feGaussianBlur stdDeviation="2"/>
<feComposite in2="hardAlpha" operator="out"/>
<feColorMatrix type="matrix" values="0 0 0 0 0 0 0 0 0 0 0 0 0 0 0 0 0 0 0.5 0"/>
<feBlend mode="normal" in2="BackgroundImageFix" result="effect1_dropShadow_125_220"/>
<feBlend mode="normal" in="SourceGraphic" in2="effect1_dropShadow_125_220" result="shape"/>
</filter>
<linearGradient id="paint0_linear_125_220" x1="356.546" y1="296.766" x2="30.6553" y2="318.508" gradientUnits="userSpaceOnUse">
<stop stop-color="#373737"/>
<stop offset="0.630208" stop-color="#C1C1C1"/>
<stop offset="1" stop-color="#333333"/>
</linearGradient>
</defs>
</svg>
