<svg width="407" height="118" viewBox="0 0 407 118" fill="none" xmlns="http://www.w3.org/2000/svg">
<path fill-rule="evenodd" clip-rule="evenodd" d="M113.885 37.3102C103.99 20.9419 86.0226 10 65.5 10C34.2959 10 9 35.2959 9 66.5C9 84.1347 17.0791 99.8824 29.7379 110.244C11.9716 100.077 0 80.9364 0 59C0 26.4152 26.4152 0 59 0C83.9264 0 105.243 15.4577 113.885 37.3102Z" fill="black"/>
<path d="M33.2303 85.44H57.2943V88H29.9023V85.568L53.5183 45.696H30.5423V43.072H56.8463V45.568L33.2303 85.44ZM78.0213 88.448C75.1199 88.448 72.5813 87.936 70.4053 86.912C68.2293 85.888 66.5226 84.5013 65.2853 82.752C64.0906 81.0027 63.4079 79.0613 63.2373 76.928H66.2453C66.5866 79.2747 67.6746 81.3653 69.5093 83.2C71.3866 85.0347 74.2239 85.952 78.0213 85.952C80.2399 85.952 82.1599 85.5467 83.7813 84.736C85.4453 83.9253 86.7253 82.816 87.6213 81.408C88.5173 80 88.9653 78.4427 88.9653 76.736C88.9653 74.56 88.4319 72.832 87.3653 71.552C86.3413 70.272 85.0399 69.312 83.4613 68.672C81.9253 68.032 79.8346 67.3493 77.1893 66.624C74.2879 65.856 71.9413 65.088 70.1493 64.32C68.3999 63.552 66.9066 62.3787 65.6693 60.8C64.4746 59.1787 63.8773 56.9813 63.8773 54.208C63.8773 52.0747 64.4319 50.1333 65.5413 48.384C66.6933 46.592 68.3146 45.184 70.4053 44.16C72.4959 43.136 74.9066 42.624 77.6373 42.624C81.6053 42.624 84.8053 43.6053 87.2373 45.568C89.6693 47.5307 91.1199 49.9413 91.5893 52.8H88.5173C88.2613 51.648 87.6853 50.4747 86.7893 49.28C85.9359 48.0853 84.6986 47.104 83.0773 46.336C81.4986 45.5253 79.5999 45.12 77.3813 45.12C74.3946 45.12 71.8773 45.952 69.8293 47.616C67.7813 49.2373 66.7573 51.4133 66.7573 54.144C66.7573 56.32 67.2906 58.0693 68.3573 59.392C69.4239 60.672 70.7253 61.6533 72.2613 62.336C73.8399 62.976 75.9519 63.6373 78.5972 64.32C81.5413 65.1307 83.8666 65.92 85.5733 66.688C87.3226 67.4133 88.7946 68.5867 89.9893 70.208C91.2266 71.7867 91.8453 73.9413 91.8453 76.672C91.8453 78.6773 91.3119 80.576 90.2453 82.368C89.1786 84.16 87.5999 85.632 85.5093 86.784C83.4613 87.8933 80.9653 88.448 78.0213 88.448ZM113.075 43.072C120.669 43.072 126.515 45.056 130.611 49.024C134.749 52.992 136.819 58.5173 136.819 65.6C136.819 72.6827 134.749 78.1867 130.611 82.112C126.515 86.0373 120.669 88 113.075 88H100.467V43.072H113.075ZM113.075 85.568C119.859 85.568 125.021 83.8187 128.563 80.32C132.104 76.7787 133.875 71.872 133.875 65.6C133.875 59.2853 132.104 54.3573 128.563 50.816C125.021 47.2747 119.859 45.504 113.075 45.504H103.347V85.568H113.075ZM172.665 53.248L152.441 104.32H149.497L155.961 88L141.369 53.248H144.505L157.561 84.8L169.721 53.248H172.665ZM194.772 52.544C198.91 52.544 202.281 53.824 204.884 56.384C207.486 58.9013 208.788 62.656 208.788 67.648V88H205.972V67.84C205.972 63.7013 204.926 60.544 202.836 58.368C200.745 56.1493 197.908 55.04 194.324 55.04C190.569 55.04 187.561 56.2347 185.3 58.624C183.081 61.0133 181.972 64.5547 181.972 69.248V88H179.092V53.248H181.972V60.608C182.953 58.0053 184.574 56.0213 186.836 54.656C189.14 53.248 191.785 52.544 194.772 52.544ZM217.175 70.592C217.175 67.008 217.879 63.872 219.287 61.184C220.737 58.496 222.721 56.4267 225.239 54.976C227.799 53.5253 230.7 52.8 233.943 52.8C237.612 52.8 240.727 53.696 243.287 55.488C245.847 57.28 247.639 59.5627 248.663 62.336V53.248H251.543V88H248.663V78.848C247.639 81.664 245.825 83.9893 243.223 85.824C240.663 87.616 237.569 88.512 233.943 88.512C230.7 88.512 227.799 87.7867 225.239 86.336C222.721 84.8427 220.737 82.752 219.287 80.064C217.879 77.3333 217.175 74.176 217.175 70.592ZM248.663 70.592C248.663 67.5627 248.023 64.896 246.743 62.592C245.505 60.2453 243.799 58.4533 241.623 57.216C239.447 55.936 237.015 55.296 234.327 55.296C231.511 55.296 229.036 55.9147 226.903 57.152C224.769 58.3467 223.105 60.096 221.911 62.4C220.716 64.704 220.119 67.4347 220.119 70.592C220.119 73.7493 220.716 76.48 221.911 78.784C223.105 81.088 224.769 82.8587 226.903 84.096C229.079 85.3333 231.553 85.952 234.327 85.952C237.015 85.952 239.447 85.3333 241.623 84.096C243.841 82.816 245.569 81.024 246.807 78.72C248.044 76.3733 248.663 73.664 248.663 70.592ZM303.117 52.544C307.085 52.544 310.328 53.824 312.845 56.384C315.363 58.9013 316.621 62.656 316.621 67.648V88H313.805V67.84C313.805 63.7013 312.803 60.544 310.797 58.368C308.835 56.1493 306.125 55.04 302.669 55.04C299.085 55.04 296.205 56.2773 294.029 58.752C291.853 61.2267 290.765 64.8107 290.765 69.504V88H287.949V67.84C287.949 63.7013 286.947 60.544 284.941 58.368C282.979 56.1493 280.269 55.04 276.813 55.04C273.229 55.04 270.349 56.2773 268.173 58.752C265.997 61.2267 264.909 64.8107 264.909 69.504V88H262.029V53.248H264.909V60.8C265.891 58.0693 267.469 56.0213 269.645 54.656C271.864 53.248 274.403 52.544 277.261 52.544C280.419 52.544 283.128 53.376 285.389 55.04C287.693 56.6613 289.272 59.072 290.125 62.272C290.936 59.072 292.515 56.6613 294.861 55.04C297.208 53.376 299.96 52.544 303.117 52.544ZM328.314 45.504C327.631 45.504 327.055 45.2907 326.586 44.864C326.116 44.3947 325.882 43.776 325.882 43.008C325.882 42.2827 326.116 41.6853 326.586 41.216C327.055 40.7467 327.631 40.512 328.314 40.512C328.996 40.512 329.572 40.7467 330.042 41.216C330.511 41.6853 330.746 42.2827 330.746 43.008C330.746 43.776 330.511 44.3947 330.042 44.864C329.572 45.2907 328.996 45.504 328.314 45.504ZM329.722 53.248V88H326.842V53.248H329.722ZM338.487 70.592C338.487 66.9653 339.191 63.808 340.599 61.12C342.05 58.432 344.034 56.384 346.551 54.976C349.111 53.5253 352.034 52.8 355.319 52.8C359.671 52.8 363.234 53.888 366.007 56.064C368.823 58.24 370.573 61.1627 371.255 64.832H368.247C367.693 61.8453 366.242 59.4987 363.895 57.792C361.591 56.0853 358.733 55.232 355.319 55.232C352.759 55.232 350.434 55.808 348.343 56.96C346.253 58.0693 344.567 59.7973 343.287 62.144C342.05 64.448 341.431 67.264 341.431 70.592C341.431 73.9627 342.05 76.8 343.287 79.104C344.567 81.408 346.253 83.136 348.343 84.288C350.434 85.44 352.759 86.016 355.319 86.016C358.733 86.016 361.591 85.1627 363.895 83.456C366.242 81.7493 367.693 79.4027 368.247 76.416H371.255C370.573 80.0427 368.823 82.9653 366.007 85.184C363.191 87.4027 359.629 88.512 355.319 88.512C352.034 88.512 349.111 87.7867 346.551 86.336C344.034 84.8853 342.05 82.816 340.599 80.128C339.191 77.3973 338.487 74.2187 338.487 70.592ZM391.613 88.512C387.731 88.512 384.552 87.6587 382.077 85.952C379.645 84.2453 378.28 81.8133 377.981 78.656H380.925C381.139 80.9173 382.163 82.7093 383.997 84.032C385.875 85.3547 388.413 86.016 391.613 86.016C394.259 86.016 396.349 85.3547 397.885 84.032C399.464 82.6667 400.253 81.0027 400.253 79.04C400.253 77.6747 399.827 76.5653 398.973 75.712C398.163 74.816 397.139 74.1333 395.901 73.664C394.664 73.1947 392.979 72.6827 390.845 72.128C388.285 71.4453 386.216 70.784 384.637 70.144C383.059 69.4613 381.715 68.4587 380.605 67.136C379.496 65.8133 378.941 64.0427 378.941 61.824C378.941 60.2027 379.432 58.7093 380.413 57.344C381.395 55.936 382.76 54.8267 384.509 54.016C386.259 53.2053 388.243 52.8 390.461 52.8C394.088 52.8 397.011 53.7173 399.229 55.552C401.491 57.344 402.707 59.84 402.877 63.04H399.997C399.869 60.736 398.973 58.8587 397.309 57.408C395.645 55.9573 393.341 55.232 390.397 55.232C387.923 55.232 385.875 55.872 384.253 57.152C382.632 58.432 381.821 59.9893 381.821 61.824C381.821 63.4453 382.269 64.768 383.165 65.792C384.104 66.7733 385.235 67.5413 386.557 68.096C387.923 68.608 389.715 69.1627 391.933 69.76C394.365 70.4 396.307 71.04 397.757 71.68C399.251 72.2773 400.509 73.1733 401.533 74.368C402.557 75.52 403.069 77.0773 403.069 79.04C403.069 80.832 402.579 82.4533 401.597 83.904C400.616 85.3547 399.251 86.4853 397.501 87.296C395.752 88.1067 393.789 88.512 391.613 88.512Z" fill="black"/>
</svg>
