<svg width="416" height="232" viewBox="0 0 416 232" fill="none" xmlns="http://www.w3.org/2000/svg">
<g clip-path="url(#clip0_39_18)">
<ellipse cx="270.5" cy="219.5" rx="401.5" ry="91.5" fill="black"/>
<path d="M306.5 111.5L308 110L307.5 109V108.5L307 107.5L307.5 106.5V105.5L306.5 104.5L306 103L306.5 102.5L307 102L307.5 101.5C307.333 101.333 307 100.9 307 100.5C307 100.1 307.667 100.333 308 100.5L309 100V99.5L310 99L310.5 98.5V97.5C310.833 97.5 311.5 97.4 311.5 97C311.5 96.5 313 97 313.5 97H314.5C314.833 97.1667 315.6 97.5 316 97.5C316.4 97.5 317.167 98.1667 317.5 98.5L318 100L319 102V104.5L318.5 105.5L317.5 106L318 107H317L317.5 108L316.5 108.5L317 109L316.5 110L316 111H316.5V111.5H315L315.5 112L315 112.5H314.5L314 113.5L313.5 116V119L313 120.5V122.5L312 124.5L312.5 125V126.5L311.5 129H301.5L300.5 127L300 125.5L298.5 124L296.5 122.5L294.5 122L293 123.5L290.5 125.5L291 127L289.5 129H277V127.5L278.5 126L281.5 125.5L282.5 124.5L284.5 124L287.5 121L293 116L295 116.5L297.5 117.5H299L298.5 116.5L297 116L296 114.5L294 113.5L295 111H296L297.5 111.5H299L301 113.5L304 115H305L306.5 111.5Z" fill="black" stroke="black" stroke-width="0.25"/>
<path d="M329.5 127.5V130C325 130.167 315.9 130.4 315.5 130C315.1 129.6 316 128.5 316.5 128L317.5 125L318 122.5C318.333 121.562 319 119.649 319 119.5C319 119.351 319.333 118.438 319.5 118L319 114C319.333 113.167 319.9 111.3 319.5 110.5C319.1 109.7 319.667 109.833 320 110L321 109L320.5 103L320 100.5V98L319.5 96L320 95C319.833 94.6667 319.6 93.7 320 92.5C320.4 91.3 319.5 90.6667 319 90.5C318.5 89.1667 317.4 86.4 317 86C316.6 85.6 316.833 85.1667 317 85C316.833 84.3333 316.2 82.8 315 82C313.5 81 314.5 81.5 313.5 79.5C312.5 79 313 79 312 79C311 79 310.5 79 309.5 79.5C308.5 80 308.5 79.5 307.5 79C306.5 78.5 306.5 78.5 306.5 78C306.5 77.5 305 78 305 79C305 80 303 79.5 302.5 80.5C302.5 80.9 301.833 81 301.5 81C301 80.8333 299.9 80.7 299.5 81.5C299 82.5 297.5 82 296.5 81.5C295.5 81 295 81 294 81C293 81 293.5 82 292.5 82C291.5 82 292 81.5 291.5 80.5C291 79.5 290.5 80.5 290 80.5C289.5 80.5 288.5 81.5 288 81.5C287.6 81.5 287.5 81.1667 287.5 81H284L285 80.5H282.5C281.667 80.6667 279.8 80.9 279 80.5C278.2 80.1 278.333 80.3333 278.5 80.5L277.5 81C277.167 81.3333 276.5 82.1 276.5 82.5C276.5 83 274 82.5 273.5 82.5C273.1 82.5 273.333 81.8333 273.5 81.5C273 81.5 271.9 81.4 271.5 81C271.1 80.6 270.333 80.8333 270 81C269.667 81.1667 268.8 81.5 268 81.5C267 81.5 267 82 265.5 81.5C265.252 81.4173 265.071 81.3616 264.942 81.3269L265 81.5C264.736 81.3678 264.45 81.1937 264.942 81.3269L264.5 80L263.5 79.5H262C261.833 79.1667 261.3 78.4 260.5 78C259.7 77.6 258.833 77.8333 258.5 78C258.167 77.5 257.5 76.4 257.5 76C257.5 75.6 257.833 75.1667 258 75C258 74.6667 257.9 74 257.5 74C257 74 257 74.5 256.5 74.5C256.1 74.5 255.667 73.8333 255.5 73.5C255.333 73.1667 255.1 72.3 255.5 71.5C255.9 70.7 254 70.8333 253 71C252.833 70.1667 252.6 68.2702 253 67.351C253.4 66.4319 253.167 66.0674 253 66C252.833 65.5 252.6 64.3 253 63.5C253 63.1 252 62.3333 251.5 62V61L252 59.5V58.5C252.167 58.1667 252.7 57.5 253.5 57.5C254.3 57.5 254.167 56.8333 254 56.5L255.5 54L256.5 53C257 52.5 257 53.5 257.5 53.5C257.9 53.5 258.333 52.5 258.5 52C258.333 51.5 258.1 50.5 258.5 50.5C259 50.5 259 50.5 259.5 50C260 49.5 259.5 49.5 260 49C260.5 48.5 260.5 48.5 261 48.5C261.5 48.5 262.5 47.5 262.5 47V45.5L263.5 44L264.5 43L264 41H265.5C265.667 40.5 266.1 39.4 266.5 39C267 38.5 266.5 38.5 266.5 37.5C266.5 37.1 267.5 36.6667 268 36.5V35.5L268.5 33.5L269.5 33H269C269 32.6667 268.9 32 268.5 32C268.1 32 268 31.3333 268 31V30L267 29V28.5L268 28L268.5 27L269.5 27.5C269.667 27.3333 270.1 26.8 270.5 26C270.9 25.2 270.333 25.3333 270 25.5L270.5 24C270.833 23.6667 271.6 23.0559 272 23.2797C272.366 23.4845 272.202 23.795 272.043 23.9587C272.233 23.7839 272.631 23.5 273 23.5C273.4 23.5 273.167 22.5 273 22C272.833 21.8333 272.5 21.4 272.5 21C272.5 20.6 273.5 20.5 274 20.5C274.333 20.3333 275.1 19.9 275.5 19.5C276 19 276 18.5 276.5 18.5H277.5L278 17.5C278.333 17.5 279.1 17.4 279.5 17C280 16.5 280 16 280.5 15.5C280.9 15.1 281.333 16 281.5 16.5L282.5 16L283 15H285C286.2 15 286.167 14.6667 286 14.5L287.5 13.5V13L290 12L291.246 11C291.664 11.1667 292.6 11.5 293 11.5H294.5C294.9 11.5 295.667 11.1667 296 11C296.167 10.8333 296.5 10.4 296.5 10C296.5 9.6 297.5 9.83333 298 10C298 9.66667 298.1 9 298.5 9C298.9 9 299.333 8.66667 299.5 8.5H301.5L303.5 8C303.833 7.83333 304.5 7.6 304.5 8C304.5 8.4 305.066 7.83333 305.348 7.5L306.5 6.5L307 5.5C308.047 5.5 310.413 5.6 311.5 6C312.587 6.4 312.62 5.83333 312.5 5.5L314 6L315 5.5H316.5L318 6L318.5 5L319 5.5H320.5C320.9 5.5 321 5.83333 321 6H324C324.333 6.16667 325.1 6.5 325.5 6.5H328C328.5 6.5 328 7 328.5 7C329 7 329 7.5 330 7.5C330.8 7.5 331 7.16667 331 7L332.5 6.5C332.667 6.83333 333.1 7.6 333.5 8C333.9 8.4 334.333 9.16667 334.5 9.5L336 10.5L337 10L338 11L339.5 11.5L340.5 12.5C340.667 12.5 341.1 12.6 341.5 13C341.9 13.4 342.333 12.8333 342.5 12.5C343 12.5 344.1 12.6 344.5 13C344.9 13.4 345.667 12.8333 346 12.5H347.5L349.5 14H351.5L354 16L354.5 15.5H355.5C356 15.6667 357 16.1 357 16.5C357 16.9 357.667 16 358 15.5H360C360.4 15.5 360.167 16.1667 360 16.5L362 18L363.5 19H364.5C364.667 19.1667 365.035 19.7 365.175 20.5C365.316 21.3 366.117 20.1667 366.5 19.5L367.5 20.5L370.5 21.5L372 22L373.5 24.5C374 24.6667 375.1 25 375.5 25C375.9 25 376 25.3333 376 25.5L377 27.5C377.333 27.5 378.1 27.6 378.5 28C378.9 28.4 379.333 29.5 379.5 30L382 30.5L383 31.5L382.5 33L381.5 33.5C381.667 34 382.1 35.1 382.5 35.5C382.9 35.9 383.667 36 384 36V38.5L384.5 39L385.5 40V42.5L386 42L387 42.5L388 43.5V45.5C388 46 389 47 388.5 47.5C388.1 47.9 387.667 47.6667 387.5 47.5L386.5 48.5V50H388.5L391 50.5C391.333 51 392.1 52 392.5 52C392.9 52 393.333 52.3333 393.5 52.5L396 53.5L395.5 54.5L397.5 56.5L396.5 58C396.667 58.6667 396.9 60.1 396.5 60.5C396.1 60.9 395.667 60.6667 395.5 60.5L396 62L397 64L397.5 67C397.5 67.3333 397.4 68.1 397 68.5C396.6 68.9 396.167 68.3333 396 68C395.5 68.3333 394.4 69 394 69C393.6 69 394.5 70.3333 395 71L395.5 72.5C395.333 72.8333 394.8 73.5 394 73.5C393.2 73.5 393.333 74.1667 393.5 74.5C393.333 74.8333 392.8 75.6 392 76C391.2 76.4 391 76.8333 391 77L391.5 79L391 80.5L389.5 82.5C389.167 82.3333 388.3 82 387.5 82C386.7 82 387.5 83 388 83.5C387.5 83.8333 386.433 84.6 386.164 85C385.896 85.4 384.943 85.5 384.5 85.5V86.5C384 86.8333 382.9 87.6 382.5 88C382.1 88.4 380.333 87.8333 379.5 87.5V88.5L379 90L377.5 90.5H376C375.833 90.3333 375.3 90 374.5 90C373.7 90 373.833 89.3333 374 89L372.5 87.5H371C370.2 87.5 370.333 88.1667 370.5 88.5H369C368.5 88.5569 367.4 88.6706 367 88.6706C366.6 88.6706 366.167 87.8902 366 87.5H364.5C364.5 87.3333 364.3 87 363.5 87C362.7 87 362.833 87.3333 363 87.5C362.333 87.3333 360.8 87 360 87C359.2 87 358.333 86.3333 358 86C357.5 86.1667 356.5 86.6 356.5 87C356.5 87.5 355.5 87.5 354.5 87C353.7 86.6 353.833 86.5 354 86.5L353 86C352.667 86 351.9 85.9 351.5 85.5C351.1 85.1 350 85.3333 349.5 85.5H347.5L348.5 85L347 84L345 83L344.5 84H343.801H343L342 85L341.5 84.5L340 85L339 84L338.237 83.5L338 82.5L337 83L335.5 84L334.5 83.5L333.279 82.5H332L330.5 84L329.5 86.5L329 88.6706L328 92L327.5 94.5L328 96.5V98.5L328.5 100L328 102.5L329 104.5V108.5C329 109.667 328.9 112.1 328.5 112.5C328.1 112.9 328.667 114 329 114.5V116L328.5 118V121.5C328.333 122 328 123.2 328 124C328 124.8 328.667 126 329 126.5L329.5 127.5Z" fill="black"/>
<path d="M329.5 130V127.5L329 126.5C328.667 126 328 124.8 328 124C328 123.2 328.333 122 328.5 121.5V118L329 116V114.5C328.667 114 328.1 112.9 328.5 112.5C328.9 112.1 329 109.667 329 108.5V104.5L328 102.5L328.5 100L328 98.5V96.5L327.5 94.5L328 92L329 88.6706L329.5 86.5L330.5 84L332 82.5H333.279L334.5 83.5L335.5 84L337 83L338 82.5L338.237 83.5L339 84L340 85L341.5 84.5L342 85L343 84H343.801H344.5L345 83L347 84L348.5 85L347.5 85.5H349.5C350 85.3333 351.1 85.1 351.5 85.5C351.9 85.9 352.667 86 353 86L354 86.5C353.833 86.5 353.7 86.6 354.5 87C355.5 87.5 356.5 87.5 356.5 87C356.5 86.6 357.5 86.1667 358 86C358.333 86.3333 359.2 87 360 87C360.8 87 362.333 87.3333 363 87.5C362.833 87.3333 362.7 87 363.5 87C364.3 87 364.5 87.3333 364.5 87.5H366C366.167 87.8902 366.6 88.6706 367 88.6706C367.4 88.6706 368.5 88.5569 369 88.5H370.5C370.333 88.1667 370.2 87.5 371 87.5C371.8 87.5 372.333 87.5 372.5 87.5L374 89C373.833 89.3333 373.7 90 374.5 90C375.3 90 375.833 90.3333 376 90.5H377.5L379 90L379.5 88.5V87.5C380.333 87.8333 382.1 88.4 382.5 88C382.9 87.6 384 86.8333 384.5 86.5V85.5C384.943 85.5 385.896 85.4 386.164 85C386.433 84.6 387.5 83.8333 388 83.5C387.5 83 386.7 82 387.5 82C388.3 82 389.167 82.3333 389.5 82.5L391 80.5L391.5 79L391 77C391 76.8333 391.2 76.4 392 76C392.8 75.6 393.333 74.8333 393.5 74.5C393.333 74.1667 393.2 73.5 394 73.5C394.8 73.5 395.333 72.8333 395.5 72.5L395 71C394.5 70.3333 393.6 69 394 69C394.4 69 395.5 68.3333 396 68C396.167 68.3333 396.6 68.9 397 68.5C397.4 68.1 397.5 67.3333 397.5 67L397 64L396 62L395.5 60.5C395.667 60.6667 396.1 60.9 396.5 60.5C396.9 60.1 396.667 58.6667 396.5 58L397.5 56.5L395.5 54.5L396 53.5L393.5 52.5C393.333 52.3333 392.9 52 392.5 52C392.1 52 391.333 51 391 50.5L388.5 50H386.5V48.5L387.5 47.5C387.667 47.6667 388.1 47.9 388.5 47.5C389 47 388 46 388 45.5C388 45.1 388 44 388 43.5L387 42.5L386 42L385.5 42.5V40L384.5 39L384 38.5V36C383.667 36 382.9 35.9 382.5 35.5C382.1 35.1 381.667 34 381.5 33.5L382.5 33L383 31.5L382 30.5L379.5 30C379.333 29.5 378.9 28.4 378.5 28C378.1 27.6 377.333 27.5 377 27.5L376 25.5C376 25.3333 375.9 25 375.5 25C375.1 25 374 24.6667 373.5 24.5L372 22L370.5 21.5L367.5 20.5L366.5 19.5C366.117 20.1667 365.316 21.3 365.175 20.5C365.035 19.7 364.667 19.1667 364.5 19H363.5L362 18L360 16.5C360.167 16.1667 360.4 15.5 360 15.5C359.6 15.5 358.5 15.5 358 15.5C357.667 16 357 16.9 357 16.5C357 16.1 356 15.6667 355.5 15.5H354.5L354 16L351.5 14H349.5L347.5 12.5H346C345.667 12.8333 344.9 13.4 344.5 13C344.1 12.6 343 12.5 342.5 12.5C342.333 12.8333 341.9 13.4 341.5 13C341.1 12.6 340.667 12.5 340.5 12.5L339.5 11.5L338 11L337 10L336 10.5L334.5 9.5C334.333 9.16667 333.9 8.4 333.5 8C333.1 7.6 332.667 6.83333 332.5 6.5L331 7C331 7.16667 330.8 7.5 330 7.5C329 7.5 329 7 328.5 7C328 7 328.5 6.5 328 6.5C327.5 6.5 326 6.5 325.5 6.5C325.1 6.5 324.333 6.16667 324 6H321C321 5.83333 320.9 5.5 320.5 5.5C320.1 5.5 319.333 5.5 319 5.5L318.5 5L318 6L316.5 5.5H315L314 6L312.5 5.5C312.62 5.83333 312.587 6.4 311.5 6C310.413 5.6 308.047 5.5 307 5.5L306.5 6.5L305.348 7.5C305.066 7.83333 304.5 8.4 304.5 8C304.5 7.6 303.833 7.83333 303.5 8L301.5 8.5H299.5C299.333 8.66667 298.9 9 298.5 9C298.1 9 298 9.66667 298 10C297.5 9.83333 296.5 9.6 296.5 10C296.5 10.4 296.167 10.8333 296 11C295.667 11.1667 294.9 11.5 294.5 11.5C294 11.5 293.5 11.5 293 11.5C292.6 11.5 291.664 11.1667 291.246 11L290 12L287.5 13V13.5L286 14.5C286.167 14.6667 286.2 15 285 15C283.8 15 283.167 15 283 15L282.5 16L281.5 16.5C281.333 16 280.9 15.1 280.5 15.5C280 16 280 16.5 279.5 17C279.1 17.4 278.333 17.5 278 17.5L277.5 18.5C277.333 18.5 276.9 18.5 276.5 18.5C276 18.5 276 19 275.5 19.5C275.1 19.9 274.333 20.3333 274 20.5C273.5 20.5 272.5 20.6 272.5 21C272.5 21.4 272.833 21.8333 273 22C273.167 22.5 273.4 23.5 273 23.5C272.6 23.5 272.167 23.8333 272 24C272.167 23.8531 272.4 23.5034 272 23.2797C271.6 23.0559 270.833 23.6667 270.5 24L270 25.5C270.333 25.3333 270.9 25.2 270.5 26C270.1 26.8 269.667 27.3333 269.5 27.5L268.5 27L268 28L267 28.5V29L268 30V31C268 31.3333 268.1 32 268.5 32C268.9 32 269 32.6667 269 33H269.5L268.5 33.5L268 35.5V36.5C267.5 36.6667 266.5 37.1 266.5 37.5C266.5 38.5 267 38.5 266.5 39C266.1 39.4 265.667 40.5 265.5 41H264L264.5 43L263.5 44L262.5 45.5C262.5 45.8333 262.5 46.6 262.5 47C262.5 47.5 261.5 48.5 261 48.5C260.5 48.5 260.5 48.5 260 49C259.5 49.5 260 49.5 259.5 50C259 50.5 259 50.5 258.5 50.5C258.1 50.5 258.333 51.5 258.5 52C258.333 52.5 257.9 53.5 257.5 53.5C257 53.5 257 52.5 256.5 53C256.1 53.4 255.667 53.8333 255.5 54L254 56.5C254.167 56.8333 254.3 57.5 253.5 57.5C252.7 57.5 252.167 58.1667 252 58.5V59.5L251.5 61V62C252 62.3333 253 63.1 253 63.5C252.6 64.3 252.833 65.5 253 66C253.167 66.0674 253.4 66.4319 253 67.351C252.6 68.2702 252.833 70.1667 253 71C254 70.8333 255.9 70.7 255.5 71.5C255.1 72.3 255.333 73.1667 255.5 73.5C255.667 73.8333 256.1 74.5 256.5 74.5C257 74.5 257 74 257.5 74C257.9 74 258 74.6667 258 75C257.833 75.1667 257.5 75.6 257.5 76C257.5 76.4 258.167 77.5 258.5 78C258.833 77.8333 259.7 77.6 260.5 78C261.3 78.4 261.833 79.1667 262 79.5H263.5L264.5 80L265 81.5C264.667 81.3333 264.3 81.1 265.5 81.5C267 82 267 81.5 268 81.5C268.8 81.5 269.667 81.1667 270 81C270.333 80.8333 271.1 80.6 271.5 81C271.9 81.4 273 81.5 273.5 81.5C273.333 81.8333 273.1 82.5 273.5 82.5C274 82.5 276.5 83 276.5 82.5C276.5 82.1 277.167 81.3333 277.5 81L278.5 80.5C278.333 80.3333 278.2 80.1 279 80.5C279.8 80.9 281.667 80.6667 282.5 80.5H285L284 81H287.5C287.5 81.1667 287.6 81.5 288 81.5C288.5 81.5 289.5 80.5 290 80.5C290.5 80.5 291 79.5 291.5 80.5C292 81.5 291.5 82 292.5 82C293.5 82 293 81 294 81C295 81 295.5 81 296.5 81.5C297.5 82 299 82.5 299.5 81.5C299.9 80.7 301 80.8333 301.5 81C301.833 81 302.5 80.9 302.5 80.5C303 79.5 305 80 305 79C305 78 306.5 77.5 306.5 78C306.5 78.5 306.5 78.5 307.5 79C308.5 79.5 308.5 80 309.5 79.5C310.5 79 311 79 312 79C313 79 312.5 79 313.5 79.5C314.5 81.5 313.5 81 315 82C316.2 82.8 316.833 84.3333 317 85C316.833 85.1667 316.6 85.6 317 86C317.4 86.4 318.5 89.1667 319 90.5C319.5 90.6667 320.4 91.3 320 92.5C319.6 93.7 319.833 94.6667 320 95L319.5 96L320 98V100.5L320.5 103L321 109L320 110C319.667 109.833 319.1 109.7 319.5 110.5C319.9 111.3 319.333 113.167 319 114L319.5 118C319.333 118.438 319 119.351 319 119.5C319 119.649 318.333 121.562 318 122.5L317.5 125L316.5 128C316 128.5 315.1 129.6 315.5 130C315.9 130.4 325 130.167 329.5 130Z" stroke="black" stroke-width="0.25"/>
</g>
<defs>
<clipPath id="clip0_39_18">
<rect width="416" height="232" fill="white"/>
</clipPath>
</defs>
</svg>
