<svg width="1451" height="513" viewBox="0 0 1451 513" fill="none" xmlns="http://www.w3.org/2000/svg">
<g clip-path="url(#clip0_108_257)">
<g clip-path="url(#clip1_108_257)">
<path fill-rule="evenodd" clip-rule="evenodd" d="M914.5 444V441.5L914 440.5C913.667 440 913 438.8 913 438C913 437.2 913.333 436 913.5 435.5V432L914 430V428.5C913.667 428 913.1 426.9 913.5 426.5C913.9 426.1 914 423.667 914 422.5V418.5L913 416.5L913.5 414L913 412.5V410.5L912.5 408.5L913 406L914 402.671L914.5 400.5L915.5 398L917 396.5H918.279L919.5 397.5L920.5 398L922 397L923 396.5L923.237 397.5L924 398L925 399L926.5 398.5L927 399L928 398H928.801H929.5L930 397L932 398L933.5 399L932.5 399.5H934.5C935 399.333 936.1 399.1 936.5 399.5C936.9 399.9 937.667 400 938 400L939 400.5C938.833 400.5 938.7 400.6 939.5 401C940.5 401.5 941.5 401.5 941.5 401C941.5 400.6 942.5 400.167 943 400C943.333 400.333 944.2 401 945 401C945.8 401 947.333 401.333 948 401.5C947.833 401.333 947.7 401 948.5 401C949.3 401 949.5 401.333 949.5 401.5H951C951.167 401.89 951.6 402.671 952 402.671C952.4 402.671 953.5 402.557 954 402.5H955.5C955.333 402.167 955.2 401.5 956 401.5H957.5L959 403C958.833 403.333 958.7 404 959.5 404C960.3 404 960.833 404.333 961 404.5H962.5L964 404L964.5 402.5V401.5C965.333 401.833 967.1 402.4 967.5 402C967.9 401.6 969 400.833 969.5 400.5V399.5C969.943 399.5 970.896 399.4 971.164 399C971.433 398.6 972.5 397.833 973 397.5C972.5 397 971.7 396 972.5 396C973.3 396 974.167 396.333 974.5 396.5L976 394.5L976.5 393L976 391C976 390.833 976.2 390.4 977 390C977.8 389.6 978.333 388.833 978.5 388.5C978.333 388.167 978.2 387.5 979 387.5C979.8 387.5 980.333 386.833 980.5 386.5L980 385C979.5 384.333 978.6 383 979 383C979.4 383 980.5 382.333 981 382C981.167 382.333 981.6 382.9 982 382.5C982.4 382.1 982.5 381.333 982.5 381L982 378L981 376L980.5 374.5C980.667 374.667 981.1 374.9 981.5 374.5C981.9 374.1 981.667 372.667 981.5 372L982.5 370.5L980.5 368.5L981 367.5L978.5 366.5C978.333 366.333 977.9 366 977.5 366C977.1 366 976.333 365 976 364.5L973.5 364H971.5V362.5L972.5 361.5C972.667 361.667 973.1 361.9 973.5 361.5C973.814 361.186 973.537 360.675 973.287 360.215C973.139 359.942 973 359.686 973 359.5V357.5L972 356.5L971 356L970.5 356.5V354L969.5 353L969 352.5V350C968.667 350 967.9 349.9 967.5 349.5C967.1 349.1 966.667 348 966.5 347.5L967.5 347L968 345.5L967 344.5L964.5 344C964.333 343.5 963.9 342.4 963.5 342C963.1 341.6 962.333 341.5 962 341.5L961 339.5C961 339.333 960.9 339 960.5 339C960.1 339 959 338.667 958.5 338.5L957 336L955.5 335.5L952.5 334.5L951.5 333.5C951.117 334.167 950.315 335.3 950.175 334.5C950.035 333.7 949.667 333.167 949.5 333H948.5L947 332L945 330.5C945.167 330.167 945.4 329.5 945 329.5H943C942.667 330 942 330.9 942 330.5C942 330.1 941 329.667 940.5 329.5H939.5L939 330L936.5 328H934.5L932.5 326.5H931C930.667 326.833 929.9 327.4 929.5 327C929.1 326.6 928 326.5 927.5 326.5C927.333 326.833 926.9 327.4 926.5 327C926.1 326.6 925.667 326.5 925.5 326.5L924.5 325.5L923 325L922 324L921 324.5L919.5 323.5C919.333 323.167 918.9 322.4 918.5 322C918.1 321.6 917.667 320.833 917.5 320.5L916 321C916 321.167 915.8 321.5 915 321.5C914.414 321.5 914.172 321.328 913.971 321.186C913.828 321.086 913.707 321 913.5 321C913.25 321 913.25 320.875 913.25 320.75C913.25 320.625 913.25 320.5 913 320.5H910.5C910.1 320.5 909.333 320.167 909 320H906C906 319.833 905.9 319.5 905.5 319.5H904L903.5 319L903 320L901.5 319.5H900L899 320L897.5 319.5C897.62 319.833 897.587 320.4 896.5 320C895.413 319.6 893.047 319.5 892 319.5L891.5 320.5L890.348 321.5C890.066 321.833 889.5 322.4 889.5 322C889.5 321.6 888.833 321.833 888.5 322L886.5 322.5H884.5C884.333 322.667 883.9 323 883.5 323C883.1 323 883 323.667 883 324C882.5 323.833 881.5 323.6 881.5 324C881.5 324.4 881.167 324.833 881 325C880.667 325.167 879.9 325.5 879.5 325.5H878C877.6 325.5 876.664 325.167 876.246 325L875 326L872.5 327V327.5L871 328.5C871.167 328.667 871.2 329 870 329H868L867.5 330L866.5 330.5C866.333 330 865.9 329.1 865.5 329.5C865.25 329.75 865.125 330 865 330.25C864.875 330.5 864.75 330.75 864.5 331C864.1 331.4 863.333 331.5 863 331.5L862.5 332.5H861.5C861.191 332.5 861.073 332.691 860.91 332.955C860.809 333.118 860.691 333.309 860.5 333.5C860.1 333.9 859.333 334.333 859 334.5C858.5 334.5 857.5 334.6 857.5 335C857.5 335.4 857.833 335.833 858 336C858.167 336.5 858.4 337.5 858 337.5C857.631 337.5 857.233 337.784 857.043 337.959C857.202 337.795 857.366 337.485 857 337.28C856.6 337.056 855.833 337.667 855.5 338L855 339.5C855.333 339.333 855.9 339.2 855.5 340C855.1 340.8 854.667 341.333 854.5 341.5L853.5 341L853 342L852 342.5V343L853 344V345C853 345.333 853.1 346 853.5 346C853.9 346 854 346.667 854 347H854.5L853.5 347.5L853 349.5V350.5C852.5 350.667 851.5 351.1 851.5 351.5C851.5 351.923 851.589 352.167 851.655 352.345C851.744 352.589 851.789 352.711 851.5 353C851.1 353.4 850.667 354.5 850.5 355H849L849.5 357L848.5 358L847.5 359.5V361C847.5 361.5 846.5 362.5 846 362.5C845.788 362.5 845.665 362.5 845.557 362.538C845.41 362.59 845.288 362.712 845 363C844.75 363.25 844.75 363.375 844.75 363.5C844.75 363.625 844.75 363.75 844.5 364C844.212 364.288 844.09 364.41 843.943 364.462C843.835 364.5 843.712 364.5 843.5 364.5C843.1 364.5 843.333 365.5 843.5 366C843.333 366.5 842.9 367.5 842.5 367.5C842.281 367.5 842.158 367.308 842.046 367.134C841.904 366.911 841.781 366.719 841.5 367L840.5 368L839 370.5C839.167 370.833 839.3 371.5 838.5 371.5C837.7 371.5 837.167 372.167 837 372.5V373.5L836.5 375V376C837 376.333 838 377.1 838 377.5C837.6 378.3 837.833 379.5 838 380C838.167 380.067 838.4 380.432 838 381.351C837.6 382.27 837.833 384.167 838 385C839 384.833 840.9 384.7 840.5 385.5C840.1 386.3 840.333 387.167 840.5 387.5C840.667 387.833 841.1 388.5 841.5 388.5C841.75 388.5 841.875 388.375 842 388.25C842.125 388.125 842.25 388 842.5 388C842.9 388 843 388.667 843 389C842.833 389.167 842.5 389.6 842.5 390C842.5 390.4 843.167 391.5 843.5 392C843.833 391.833 844.7 391.6 845.5 392C846.3 392.4 846.833 393.167 847 393.5H848.5L849.5 394L849.942 395.327C849.45 395.194 849.736 395.368 850 395.5L849.942 395.327C850.071 395.362 850.252 395.417 850.5 395.5C851.469 395.823 851.812 395.729 852.203 395.622C852.417 395.563 852.646 395.5 853 395.5C853.8 395.5 854.667 395.167 855 395C855.333 394.833 856.1 394.6 856.5 395C856.9 395.4 858 395.5 858.5 395.5C858.333 395.833 858.1 396.5 858.5 396.5C858.632 396.5 858.903 396.535 859.23 396.577C860.145 396.694 861.5 396.868 861.5 396.5C861.5 396.1 862.167 395.333 862.5 395L863.5 394.5C863.333 394.333 863.2 394.1 864 394.5C864.8 394.9 866.667 394.667 867.5 394.5H870L869 395H872.5C872.5 395.167 872.6 395.5 873 395.5C873.25 395.5 873.625 395.25 874 395C874.375 394.75 874.75 394.5 875 394.5C875.167 394.5 875.333 394.389 875.5 394.278C875.833 394.056 876.167 393.833 876.5 394.5C876.684 394.868 876.732 395.168 876.77 395.4C876.835 395.8 876.868 396 877.5 396C878 396 878.125 395.75 878.25 395.5C878.375 395.25 878.5 395 879 395C880 395 880.5 395 881.5 395.5C882.5 396 884 396.5 884.5 395.5C884.9 394.7 886 394.833 886.5 395C886.833 395 887.5 394.9 887.5 394.5C887.743 394.015 888.339 393.883 888.888 393.761C889.47 393.632 890 393.515 890 393C890 392 891.5 391.5 891.5 392C891.5 392.174 891.5 392.287 891.542 392.382C891.62 392.56 891.847 392.674 892.5 393C892.793 393.146 893 393.293 893.172 393.414C893.586 393.707 893.793 393.854 894.5 393.5C895.5 393 896 393 897 393C897.467 393 897.607 393 897.725 393.051C897.86 393.109 897.967 393.233 898.5 393.5C898.908 394.317 898.983 394.717 899.031 394.972C899.1 395.342 899.113 395.408 900 396C901.2 396.8 901.833 398.333 902 399C901.833 399.167 901.6 399.6 902 400C902.4 400.4 903.5 403.167 904 404.5C904.5 404.667 905.4 405.3 905 406.5C904.6 407.7 904.833 408.667 905 409L904.5 410L905 412V414.5L905.5 417L906 423L905 424C904.667 423.833 904.1 423.7 904.5 424.5C904.9 425.3 904.333 427.167 904 428L904.5 432C904.333 432.438 904 433.351 904 433.5C904 433.649 903.333 435.562 903 436.5L902.5 439L901.5 442C901.052 442.448 900.282 443.379 900.416 443.855C899.158 443.817 897.898 443.779 896.638 443.742L897.552 441.615L897.59 440.115L897.103 439.603L898.154 437.629L898.204 435.629L898.742 434.143L898.819 431.144L899.382 428.657L899.907 427.67L900.407 427.683L900.92 427.196L900.432 426.683L901.932 426.721L901.945 426.221L901.445 426.209L901.97 425.222L902.495 424.235L902.008 423.722L903.021 423.248L902.546 422.235L903.546 422.261L903.071 421.248L904.084 420.774L904.609 419.787L904.673 417.288L903.724 415.263L903.262 413.751C902.937 413.409 902.188 412.723 901.788 412.713C901.388 412.703 900.63 412.35 900.301 412.175L899.301 412.15C899.15 412.146 898.908 412.094 898.644 412.037C898.036 411.906 897.311 411.75 897.302 412.099C897.292 412.499 896.623 412.582 896.29 412.573L896.264 413.573L895.752 414.06L894.739 414.535L894.727 415.034L893.714 415.509C893.385 415.334 892.725 415.084 892.715 415.483C892.704 415.883 893.027 416.325 893.189 416.496L892.677 416.983L892.164 417.47L891.651 417.957L892.113 419.469L893.087 420.495L893.062 421.494L892.537 422.481L893.011 423.494L892.998 423.993L893.473 425.006L891.935 426.467L890.347 429.928L889.347 429.903L886.386 428.327L884.438 426.277L882.938 426.238L881.451 425.7L880.452 425.675L879.388 428.149L881.362 429.199L882.324 430.724L883.811 431.262L884.285 432.275L882.786 432.237L880.312 431.173L878.325 430.623L872.7 435.481L869.625 438.404L867.613 438.853L866.588 439.827L863.576 440.251L862.038 441.712L862.009 442.876C834.062 442.298 805.516 442 776.5 442C436.569 442 161 482.966 161 533.5C161 584.034 436.569 625 776.5 625C1116.43 625 1392 584.034 1392 533.5C1392 489.763 1185.58 453.193 909.658 444.147C911.445 444.104 913.172 444.049 914.5 444ZM885.543 441.81L886.313 443.452C882.483 443.35 878.642 443.252 874.788 443.16L876.046 441.568L875.585 440.056L878.135 438.12L879.672 436.659L881.659 437.209L883.62 438.76L885.082 440.297L885.543 441.81Z" fill="black"/>
<path d="M914.5 441.5H914.625V441.47L914.612 441.444L914.5 441.5ZM914.5 444L914.505 444.125L914.625 444.12V444H914.5ZM914 440.5L914.112 440.444L914.108 440.437L914.104 440.431L914 440.5ZM913.5 435.5L913.619 435.54L913.625 435.52V435.5H913.5ZM913.5 432L913.379 431.97L913.375 431.985V432H913.5ZM914 430L914.121 430.03L914.125 430.015V430H914ZM914 428.5H914.125V428.462L914.104 428.431L914 428.5ZM913.5 426.5L913.412 426.412L913.412 426.412L913.5 426.5ZM914 418.5H914.125V418.47L914.112 418.444L914 418.5ZM913 416.5L912.877 416.475L912.869 416.518L912.888 416.556L913 416.5ZM913.5 414L913.623 414.025L913.629 413.992L913.619 413.96L913.5 414ZM913 412.5H912.875V412.52L912.881 412.54L913 412.5ZM913 410.5H913.125V410.485L913.121 410.47L913 410.5ZM912.5 408.5L912.377 408.475L912.372 408.503L912.379 408.53L912.5 408.5ZM913 406L912.88 405.964L912.877 405.975L913 406ZM914 402.671L914.12 402.707L914.122 402.699L914 402.671ZM914.5 400.5L914.384 400.454L914.38 400.463L914.378 400.472L914.5 400.5ZM915.5 398L915.412 397.912L915.393 397.93L915.384 397.954L915.5 398ZM917 396.5V396.375H916.948L916.912 396.412L917 396.5ZM918.279 396.5L918.358 396.403L918.323 396.375H918.279V396.5ZM919.5 397.5L919.421 397.597L919.432 397.606L919.444 397.612L919.5 397.5ZM920.5 398L920.444 398.112L920.509 398.144L920.569 398.104L920.5 398ZM922 397L921.944 396.888L921.937 396.892L921.931 396.896L922 397ZM923 396.5L923.122 396.471L923.085 396.318L922.944 396.388L923 396.5ZM923.237 397.5L923.115 397.529L923.127 397.577L923.168 397.605L923.237 397.5ZM924 398L924.088 397.912L924.079 397.902L924.068 397.895L924 398ZM925 399L924.912 399.088L924.966 399.143L925.04 399.119L925 399ZM926.5 398.5L926.588 398.412L926.534 398.357L926.46 398.381L926.5 398.5ZM927 399L926.912 399.088L927 399.177L927.088 399.088L927 399ZM928 398V397.875H927.948L927.912 397.912L928 398ZM929.5 398V398.125H929.577L929.612 398.056L929.5 398ZM930 397L930.056 396.888L929.944 396.832L929.888 396.944L930 397ZM932 398L932.069 397.896L932.063 397.892L932.056 397.888L932 398ZM933.5 399L933.556 399.112L933.749 399.015L933.569 398.896L933.5 399ZM932.5 399.5L932.444 399.388L932.5 399.625V399.5ZM934.5 399.5V399.625H934.52L934.54 399.619L934.5 399.5ZM936.5 399.5L936.412 399.588L936.412 399.588L936.5 399.5ZM938 400L938.056 399.888L938.03 399.875H938V400ZM939 400.5V400.625L939.056 400.388L939 400.5ZM939.5 401L939.444 401.112L939.444 401.112L939.5 401ZM943 400L943.088 399.912L943.034 399.857L942.96 399.881L943 400ZM948 401.5L947.97 401.621L948.407 401.731L948.088 401.412L948 401.5ZM949.5 401.5H949.375V401.625H949.5V401.5ZM951 401.5L951.115 401.451L951.083 401.375H951V401.5ZM954 402.5V402.375H953.993L953.986 402.376L954 402.5ZM955.5 402.5V402.625H955.702L955.612 402.444L955.5 402.5ZM957.5 401.5L957.588 401.412L957.552 401.375H957.5V401.5ZM959 403L959.112 403.056L959.152 402.975L959.088 402.912L959 403ZM961 404.5L960.912 404.588L960.948 404.625H961V404.5ZM962.5 404.5V404.625H962.52L962.54 404.619L962.5 404.5ZM964 404L964.04 404.119L964.099 404.099L964.119 404.04L964 404ZM964.5 402.5L964.619 402.54L964.625 402.52V402.5H964.5ZM964.5 401.5L964.546 401.384L964.375 401.315V401.5H964.5ZM967.5 402L967.412 401.912L967.412 401.912L967.5 402ZM969.5 400.5L969.569 400.604L969.625 400.567V400.5H969.5ZM969.5 399.5V399.375H969.375V399.5H969.5ZM971.164 399L971.268 399.07L971.268 399.07L971.164 399ZM973 397.5L973.069 397.604L973.196 397.519L973.088 397.412L973 397.5ZM974.5 396.5L974.444 396.612L974.537 396.658L974.6 396.575L974.5 396.5ZM976 394.5L976.1 394.575L976.112 394.559L976.119 394.54L976 394.5ZM976.5 393L976.619 393.04L976.63 393.005L976.621 392.97L976.5 393ZM976 391H975.875V391.015L975.879 391.03L976 391ZM977 390L976.944 389.888L976.944 389.888L977 390ZM978.5 388.5L978.612 388.556L978.64 388.5L978.612 388.444L978.5 388.5ZM980.5 386.5L980.612 386.556L980.635 386.51L980.619 386.46L980.5 386.5ZM980 385L980.119 384.96L980.112 384.941L980.1 384.925L980 385ZM981 382L981.112 381.944L981.048 381.817L980.931 381.896L981 382ZM982 382.5L981.912 382.412L981.912 382.412L982 382.5ZM982.5 381H982.625V380.99L982.623 380.979L982.5 381ZM982 378L982.123 377.979L982.12 377.961L982.112 377.944L982 378ZM981 376L980.881 376.04L980.884 376.048L980.888 376.056L981 376ZM980.5 374.5L980.588 374.412L980.381 374.54L980.5 374.5ZM981.5 374.5L981.412 374.412L981.412 374.412L981.5 374.5ZM981.5 372L981.396 371.931L981.365 371.977L981.379 372.03L981.5 372ZM982.5 370.5L982.604 370.569L982.661 370.484L982.588 370.412L982.5 370.5ZM980.5 368.5L980.388 368.444L980.348 368.525L980.412 368.588L980.5 368.5ZM981 367.5L981.112 367.556L981.173 367.434L981.046 367.384L981 367.5ZM978.5 366.5L978.412 366.588L978.43 366.607L978.454 366.616L978.5 366.5ZM976 364.5L976.104 364.431L976.075 364.388L976.025 364.377L976 364.5ZM973.5 364L973.525 363.877L973.512 363.875H973.5V364ZM971.5 364H971.375V364.125H971.5V364ZM971.5 362.5L971.412 362.412L971.375 362.448V362.5H971.5ZM972.5 361.5L972.588 361.412L972.5 361.323L972.412 361.412L972.5 361.5ZM973.5 361.5L973.412 361.412L973.412 361.412L973.5 361.5ZM973.287 360.215L973.397 360.155L973.397 360.155L973.287 360.215ZM973 357.5H973.125V357.448L973.088 357.412L973 357.5ZM972 356.5L972.088 356.412L972.074 356.397L972.056 356.388L972 356.5ZM971 356L971.056 355.888L970.975 355.848L970.912 355.912L971 356ZM970.5 356.5H970.375V356.802L970.588 356.588L970.5 356.5ZM970.5 354H970.625V353.948L970.588 353.912L970.5 354ZM969 352.5H968.875V352.552L968.912 352.588L969 352.5ZM969 350H969.125V349.875H969V350ZM967.5 349.5L967.412 349.588L967.412 349.588L967.5 349.5ZM966.5 347.5L966.444 347.388L966.347 347.437L966.381 347.54L966.5 347.5ZM967.5 347L967.556 347.112L967.602 347.089L967.619 347.04L967.5 347ZM968 345.5L968.119 345.54L968.143 345.466L968.088 345.412L968 345.5ZM967 344.5L967.088 344.412L967.062 344.385L967.025 344.377L967 344.5ZM964.5 344L964.381 344.04L964.404 344.108L964.475 344.123L964.5 344ZM963.5 342L963.412 342.088L963.412 342.088L963.5 342ZM962 341.5L961.888 341.556L961.923 341.625H962V341.5ZM961 339.5H960.875V339.53L960.888 339.556L961 339.5ZM958.5 338.5L958.393 338.564L958.417 338.604L958.46 338.619L958.5 338.5ZM957 336L957.107 335.936L957.083 335.896L957.04 335.881L957 336ZM952.5 334.5L952.412 334.588L952.432 334.609L952.46 334.619L952.5 334.5ZM951.5 333.5L951.588 333.412L951.473 333.296L951.392 333.438L951.5 333.5ZM950.175 334.5L950.052 334.522L950.052 334.522L950.175 334.5ZM949.5 333L949.588 332.912L949.552 332.875H949.5V333ZM948.5 333L948.431 333.104L948.462 333.125H948.5V333ZM947 332L946.925 332.1L946.931 332.104L947 332ZM945 330.5L944.888 330.444L944.842 330.537L944.925 330.6L945 330.5ZM943 329.5V329.375H942.933L942.896 329.431L943 329.5ZM940.5 329.5L940.54 329.381L940.52 329.375H940.5V329.5ZM939.5 329.5V329.375H939.448L939.412 329.412L939.5 329.5ZM939 330L938.922 330.098L939.009 330.167L939.088 330.088L939 330ZM936.5 328L936.578 327.902L936.544 327.875H936.5V328ZM934.5 328L934.425 328.1L934.458 328.125H934.5V328ZM932.5 326.5L932.575 326.4L932.542 326.375H932.5V326.5ZM931 326.5V326.375H930.948L930.912 326.412L931 326.5ZM929.5 327L929.412 327.088L929.412 327.088L929.5 327ZM927.5 326.5V326.375H927.423L927.388 326.444L927.5 326.5ZM926.5 327L926.412 327.088L926.412 327.088L926.5 327ZM925.5 326.5L925.412 326.588L925.448 326.625H925.5V326.5ZM924.5 325.5L924.588 325.412L924.568 325.391L924.54 325.381L924.5 325.5ZM923 325L922.912 325.088L922.932 325.109L922.96 325.119L923 325ZM922 324L922.088 323.912L922.025 323.848L921.944 323.888L922 324ZM921 324.5L920.931 324.604L920.991 324.644L921.056 324.612L921 324.5ZM919.5 323.5L919.388 323.556L919.403 323.586L919.431 323.604L919.5 323.5ZM918.5 322L918.412 322.088L918.412 322.088L918.5 322ZM917.5 320.5L917.612 320.444L917.563 320.347L917.46 320.381L917.5 320.5ZM916 321L915.96 320.881L915.875 320.91V321H916ZM913.971 321.186L914.043 321.084L914.043 321.084L913.971 321.186ZM909 320L909.056 319.888L909.03 319.875H909V320ZM906 320H905.875V320.125H906V320ZM904 319.5L903.912 319.588L903.948 319.625H904V319.5ZM903.5 319L903.588 318.912L903.466 318.789L903.388 318.944L903.5 319ZM903 320L902.96 320.119L903.063 320.153L903.112 320.056L903 320ZM901.5 319.5L901.54 319.381L901.52 319.375H901.5V319.5ZM900 319.5V319.375H899.97L899.944 319.388L900 319.5ZM899 320L898.96 320.119L899.01 320.135L899.056 320.112L899 320ZM897.5 319.5L897.54 319.381L897.295 319.3L897.382 319.542L897.5 319.5ZM896.5 320L896.457 320.117L896.457 320.117L896.5 320ZM892 319.5V319.375H891.923L891.888 319.444L892 319.5ZM891.5 320.5L891.582 320.594L891.601 320.578L891.612 320.556L891.5 320.5ZM890.348 321.5L890.266 321.406L890.259 321.412L890.253 321.419L890.348 321.5ZM888.5 322L888.53 322.121L888.544 322.118L888.556 322.112L888.5 322ZM886.5 322.5V322.625H886.515L886.53 322.621L886.5 322.5ZM884.5 322.5V322.375H884.448L884.412 322.412L884.5 322.5ZM883 324L882.96 324.119L883.125 324.173V324H883ZM881 325L881.056 325.112L881.074 325.103L881.088 325.088L881 325ZM876.246 325L876.292 324.884L876.224 324.857L876.167 324.903L876.246 325ZM875 326L875.046 326.116L875.064 326.109L875.078 326.097L875 326ZM872.5 327L872.454 326.884L872.375 326.915V327H872.5ZM872.5 327.5L872.569 327.604L872.625 327.567V327.5H872.5ZM871 328.5L870.931 328.396L870.804 328.481L870.912 328.588L871 328.5ZM868 329V328.875H867.923L867.888 328.944L868 329ZM867.5 330L867.556 330.112L867.593 330.093L867.612 330.056L867.5 330ZM866.5 330.5L866.381 330.54L866.427 330.676L866.556 330.612L866.5 330.5ZM865.5 329.5L865.412 329.412L865.412 329.412L865.5 329.5ZM864.5 331L864.588 331.088L864.588 331.088L864.5 331ZM863 331.5V331.375H862.923L862.888 331.444L863 331.5ZM862.5 332.5V332.625H862.577L862.612 332.556L862.5 332.5ZM860.91 332.955L861.016 333.021L861.016 333.021L860.91 332.955ZM860.5 333.5L860.588 333.588L860.588 333.588L860.5 333.5ZM859 334.5V334.625H859.03L859.056 334.612L859 334.5ZM858 336L858.119 335.96L858.109 335.932L858.088 335.912L858 336ZM857.043 337.959L856.953 337.872L857.128 338.051L857.043 337.959ZM857 337.28L857.061 337.171L857.061 337.171L857 337.28ZM855.5 338L855.412 337.912L855.391 337.932L855.381 337.96L855.5 338ZM855 339.5L854.881 339.46L854.786 339.747L855.056 339.612L855 339.5ZM854.5 341.5L854.444 341.612L854.525 341.652L854.588 341.588L854.5 341.5ZM853.5 341L853.556 340.888L853.444 340.832L853.388 340.944L853.5 341ZM853 342L853.056 342.112L853.093 342.093L853.112 342.056L853 342ZM852 342.5L851.944 342.388L851.875 342.423V342.5H852ZM852 343H851.875V343.052L851.912 343.088L852 343ZM853 344H853.125V343.948L853.088 343.912L853 344ZM854 347H853.875V347.125H854V347ZM854.5 347L854.556 347.112L854.5 346.875V347ZM853.5 347.5L853.444 347.388L853.393 347.414L853.379 347.47L853.5 347.5ZM853 349.5L852.879 349.47L852.875 349.485V349.5H853ZM853 350.5L853.04 350.619L853.125 350.59V350.5H853ZM851.655 352.345L851.537 352.388L851.537 352.388L851.655 352.345ZM851.5 353L851.412 352.912L851.412 352.912L851.5 353ZM850.5 355V355.125H850.59L850.619 355.04L850.5 355ZM849 355V354.875H848.84L848.879 355.03L849 355ZM849.5 357L849.588 357.088L849.638 357.038L849.621 356.97L849.5 357ZM848.5 358L848.412 357.912L848.403 357.92L848.396 357.931L848.5 358ZM847.5 359.5L847.396 359.431L847.375 359.462V359.5H847.5ZM845.557 362.538L845.515 362.421L845.515 362.421L845.557 362.538ZM845 363L844.912 362.912L844.912 362.912L845 363ZM844.5 364L844.588 364.088L844.588 364.088L844.5 364ZM843.943 364.462L843.985 364.579L843.985 364.579L843.943 364.462ZM843.5 366L843.619 366.04L843.632 366L843.619 365.96L843.5 366ZM842.046 367.134L842.152 367.067L842.152 367.067L842.046 367.134ZM841.5 367L841.588 367.088L841.588 367.088L841.5 367ZM840.5 368L840.412 367.912L840.401 367.922L840.393 367.936L840.5 368ZM839 370.5L838.893 370.436L838.858 370.495L838.888 370.556L839 370.5ZM837 372.5L836.888 372.444L836.875 372.47V372.5H837ZM837 373.5L837.119 373.54L837.125 373.52V373.5H837ZM836.5 375L836.381 374.96L836.375 374.98V375H836.5ZM836.5 376H836.375V376.067L836.431 376.104L836.5 376ZM838 377.5L838.112 377.556L838.125 377.53V377.5H838ZM838 380L837.881 380.04L837.9 380.094L837.953 380.116L838 380ZM838 385L837.877 385.025L837.901 385.143L838.021 385.123L838 385ZM843 389L843.088 389.088L843.125 389.052V389H843ZM843.5 392L843.396 392.069L843.457 392.161L843.556 392.112L843.5 392ZM847 393.5L846.888 393.556L846.923 393.625H847V393.5ZM848.5 393.5L848.556 393.388L848.53 393.375H848.5V393.5ZM849.5 394L849.619 393.96L849.602 393.911L849.556 393.888L849.5 394ZM850 395.5L849.944 395.612L850.214 395.747L850.119 395.46L850 395.5ZM850.5 395.5L850.54 395.381L850.54 395.381L850.5 395.5ZM852.203 395.622L852.17 395.501L852.17 395.501L852.203 395.622ZM858.5 395.5L858.612 395.556L858.702 395.375H858.5V395.5ZM859.23 396.577L859.215 396.701L859.215 396.701L859.23 396.577ZM862.5 395L862.444 394.888L862.426 394.897L862.412 394.912L862.5 395ZM863.5 394.5L863.556 394.612L863.711 394.534L863.588 394.412L863.5 394.5ZM867.5 394.5V394.375H867.488L867.475 394.377L867.5 394.5ZM870 394.5L870.056 394.612L870 394.375V394.5ZM869 395L868.944 394.888L869 395.125V395ZM872.5 395H872.625V394.875H872.5V395ZM875.5 394.278L875.569 394.382L875.569 394.382L875.5 394.278ZM876.5 394.5L876.388 394.556L876.388 394.556L876.5 394.5ZM876.77 395.4L876.894 395.38L876.894 395.38L876.77 395.4ZM884.5 395.5L884.388 395.444L884.388 395.444L884.5 395.5ZM886.5 395L886.46 395.119L886.48 395.125H886.5V395ZM887.5 394.5L887.388 394.444L887.375 394.47V394.5H887.5ZM888.888 393.761L888.861 393.639L888.861 393.639L888.888 393.761ZM891.542 392.382L891.656 392.331L891.656 392.331L891.542 392.382ZM892.5 393L892.444 393.112L892.444 393.112L892.5 393ZM893.172 393.414L893.099 393.516L893.099 393.516L893.172 393.414ZM894.5 393.5L894.444 393.388L894.444 393.388L894.5 393.5ZM897.725 393.051L897.774 392.936L897.774 392.936L897.725 393.051ZM898.5 393.5L898.612 393.444L898.593 393.407L898.556 393.388L898.5 393.5ZM899.031 394.972L899.154 394.949L899.154 394.949L899.031 394.972ZM900 396L899.931 396.104L899.931 396.104L900 396ZM902 399L902.088 399.088L902.138 399.038L902.121 398.97L902 399ZM904 404.5L903.883 404.544L903.904 404.6L903.96 404.619L904 404.5ZM905 409L905.112 409.056L905.14 409L905.112 408.944L905 409ZM904.5 410L904.388 409.944L904.368 409.985L904.379 410.03L904.5 410ZM905 412H905.125V411.985L905.121 411.97L905 412ZM905 414.5H904.875V414.512L904.877 414.525L905 414.5ZM905.5 417L905.625 416.99L905.624 416.982L905.623 416.975L905.5 417ZM906 423L906.088 423.088L906.129 423.047L906.125 422.99L906 423ZM905 424L904.944 424.112L905.025 424.152L905.088 424.088L905 424ZM904 428L903.884 427.954L903.872 427.984L903.876 428.016L904 428ZM904.5 432L904.617 432.044L904.628 432.015L904.624 431.984L904.5 432ZM903 436.5L902.882 436.458L902.879 436.467L902.877 436.475L903 436.5ZM902.5 439L902.619 439.04L902.621 439.032L902.623 439.025L902.5 439ZM901.5 442L901.588 442.088L901.609 442.068L901.619 442.04L901.5 442ZM900.416 443.855L900.412 443.98L900.582 443.985L900.536 443.821L900.416 443.855ZM896.638 443.742L896.523 443.693L896.45 443.862L896.634 443.867L896.638 443.742ZM897.552 441.615L897.667 441.664L897.676 441.642L897.677 441.618L897.552 441.615ZM897.59 440.115L897.715 440.118L897.716 440.067L897.681 440.029L897.59 440.115ZM897.103 439.603L896.993 439.544L896.95 439.624L897.012 439.689L897.103 439.603ZM898.154 437.629L898.264 437.688L898.278 437.661L898.279 437.632L898.154 437.629ZM898.204 435.629L898.087 435.587L898.08 435.606L898.079 435.626L898.204 435.629ZM898.742 434.143L898.86 434.185L898.867 434.166L898.867 434.146L898.742 434.143ZM898.819 431.144L898.697 431.116L898.694 431.128L898.694 431.14L898.819 431.144ZM899.382 428.657L899.272 428.598L899.264 428.613L899.26 428.63L899.382 428.657ZM899.907 427.67L899.91 427.545L899.833 427.543L899.797 427.611L899.907 427.67ZM900.407 427.683L900.404 427.808L900.456 427.809L900.493 427.773L900.407 427.683ZM900.92 427.196L901.006 427.286L901.096 427.2L901.01 427.11L900.92 427.196ZM900.432 426.683L900.436 426.558L900.134 426.551L900.342 426.769L900.432 426.683ZM901.932 426.721L901.929 426.846L902.054 426.849L902.057 426.724L901.932 426.721ZM901.945 426.221L902.07 426.225L902.073 426.1L901.948 426.097L901.945 426.221ZM901.445 426.209L901.335 426.15L901.24 426.329L901.442 426.334L901.445 426.209ZM901.97 425.222L902.08 425.281L902.081 425.281L901.97 425.222ZM902.495 424.235L902.606 424.294L902.648 424.214L902.586 424.149L902.495 424.235ZM902.008 423.722L901.955 423.609L901.798 423.683L901.918 423.808L902.008 423.722ZM903.021 423.248L903.074 423.361L903.187 423.308L903.134 423.195L903.021 423.248ZM902.546 422.235L902.549 422.111L902.347 422.105L902.433 422.289L902.546 422.235ZM903.546 422.261L903.543 422.386L903.745 422.391L903.659 422.208L903.546 422.261ZM903.071 421.248L903.018 421.135L902.905 421.188L902.958 421.302L903.071 421.248ZM904.084 420.774L904.137 420.887L904.175 420.87L904.194 420.833L904.084 420.774ZM904.609 419.787L904.719 419.846L904.733 419.82L904.734 419.79L904.609 419.787ZM904.673 417.288L904.798 417.291L904.798 417.262L904.786 417.235L904.673 417.288ZM903.724 415.263L903.604 415.3L903.607 415.308L903.611 415.316L903.724 415.263ZM903.262 413.751L903.382 413.714L903.373 413.686L903.353 413.665L903.262 413.751ZM901.788 412.713L901.785 412.838L901.785 412.838L901.788 412.713ZM900.301 412.175L900.36 412.065L900.334 412.051L900.304 412.05L900.301 412.175ZM899.301 412.15L899.305 412.025L899.305 412.025L899.301 412.15ZM898.644 412.037L898.671 411.915L898.671 411.915L898.644 412.037ZM897.302 412.099L897.427 412.102L897.427 412.102L897.302 412.099ZM896.29 412.573L896.293 412.448L896.168 412.445L896.165 412.57L896.29 412.573ZM896.264 413.573L896.35 413.664L896.388 413.628L896.389 413.576L896.264 413.573ZM895.752 414.06L895.805 414.173L895.823 414.165L895.838 414.151L895.752 414.06ZM894.739 414.535L894.686 414.421L894.616 414.454L894.614 414.531L894.739 414.535ZM894.727 415.034L894.78 415.148L894.85 415.115L894.852 415.038L894.727 415.034ZM893.714 415.509L893.656 415.619L893.711 415.649L893.767 415.622L893.714 415.509ZM892.715 415.483L892.59 415.48L892.59 415.48L892.715 415.483ZM893.189 416.496L893.275 416.586L893.366 416.5L893.28 416.41L893.189 416.496ZM892.677 416.983L892.763 417.074L892.763 417.074L892.677 416.983ZM892.164 417.47L892.078 417.379L892.078 417.379L892.164 417.47ZM891.651 417.957L891.565 417.867L891.509 417.92L891.532 417.994L891.651 417.957ZM892.113 419.469L891.994 419.506L892.002 419.534L892.023 419.556L892.113 419.469ZM893.087 420.495L893.212 420.498L893.214 420.446L893.178 420.408L893.087 420.495ZM893.062 421.494L893.172 421.553L893.186 421.527L893.187 421.497L893.062 421.494ZM892.537 422.481L892.426 422.422L892.397 422.478L892.424 422.534L892.537 422.481ZM893.011 423.494L893.136 423.497L893.137 423.467L893.124 423.441L893.011 423.494ZM892.998 423.993L892.874 423.99L892.873 424.02L892.885 424.046L892.998 423.993ZM893.473 425.006L893.559 425.096L893.624 425.034L893.586 424.953L893.473 425.006ZM891.935 426.467L891.849 426.377L891.832 426.393L891.822 426.415L891.935 426.467ZM890.347 429.928L890.344 430.053L890.426 430.055L890.46 429.98L890.347 429.928ZM889.347 429.903L889.288 430.013L889.314 430.027L889.344 430.027L889.347 429.903ZM886.386 428.327L886.296 428.413L886.31 428.428L886.327 428.437L886.386 428.327ZM884.438 426.277L884.528 426.19L884.493 426.153L884.441 426.152L884.438 426.277ZM882.938 426.238L882.896 426.356L882.915 426.363L882.935 426.363L882.938 426.238ZM881.451 425.7L881.494 425.583L881.475 425.576L881.455 425.576L881.451 425.7ZM880.452 425.675L880.455 425.55L880.37 425.548L880.337 425.626L880.452 425.675ZM879.388 428.149L879.274 428.099L879.228 428.205L879.33 428.259L879.388 428.149ZM881.362 429.199L881.468 429.133L881.45 429.105L881.421 429.089L881.362 429.199ZM882.324 430.724L882.218 430.791L882.241 430.827L882.281 430.842L882.324 430.724ZM883.811 431.262L883.924 431.209L883.902 431.162L883.853 431.145L883.811 431.262ZM884.285 432.275L884.282 432.4L884.484 432.405L884.398 432.222L884.285 432.275ZM882.786 432.237L882.736 432.351L882.758 432.361L882.782 432.361L882.786 432.237ZM880.312 431.173L880.361 431.058L880.353 431.055L880.345 431.053L880.312 431.173ZM878.325 430.623L878.359 430.502L878.294 430.484L878.244 430.528L878.325 430.623ZM872.7 435.481L872.618 435.387L872.614 435.391L872.7 435.481ZM869.625 438.404L869.652 438.526L869.686 438.518L869.711 438.495L869.625 438.404ZM867.613 438.853L867.585 438.731L867.552 438.739L867.526 438.762L867.613 438.853ZM866.588 439.827L866.605 439.951L866.645 439.946L866.674 439.918L866.588 439.827ZM863.576 440.251L863.558 440.127L863.519 440.133L863.49 440.16L863.576 440.251ZM862.038 441.712L861.952 441.622L861.915 441.657L861.913 441.709L862.038 441.712ZM862.009 442.876L862.006 443.001L862.13 443.003L862.134 442.879L862.009 442.876ZM909.658 444.147L909.655 444.022L909.654 444.272L909.658 444.147ZM886.313 443.452L886.31 443.577L886.512 443.582L886.426 443.399L886.313 443.452ZM885.543 441.81L885.424 441.846L885.426 441.855L885.43 441.863L885.543 441.81ZM874.788 443.16L874.69 443.083L874.534 443.279L874.785 443.285L874.788 443.16ZM876.046 441.568L876.144 441.646L876.185 441.594L876.166 441.532L876.046 441.568ZM875.585 440.056L875.509 439.956L875.44 440.009L875.465 440.093L875.585 440.056ZM878.135 438.12L878.211 438.22L878.221 438.211L878.135 438.12ZM879.672 436.659L879.706 436.538L879.637 436.519L879.586 436.568L879.672 436.659ZM881.659 437.209L881.736 437.111L881.717 437.096L881.692 437.089L881.659 437.209ZM883.62 438.76L883.711 438.674L883.705 438.667L883.698 438.662L883.62 438.76ZM885.082 440.297L885.201 440.261L885.192 440.233L885.172 440.211L885.082 440.297ZM914.375 441.5V444H914.625V441.5H914.375ZM913.888 440.556L914.388 441.556L914.612 441.444L914.112 440.444L913.888 440.556ZM912.875 438C912.875 438.428 913.051 438.948 913.261 439.414C913.473 439.883 913.726 440.314 913.896 440.569L914.104 440.431C913.941 440.186 913.694 439.767 913.489 439.311C913.282 438.852 913.125 438.372 913.125 438H912.875ZM913.381 435.46C913.214 435.962 912.875 437.178 912.875 438H913.125C913.125 437.222 913.452 436.038 913.619 435.54L913.381 435.46ZM913.375 432V435.5H913.625V432H913.375ZM913.879 429.97L913.379 431.97L913.621 432.03L914.121 430.03L913.879 429.97ZM913.875 428.5V430H914.125V428.5H913.875ZM913.412 426.412C913.279 426.544 913.235 426.727 913.238 426.912C913.24 427.098 913.288 427.303 913.357 427.503C913.495 427.904 913.726 428.314 913.896 428.569L914.104 428.431C913.941 428.186 913.722 427.796 913.593 427.422C913.529 427.234 913.489 427.058 913.488 426.909C913.486 426.761 913.521 426.656 913.588 426.588L913.412 426.412ZM913.875 422.5C913.875 423.081 913.85 423.977 913.776 424.776C913.738 425.176 913.689 425.548 913.625 425.844C913.593 425.992 913.558 426.117 913.52 426.216C913.481 426.318 913.443 426.38 913.412 426.412L913.588 426.588C913.657 426.52 913.71 426.418 913.753 426.306C913.797 426.191 913.835 426.052 913.869 425.897C913.936 425.587 913.987 425.203 914.024 424.799C914.1 423.99 914.125 423.086 914.125 422.5H913.875ZM913.875 418.5V422.5H914.125V418.5H913.875ZM912.888 416.556L913.888 418.556L914.112 418.444L913.112 416.444L912.888 416.556ZM913.377 413.975L912.877 416.475L913.123 416.525L913.623 414.025L913.377 413.975ZM912.881 412.54L913.381 414.04L913.619 413.96L913.119 412.46L912.881 412.54ZM912.875 410.5V412.5H913.125V410.5H912.875ZM912.379 408.53L912.879 410.53L913.121 410.47L912.621 408.47L912.379 408.53ZM912.877 405.975L912.377 408.475L912.623 408.525L913.123 406.025L912.877 405.975ZM913.88 402.635L912.88 405.964L913.12 406.036L914.12 402.707L913.88 402.635ZM914.378 400.472L913.878 402.643L914.122 402.699L914.622 400.528L914.378 400.472ZM915.384 397.954L914.384 400.454L914.616 400.546L915.616 398.046L915.384 397.954ZM916.912 396.412L915.412 397.912L915.588 398.088L917.088 396.588L916.912 396.412ZM918.279 396.375H917V396.625H918.279V396.375ZM919.579 397.403L918.358 396.403L918.199 396.597L919.421 397.597L919.579 397.403ZM920.556 397.888L919.556 397.388L919.444 397.612L920.444 398.112L920.556 397.888ZM921.931 396.896L920.431 397.896L920.569 398.104L922.069 397.104L921.931 396.896ZM922.944 396.388L921.944 396.888L922.056 397.112L923.056 396.612L922.944 396.388ZM923.358 397.471L923.122 396.471L922.878 396.529L923.115 397.529L923.358 397.471ZM924.068 397.895L923.305 397.395L923.168 397.605L923.932 398.105L924.068 397.895ZM925.088 398.912L924.088 397.912L923.912 398.088L924.912 399.088L925.088 398.912ZM926.46 398.381L924.96 398.881L925.04 399.119L926.54 398.619L926.46 398.381ZM927.088 398.912L926.588 398.412L926.412 398.588L926.912 399.088L927.088 398.912ZM927.912 397.912L926.912 398.912L927.088 399.088L928.088 398.088L927.912 397.912ZM928.801 397.875H928V398.125H928.801V397.875ZM929.5 397.875H928.801V398.125H929.5V397.875ZM929.888 396.944L929.388 397.944L929.612 398.056L930.112 397.056L929.888 396.944ZM932.056 397.888L930.056 396.888L929.944 397.112L931.944 398.112L932.056 397.888ZM933.569 398.896L932.069 397.896L931.931 398.104L933.431 399.104L933.569 398.896ZM932.556 399.612L933.556 399.112L933.444 398.888L932.444 399.388L932.556 399.612ZM934.5 399.375H932.5V399.625H934.5V399.375ZM936.588 399.412C936.464 399.287 936.293 399.219 936.112 399.185C935.931 399.15 935.728 399.148 935.528 399.163C935.128 399.193 934.718 399.296 934.46 399.381L934.54 399.619C934.782 399.538 935.172 399.44 935.547 399.412C935.734 399.398 935.913 399.402 936.066 399.431C936.219 399.46 936.336 399.513 936.412 399.588L936.588 399.412ZM938 399.875C937.843 399.875 937.579 399.851 937.307 399.779C937.033 399.707 936.766 399.589 936.588 399.412L936.412 399.588C936.634 399.811 936.95 399.943 937.243 400.021C937.538 400.099 937.823 400.125 938 400.125V399.875ZM939.056 400.388L938.056 399.888L937.944 400.112L938.944 400.612L939.056 400.388ZM939.556 400.888C939.358 400.789 939.222 400.711 939.131 400.649C939.036 400.585 939.002 400.548 938.994 400.535C938.991 400.53 939.002 400.544 938.998 400.571C938.993 400.602 938.974 400.619 938.965 400.626C938.955 400.632 938.962 400.625 939 400.625V400.375C938.954 400.375 938.882 400.38 938.826 400.418C938.793 400.44 938.759 400.478 938.75 400.535C938.743 400.587 938.761 400.633 938.781 400.665C938.819 400.727 938.892 400.79 938.991 400.857C939.095 400.927 939.242 401.011 939.444 401.112L939.556 400.888ZM941.375 401C941.375 401.074 941.342 401.129 941.266 401.173C941.183 401.22 941.052 401.25 940.875 401.25C940.524 401.25 940.043 401.132 939.556 400.888L939.444 401.112C939.957 401.368 940.476 401.5 940.875 401.5C941.073 401.5 941.254 401.467 941.39 401.39C941.533 401.308 941.625 401.176 941.625 401H941.375ZM942.96 399.881C942.705 399.966 942.322 400.12 942 400.304C941.84 400.396 941.689 400.499 941.577 400.609C941.468 400.716 941.375 400.849 941.375 401H941.625C941.625 400.951 941.657 400.88 941.752 400.788C941.842 400.699 941.973 400.608 942.125 400.521C942.428 400.347 942.795 400.2 943.04 400.119L942.96 399.881ZM945 400.875C944.632 400.875 944.238 400.72 943.888 400.517C943.54 400.314 943.248 400.071 943.088 399.912L942.912 400.088C943.085 400.262 943.394 400.519 943.762 400.733C944.129 400.946 944.568 401.125 945 401.125V400.875ZM948.03 401.379C947.695 401.295 947.142 401.169 946.573 401.065C946.005 400.96 945.412 400.875 945 400.875V401.125C945.388 401.125 945.961 401.206 946.527 401.31C947.091 401.414 947.639 401.538 947.97 401.621L948.03 401.379ZM948.5 400.875C948.293 400.875 948.136 400.896 948.02 400.937C947.904 400.977 947.815 401.042 947.773 401.137C947.731 401.232 947.749 401.327 947.78 401.401C947.812 401.474 947.862 401.539 947.912 401.588L948.088 401.412C948.054 401.378 948.026 401.338 948.01 401.302C947.995 401.266 947.998 401.247 948.002 401.238C948.006 401.229 948.023 401.2 948.102 401.173C948.181 401.145 948.307 401.125 948.5 401.125V400.875ZM949.625 401.5C949.625 401.226 949.324 400.875 948.5 400.875V401.125C949.277 401.125 949.375 401.44 949.375 401.5H949.625ZM951 401.375H949.5V401.625H951V401.375ZM952 402.546C951.94 402.546 951.865 402.516 951.776 402.445C951.689 402.375 951.599 402.275 951.513 402.158C951.341 401.924 951.196 401.64 951.115 401.451L950.885 401.549C950.971 401.75 951.125 402.052 951.312 402.306C951.405 402.432 951.509 402.552 951.621 402.64C951.73 402.728 951.86 402.796 952 402.796V402.546ZM953.986 402.376C953.483 402.433 952.391 402.546 952 402.546V402.796C952.409 402.796 953.517 402.681 954.014 402.624L953.986 402.376ZM955.5 402.375H954V402.625H955.5V402.375ZM956 401.375C955.784 401.375 955.614 401.42 955.49 401.507C955.362 401.595 955.294 401.718 955.265 401.848C955.211 402.098 955.3 402.379 955.388 402.556L955.612 402.444C955.534 402.287 955.473 402.069 955.51 401.902C955.527 401.823 955.565 401.759 955.632 401.712C955.702 401.663 955.816 401.625 956 401.625V401.375ZM957.5 401.375H956V401.625H957.5V401.375ZM959.088 402.912L957.588 401.412L957.412 401.588L958.912 403.088L959.088 402.912ZM959.5 403.875C959.316 403.875 959.202 403.837 959.132 403.788C959.065 403.741 959.027 403.677 959.01 403.598C958.973 403.431 959.034 403.213 959.112 403.056L958.888 402.944C958.8 403.121 958.711 403.402 958.765 403.652C958.794 403.782 958.862 403.905 958.99 403.993C959.114 404.08 959.284 404.125 959.5 404.125V403.875ZM961.088 404.412C960.898 404.221 960.333 403.875 959.5 403.875V404.125C960.268 404.125 960.769 404.446 960.912 404.588L961.088 404.412ZM962.5 404.375H961V404.625H962.5V404.375ZM963.96 403.881L962.46 404.381L962.54 404.619L964.04 404.119L963.96 403.881ZM964.381 402.46L963.881 403.96L964.119 404.04L964.619 402.54L964.381 402.46ZM964.375 401.5V402.5H964.625V401.5H964.375ZM967.412 401.912C967.35 401.973 967.212 402.015 966.981 402.013C966.759 402.011 966.484 401.969 966.19 401.903C965.603 401.772 964.959 401.549 964.546 401.384L964.454 401.616C964.874 401.784 965.531 402.012 966.135 402.147C966.437 402.214 966.731 402.26 966.979 402.262C967.217 402.265 967.45 402.227 967.588 402.088L967.412 401.912ZM969.431 400.396C969.179 400.563 968.778 400.84 968.389 401.124C968.002 401.407 967.619 401.704 967.412 401.912L967.588 402.088C967.781 401.896 968.148 401.61 968.536 401.326C968.922 401.044 969.321 400.77 969.569 400.604L969.431 400.396ZM969.375 399.5V400.5H969.625V399.5H969.375ZM971.061 398.93C971.01 399.005 970.922 399.074 970.798 399.135C970.676 399.195 970.527 399.242 970.37 399.278C970.054 399.351 969.714 399.375 969.5 399.375V399.625C969.729 399.625 970.087 399.599 970.425 399.522C970.595 399.483 970.763 399.43 970.908 399.359C971.052 399.288 971.184 399.195 971.268 399.07L971.061 398.93ZM972.931 397.396C972.679 397.564 972.284 397.841 971.918 398.126C971.736 398.269 971.559 398.415 971.41 398.552C971.263 398.686 971.136 398.817 971.061 398.93L971.268 399.07C971.327 398.983 971.434 398.868 971.579 398.736C971.721 398.606 971.892 398.464 972.072 398.324C972.432 398.043 972.821 397.769 973.069 397.604L972.931 397.396ZM972.5 395.875C972.389 395.875 972.291 395.892 972.213 395.933C972.13 395.977 972.075 396.045 972.05 396.129C972.027 396.209 972.034 396.293 972.053 396.373C972.073 396.453 972.108 396.537 972.152 396.62C972.323 396.95 972.659 397.336 972.912 397.588L973.088 397.412C972.841 397.164 972.527 396.8 972.373 396.505C972.336 396.432 972.31 396.367 972.296 396.313C972.283 396.257 972.284 396.221 972.29 396.199C972.295 396.182 972.305 396.168 972.33 396.155C972.359 396.139 972.411 396.125 972.5 396.125V395.875ZM974.556 396.388C974.214 396.217 973.327 395.875 972.5 395.875V396.125C973.273 396.125 974.119 396.449 974.444 396.612L974.556 396.388ZM975.9 394.425L974.4 396.425L974.6 396.575L976.1 394.575L975.9 394.425ZM976.381 392.96L975.881 394.46L976.119 394.54L976.619 393.04L976.381 392.96ZM975.879 391.03L976.379 393.03L976.621 392.97L976.121 390.97L975.879 391.03ZM976.944 389.888C976.532 390.094 976.267 390.312 976.104 390.507C975.944 390.699 975.875 390.876 975.875 391H976.125C976.125 390.957 976.156 390.835 976.296 390.668C976.433 390.504 976.668 390.306 977.056 390.112L976.944 389.888ZM978.388 388.444C978.229 388.762 977.712 389.504 976.944 389.888L977.056 390.112C977.888 389.696 978.438 388.904 978.612 388.556L978.388 388.444ZM979 387.375C978.784 387.375 978.614 387.42 978.49 387.507C978.362 387.595 978.294 387.718 978.265 387.848C978.211 388.098 978.3 388.379 978.388 388.556L978.612 388.444C978.534 388.287 978.473 388.069 978.51 387.902C978.527 387.823 978.565 387.759 978.632 387.712C978.702 387.663 978.816 387.625 979 387.625V387.375ZM980.388 386.444C980.312 386.596 980.148 386.832 979.908 387.028C979.67 387.224 979.364 387.375 979 387.375V387.625C979.437 387.625 979.797 387.443 980.067 387.222C980.336 387.001 980.521 386.737 980.612 386.556L980.388 386.444ZM979.881 385.04L980.381 386.54L980.619 386.46L980.119 384.96L979.881 385.04ZM979 382.875C978.958 382.875 978.913 382.884 978.872 382.91C978.829 382.938 978.803 382.977 978.789 383.019C978.764 383.093 978.777 383.178 978.796 383.251C978.837 383.403 978.935 383.603 979.054 383.812C979.295 384.235 979.649 384.74 979.9 385.075L980.1 384.925C979.851 384.594 979.505 384.098 979.271 383.688C979.153 383.481 979.069 383.305 979.038 383.187C979.03 383.158 979.027 383.136 979.026 383.119C979.025 383.102 979.027 383.097 979.026 383.098C979.025 383.102 979.02 383.112 979.008 383.12C978.998 383.127 978.992 383.125 979 383.125V382.875ZM980.931 381.896C980.683 382.061 980.286 382.309 979.903 382.515C979.712 382.618 979.525 382.709 979.364 382.775C979.198 382.842 979.074 382.875 979 382.875V383.125C979.126 383.125 979.29 383.075 979.458 383.006C979.631 382.936 979.826 382.84 980.022 382.735C980.414 382.524 980.817 382.272 981.069 382.104L980.931 381.896ZM981.912 382.412C981.832 382.492 981.761 382.514 981.701 382.513C981.637 382.511 981.565 382.482 981.487 382.425C981.33 382.308 981.191 382.102 981.112 381.944L980.888 382.056C980.976 382.231 981.136 382.475 981.338 382.625C981.44 382.701 981.561 382.76 981.696 382.762C981.835 382.765 981.968 382.708 982.088 382.588L981.912 382.412ZM982.375 381C982.375 381.157 982.351 381.421 982.279 381.693C982.207 381.967 982.089 382.234 981.912 382.412L982.088 382.588C982.311 382.366 982.443 382.05 982.521 381.757C982.599 381.462 982.625 381.177 982.625 381H982.375ZM981.877 378.021L982.377 381.021L982.623 380.979L982.123 377.979L981.877 378.021ZM980.888 376.056L981.888 378.056L982.112 377.944L981.112 375.944L980.888 376.056ZM980.381 374.54L980.881 376.04L981.119 375.96L980.619 374.46L980.381 374.54ZM981.412 374.412C981.24 374.583 981.073 374.612 980.933 374.589C980.785 374.565 980.658 374.481 980.588 374.412L980.412 374.588C980.509 374.686 980.682 374.802 980.892 374.836C981.111 374.871 981.36 374.817 981.588 374.588L981.412 374.412ZM981.379 372.03C981.461 372.358 981.559 372.875 981.588 373.357C981.602 373.599 981.599 373.826 981.569 374.015C981.538 374.207 981.483 374.34 981.412 374.412L981.588 374.588C981.717 374.46 981.783 374.263 981.816 374.054C981.849 373.841 981.852 373.593 981.837 373.343C981.808 372.841 981.706 372.308 981.621 371.97L981.379 372.03ZM982.396 370.431L981.396 371.931L981.604 372.069L982.604 370.569L982.396 370.431ZM980.412 368.588L982.412 370.588L982.588 370.412L980.588 368.412L980.412 368.588ZM980.888 367.444L980.388 368.444L980.612 368.556L981.112 367.556L980.888 367.444ZM978.454 366.616L980.954 367.616L981.046 367.384L978.546 366.384L978.454 366.616ZM977.5 366.125C977.668 366.125 977.854 366.196 978.025 366.296C978.194 366.394 978.335 366.512 978.412 366.588L978.588 366.412C978.498 366.321 978.34 366.189 978.15 366.079C977.963 365.97 977.732 365.875 977.5 365.875V366.125ZM975.896 364.569C976.065 364.823 976.344 365.203 976.632 365.521C976.777 365.68 976.926 365.827 977.068 365.935C977.204 366.039 977.356 366.125 977.5 366.125V365.875C977.444 365.875 977.35 365.836 977.22 365.737C977.095 365.641 976.957 365.507 976.818 365.354C976.54 365.047 976.268 364.677 976.104 364.431L975.896 364.569ZM973.475 364.123L975.975 364.623L976.025 364.377L973.525 363.877L973.475 364.123ZM971.5 364.125H973.5V363.875H971.5V364.125ZM971.375 362.5V364H971.625V362.5H971.375ZM972.412 361.412L971.412 362.412L971.588 362.588L972.588 361.588L972.412 361.412ZM973.412 361.412C973.24 361.583 973.073 361.612 972.933 361.589C972.785 361.565 972.658 361.481 972.588 361.412L972.412 361.588C972.509 361.686 972.682 361.802 972.892 361.836C973.111 361.871 973.36 361.817 973.588 361.588L973.412 361.412ZM973.177 360.274C973.304 360.508 973.427 360.738 973.484 360.945C973.54 361.15 973.523 361.301 973.412 361.412L973.588 361.588C973.791 361.385 973.792 361.123 973.725 360.879C973.659 360.638 973.52 360.382 973.397 360.155L973.177 360.274ZM972.875 359.5C972.875 359.62 972.919 359.75 972.973 359.875C973.029 360.002 973.104 360.139 973.177 360.274L973.397 360.155C973.322 360.017 973.253 359.89 973.202 359.775C973.151 359.657 973.125 359.566 973.125 359.5H972.875ZM972.875 357.5V359.5H973.125V357.5H972.875ZM971.912 356.588L972.912 357.588L973.088 357.412L972.088 356.412L971.912 356.588ZM970.944 356.112L971.944 356.612L972.056 356.388L971.056 355.888L970.944 356.112ZM970.588 356.588L971.088 356.088L970.912 355.912L970.412 356.412L970.588 356.588ZM970.375 354V356.5H970.625V354H970.375ZM969.412 353.088L970.412 354.088L970.588 353.912L969.588 352.912L969.412 353.088ZM968.912 352.588L969.412 353.088L969.588 352.912L969.088 352.412L968.912 352.588ZM968.875 350V352.5H969.125V350H968.875ZM967.412 349.588C967.634 349.811 967.95 349.943 968.243 350.021C968.538 350.099 968.823 350.125 969 350.125V349.875C968.843 349.875 968.579 349.851 968.307 349.779C968.033 349.707 967.766 349.589 967.588 349.412L967.412 349.588ZM966.381 347.54C966.466 347.793 966.618 348.198 966.799 348.59C966.978 348.977 967.194 349.371 967.412 349.588L967.588 349.412C967.406 349.229 967.205 348.873 967.026 348.485C966.849 348.102 966.701 347.707 966.619 347.46L966.381 347.54ZM967.444 346.888L966.444 347.388L966.556 347.612L967.556 347.112L967.444 346.888ZM967.881 345.46L967.381 346.96L967.619 347.04L968.119 345.54L967.881 345.46ZM966.912 344.588L967.912 345.588L968.088 345.412L967.088 344.412L966.912 344.588ZM964.475 344.123L966.975 344.623L967.025 344.377L964.525 343.877L964.475 344.123ZM963.412 342.088C963.594 342.271 963.795 342.627 963.974 343.015C964.151 343.398 964.299 343.793 964.381 344.04L964.619 343.96C964.534 343.707 964.382 343.302 964.201 342.91C964.022 342.523 963.806 342.129 963.588 341.912L963.412 342.088ZM962 341.625C962.157 341.625 962.421 341.649 962.693 341.721C962.967 341.793 963.234 341.911 963.412 342.088L963.588 341.912C963.366 341.689 963.05 341.557 962.757 341.479C962.462 341.401 962.177 341.375 962 341.375V341.625ZM960.888 339.556L961.888 341.556L962.112 341.444L961.112 339.444L960.888 339.556ZM960.5 339.125C960.659 339.125 960.747 339.189 960.799 339.261C960.855 339.339 960.875 339.437 960.875 339.5H961.125C961.125 339.397 961.095 339.244 961.001 339.114C960.903 338.978 960.741 338.875 960.5 338.875V339.125ZM958.46 338.619C958.712 338.703 959.115 338.828 959.505 338.933C959.889 339.036 960.281 339.125 960.5 339.125V338.875C960.319 338.875 959.961 338.797 959.57 338.692C959.185 338.588 958.788 338.464 958.54 338.381L958.46 338.619ZM956.893 336.064L958.393 338.564L958.607 338.436L957.107 335.936L956.893 336.064ZM955.46 335.619L956.96 336.119L957.04 335.881L955.54 335.381L955.46 335.619ZM952.46 334.619L955.46 335.619L955.54 335.381L952.54 334.381L952.46 334.619ZM951.412 333.588L952.412 334.588L952.588 334.412L951.588 333.412L951.412 333.588ZM950.052 334.522C950.071 334.631 950.104 334.725 950.16 334.793C950.22 334.867 950.302 334.904 950.393 334.9C950.475 334.896 950.554 334.861 950.623 334.816C950.694 334.77 950.765 334.708 950.835 334.638C951.113 334.36 951.415 333.898 951.608 333.562L951.392 333.438C951.201 333.769 950.912 334.207 950.658 334.462C950.595 334.525 950.538 334.573 950.487 334.606C950.435 334.639 950.401 334.649 950.382 334.65C950.372 334.651 950.365 334.649 950.354 334.635C950.337 334.615 950.314 334.569 950.298 334.478L950.052 334.522ZM949.412 333.088C949.559 333.236 949.916 333.746 950.052 334.522L950.298 334.478C950.154 333.654 949.774 333.097 949.588 332.912L949.412 333.088ZM948.5 333.125H949.5V332.875H948.5V333.125ZM946.931 332.104L948.431 333.104L948.569 332.896L947.069 331.896L946.931 332.104ZM944.925 330.6L946.925 332.1L947.075 331.9L945.075 330.4L944.925 330.6ZM945 329.625C945.033 329.625 945.049 329.632 945.058 329.637C945.065 329.641 945.072 329.648 945.079 329.662C945.095 329.697 945.102 329.761 945.089 329.858C945.062 330.047 944.969 330.282 944.888 330.444L945.112 330.556C945.198 330.384 945.304 330.12 945.336 329.892C945.352 329.781 945.353 329.657 945.305 329.556C945.28 329.503 945.242 329.455 945.186 329.422C945.131 329.389 945.067 329.375 945 329.375V329.625ZM943 329.625H945V329.375H943V329.625ZM941.875 330.5C941.875 330.532 941.878 330.567 941.889 330.599C941.899 330.632 941.92 330.67 941.96 330.696C942.041 330.751 942.129 330.714 942.168 330.693C942.259 330.645 942.366 330.537 942.469 330.42C942.683 330.176 942.936 329.821 943.104 329.569L942.896 329.431C942.73 329.679 942.484 330.024 942.281 330.255C942.176 330.375 942.096 330.449 942.051 330.472C942.022 330.488 942.055 330.459 942.099 330.489C942.12 330.502 942.126 330.519 942.126 330.522C942.127 330.523 942.125 330.518 942.125 330.5H941.875ZM940.46 329.619C940.705 329.7 941.072 329.847 941.375 330.021C941.527 330.108 941.658 330.199 941.748 330.288C941.843 330.38 941.875 330.451 941.875 330.5H942.125C942.125 330.349 942.032 330.216 941.923 330.109C941.811 329.999 941.66 329.896 941.5 329.804C941.178 329.62 940.795 329.466 940.54 329.381L940.46 329.619ZM939.5 329.625H940.5V329.375H939.5V329.625ZM939.088 330.088L939.588 329.588L939.412 329.412L938.912 329.912L939.088 330.088ZM936.422 328.098L938.922 330.098L939.078 329.902L936.578 327.902L936.422 328.098ZM934.5 328.125H936.5V327.875H934.5V328.125ZM932.425 326.6L934.425 328.1L934.575 327.9L932.575 326.4L932.425 326.6ZM931 326.625H932.5V326.375H931V326.625ZM929.412 327.088C929.672 327.349 930.036 327.275 930.328 327.138C930.629 326.997 930.916 326.761 931.088 326.588L930.912 326.412C930.751 326.572 930.488 326.787 930.222 326.912C929.947 327.041 929.728 327.051 929.588 326.912L929.412 327.088ZM927.5 326.625C927.744 326.625 928.135 326.65 928.514 326.723C928.703 326.759 928.886 326.808 929.043 326.869C929.203 326.932 929.329 327.005 929.412 327.088L929.588 326.912C929.471 326.795 929.31 326.706 929.135 326.637C928.958 326.567 928.76 326.516 928.561 326.477C928.165 326.4 927.756 326.375 927.5 326.375V326.625ZM926.412 327.088C926.532 327.208 926.665 327.265 926.804 327.262C926.939 327.26 927.06 327.201 927.162 327.125C927.364 326.975 927.524 326.731 927.612 326.556L927.388 326.444C927.309 326.602 927.17 326.808 927.013 326.925C926.935 326.982 926.863 327.011 926.799 327.013C926.739 327.014 926.668 326.992 926.588 326.912L926.412 327.088ZM925.5 326.625C925.633 326.625 926.035 326.711 926.412 327.088L926.588 326.912C926.165 326.489 925.701 326.375 925.5 326.375V326.625ZM924.412 325.588L925.412 326.588L925.588 326.412L924.588 325.412L924.412 325.588ZM922.96 325.119L924.46 325.619L924.54 325.381L923.04 324.881L922.96 325.119ZM921.912 324.088L922.912 325.088L923.088 324.912L922.088 323.912L921.912 324.088ZM921.056 324.612L922.056 324.112L921.944 323.888L920.944 324.388L921.056 324.612ZM919.431 323.604L920.931 324.604L921.069 324.396L919.569 323.396L919.431 323.604ZM918.412 322.088C918.796 322.473 919.222 323.224 919.388 323.556L919.612 323.444C919.445 323.11 919.004 322.327 918.588 321.912L918.412 322.088ZM917.388 320.556C917.555 320.89 917.996 321.673 918.412 322.088L918.588 321.912C918.204 321.527 917.778 320.776 917.612 320.444L917.388 320.556ZM916.04 321.119L917.54 320.619L917.46 320.381L915.96 320.881L916.04 321.119ZM915 321.625C915.824 321.625 916.125 321.274 916.125 321H915.875C915.875 321.06 915.777 321.375 915 321.375V321.625ZM913.898 321.288C913.999 321.36 914.121 321.446 914.296 321.513C914.472 321.58 914.694 321.625 915 321.625V321.375C914.72 321.375 914.528 321.334 914.386 321.28C914.243 321.225 914.143 321.155 914.043 321.084L913.898 321.288ZM913.5 321.125C913.664 321.125 913.756 321.188 913.898 321.288L914.043 321.084C913.9 320.984 913.75 320.875 913.5 320.875V321.125ZM913.125 320.75C913.125 320.802 913.121 320.907 913.177 320.991C913.243 321.09 913.358 321.125 913.5 321.125V320.875C913.447 320.875 913.417 320.868 913.401 320.862C913.387 320.857 913.385 320.853 913.385 320.853C913.384 320.851 913.38 320.844 913.378 320.825C913.375 320.806 913.375 320.783 913.375 320.75H913.125ZM913 320.625C913.053 320.625 913.083 320.632 913.099 320.638C913.113 320.643 913.115 320.647 913.115 320.647C913.116 320.649 913.12 320.656 913.122 320.675C913.125 320.694 913.125 320.717 913.125 320.75H913.375C913.375 320.698 913.379 320.593 913.323 320.509C913.257 320.41 913.142 320.375 913 320.375V320.625ZM910.5 320.625H913V320.375H910.5V320.625ZM908.944 320.112C909.114 320.197 909.394 320.324 909.682 320.43C909.965 320.534 910.276 320.625 910.5 320.625V320.375C910.325 320.375 910.052 320.299 909.768 320.195C909.49 320.093 909.219 319.97 909.056 319.888L908.944 320.112ZM906 320.125H909V319.875H906V320.125ZM905.5 319.625C905.659 319.625 905.747 319.689 905.799 319.761C905.855 319.839 905.875 319.937 905.875 320H906.125C906.125 319.897 906.095 319.744 906.001 319.614C905.903 319.478 905.741 319.375 905.5 319.375V319.625ZM904 319.625H905.5V319.375H904V319.625ZM903.412 319.088L903.912 319.588L904.088 319.412L903.588 318.912L903.412 319.088ZM903.112 320.056L903.612 319.056L903.388 318.944L902.888 319.944L903.112 320.056ZM901.46 319.619L902.96 320.119L903.04 319.881L901.54 319.381L901.46 319.619ZM900 319.625H901.5V319.375H900V319.625ZM899.056 320.112L900.056 319.612L899.944 319.388L898.944 319.888L899.056 320.112ZM897.46 319.619L898.96 320.119L899.04 319.881L897.54 319.381L897.46 319.619ZM896.457 320.117C896.736 320.22 896.958 320.265 897.133 320.262C897.31 320.26 897.448 320.209 897.542 320.112C897.635 320.016 897.668 319.893 897.672 319.779C897.676 319.666 897.651 319.552 897.618 319.458L897.382 319.542C897.408 319.615 897.425 319.697 897.422 319.771C897.42 319.845 897.399 319.901 897.363 319.938C897.328 319.974 897.261 320.011 897.13 320.013C896.997 320.014 896.807 319.98 896.543 319.883L896.457 320.117ZM892 319.625C892.52 319.625 893.37 319.65 894.224 319.725C895.082 319.8 895.93 319.924 896.457 320.117L896.543 319.883C895.982 319.676 895.104 319.55 894.246 319.475C893.384 319.4 892.527 319.375 892 319.375V319.625ZM891.612 320.556L892.112 319.556L891.888 319.444L891.388 320.444L891.612 320.556ZM890.43 321.594L891.582 320.594L891.418 320.406L890.266 321.406L890.43 321.594ZM889.375 322C889.375 322.061 889.385 322.127 889.424 322.18C889.469 322.242 889.535 322.265 889.597 322.262C889.653 322.26 889.706 322.24 889.751 322.217C889.798 322.193 889.846 322.161 889.893 322.125C890.081 321.983 890.301 321.75 890.444 321.581L890.253 321.419C890.113 321.584 889.908 321.8 889.743 321.925C889.702 321.956 889.666 321.979 889.637 321.994C889.622 322.002 889.611 322.007 889.602 322.009C889.597 322.011 889.594 322.012 889.591 322.012C889.589 322.013 889.588 322.013 889.588 322.013C889.593 322.012 889.613 322.016 889.626 322.034C889.633 322.043 889.625 322.039 889.625 322H889.375ZM888.556 322.112C888.718 322.031 888.954 321.938 889.142 321.911C889.239 321.898 889.303 321.905 889.338 321.921C889.352 321.928 889.359 321.935 889.363 321.942C889.368 321.951 889.375 321.967 889.375 322H889.625C889.625 321.933 889.611 321.869 889.578 321.814C889.545 321.759 889.497 321.72 889.444 321.695C889.343 321.647 889.219 321.648 889.108 321.664C888.88 321.696 888.616 321.802 888.444 321.888L888.556 322.112ZM886.53 322.621L888.53 322.121L888.47 321.879L886.47 322.379L886.53 322.621ZM884.5 322.625H886.5V322.375H884.5V322.625ZM883.5 323.125C883.732 323.125 883.963 323.03 884.15 322.921C884.34 322.811 884.498 322.679 884.588 322.588L884.412 322.412C884.335 322.488 884.194 322.606 884.025 322.704C883.854 322.804 883.668 322.875 883.5 322.875V323.125ZM883.125 324C883.125 323.842 883.149 323.608 883.218 323.417C883.289 323.218 883.386 323.125 883.5 323.125V322.875C883.214 322.875 883.061 323.115 882.982 323.333C882.901 323.559 882.875 323.825 882.875 324H883.125ZM881.625 324C881.625 323.978 881.631 323.969 881.637 323.962C881.645 323.952 881.664 323.939 881.701 323.927C881.779 323.903 881.899 323.898 882.051 323.912C882.35 323.94 882.715 324.037 882.96 324.119L883.04 323.881C882.785 323.797 882.4 323.693 882.074 323.663C881.913 323.648 881.753 323.649 881.627 323.689C881.563 323.709 881.499 323.741 881.451 323.795C881.401 323.851 881.375 323.922 881.375 324H881.625ZM881.088 325.088C881.179 324.998 881.311 324.84 881.421 324.65C881.53 324.463 881.625 324.232 881.625 324H881.375C881.375 324.168 881.304 324.354 881.204 324.525C881.106 324.694 880.988 324.835 880.912 324.912L881.088 325.088ZM879.5 325.625C879.724 325.625 880.035 325.534 880.318 325.43C880.607 325.324 880.886 325.197 881.056 325.112L880.944 324.888C880.781 324.97 880.51 325.093 880.232 325.195C879.949 325.299 879.676 325.375 879.5 325.375V325.625ZM878 325.625H879.5V325.375H878V325.625ZM876.199 325.116C876.411 325.2 876.753 325.327 877.093 325.432C877.427 325.535 877.778 325.625 878 325.625V325.375C877.822 325.375 877.505 325.298 877.167 325.193C876.834 325.09 876.498 324.966 876.292 324.884L876.199 325.116ZM875.078 326.097L876.324 325.097L876.167 324.903L874.922 325.903L875.078 326.097ZM872.546 327.116L875.046 326.116L874.954 325.884L872.454 326.884L872.546 327.116ZM872.625 327.5V327H872.375V327.5H872.625ZM871.069 328.604L872.569 327.604L872.431 327.396L870.931 328.396L871.069 328.604ZM870 329.125C870.305 329.125 870.537 329.104 870.711 329.068C870.883 329.032 871.011 328.979 871.094 328.907C871.184 328.83 871.221 328.731 871.207 328.631C871.194 328.54 871.141 328.464 871.088 328.412L870.912 328.588C870.942 328.619 870.956 328.648 870.959 328.666C870.96 328.675 870.962 328.691 870.931 328.718C870.894 328.75 870.814 328.791 870.661 328.823C870.509 328.854 870.295 328.875 870 328.875V329.125ZM868 329.125H870V328.875H868V329.125ZM867.612 330.056L868.112 329.056L867.888 328.944L867.388 329.944L867.612 330.056ZM866.556 330.612L867.556 330.112L867.444 329.888L866.444 330.388L866.556 330.612ZM865.588 329.588C865.626 329.551 865.658 329.535 865.681 329.529C865.705 329.523 865.73 329.524 865.759 329.535C865.824 329.558 865.903 329.625 865.988 329.738C866.155 329.96 866.3 330.295 866.381 330.54L866.619 330.46C866.533 330.205 866.378 329.84 866.187 329.587C866.093 329.463 865.978 329.348 865.844 329.3C865.774 329.274 865.698 329.267 865.62 329.286C865.544 329.306 865.474 329.349 865.412 329.412L865.588 329.588ZM865.112 330.306C865.237 330.056 865.354 329.823 865.588 329.588L865.412 329.412C865.146 329.677 865.013 329.944 864.888 330.194L865.112 330.306ZM864.588 331.088C864.854 330.823 864.987 330.556 865.112 330.306L864.888 330.194C864.763 330.444 864.646 330.677 864.412 330.912L864.588 331.088ZM863 331.625C863.177 331.625 863.462 331.599 863.757 331.521C864.05 331.443 864.366 331.311 864.588 331.088L864.412 330.912C864.234 331.089 863.967 331.207 863.693 331.279C863.421 331.351 863.157 331.375 863 331.375V331.625ZM862.612 332.556L863.112 331.556L862.888 331.444L862.388 332.444L862.612 332.556ZM861.5 332.625H862.5V332.375H861.5V332.625ZM861.016 333.021C861.1 332.884 861.161 332.787 861.234 332.721C861.3 332.661 861.376 332.625 861.5 332.625V332.375C861.315 332.375 861.178 332.434 861.066 332.536C860.962 332.631 860.882 332.762 860.804 332.889L861.016 333.021ZM860.588 333.588C860.791 333.386 860.915 333.184 861.016 333.021L860.804 332.889C860.703 333.052 860.591 333.232 860.412 333.412L860.588 333.588ZM859.056 334.612C859.39 334.445 860.173 334.004 860.588 333.588L860.412 333.412C860.027 333.796 859.276 334.222 858.944 334.388L859.056 334.612ZM857.625 335C857.625 334.961 857.648 334.913 857.732 334.858C857.816 334.804 857.941 334.758 858.092 334.722C858.391 334.65 858.756 334.625 859 334.625V334.375C858.744 334.375 858.359 334.4 858.033 334.478C857.872 334.517 857.715 334.571 857.596 334.648C857.477 334.725 857.375 334.839 857.375 335H857.625ZM858.088 335.912C858.012 335.835 857.894 335.694 857.796 335.525C857.696 335.354 857.625 335.168 857.625 335H857.375C857.375 335.232 857.47 335.463 857.579 335.65C857.689 335.84 857.821 335.998 857.912 336.088L858.088 335.912ZM858 337.625C858.078 337.625 858.149 337.599 858.205 337.549C858.259 337.501 858.291 337.437 858.311 337.373C858.351 337.247 858.352 337.087 858.337 336.926C858.307 336.6 858.203 336.215 858.119 335.96L857.881 336.04C857.963 336.285 858.06 336.65 858.088 336.949C858.102 337.101 858.097 337.221 858.073 337.299C858.061 337.336 858.048 337.354 858.038 337.363C858.031 337.369 858.022 337.375 858 337.375V337.625ZM857.128 338.051C857.217 337.969 857.356 337.861 857.515 337.773C857.675 337.685 857.845 337.625 858 337.625V337.375C857.786 337.375 857.572 337.457 857.394 337.554C857.215 337.653 857.06 337.774 856.959 337.867L857.128 338.051ZM856.939 337.389C857.015 337.432 857.055 337.474 857.074 337.51C857.093 337.544 857.099 337.58 857.094 337.619C857.084 337.704 857.024 337.798 856.953 337.872L857.133 338.046C857.22 337.955 857.322 337.813 857.342 337.65C857.353 337.565 857.341 337.475 857.293 337.388C857.245 337.303 857.168 337.23 857.061 337.171L856.939 337.389ZM855.588 338.088C855.75 337.927 856.017 337.698 856.288 337.539C856.424 337.459 856.556 337.4 856.672 337.373C856.789 337.346 856.876 337.354 856.939 337.389L857.061 337.171C856.924 337.094 856.765 337.094 856.615 337.129C856.465 337.164 856.309 337.237 856.162 337.323C855.867 337.496 855.583 337.74 855.412 337.912L855.588 338.088ZM855.119 339.54L855.619 338.04L855.381 337.96L854.881 339.46L855.119 339.54ZM855.612 340.056C855.714 339.851 855.765 339.687 855.762 339.558C855.761 339.491 855.745 339.428 855.708 339.375C855.671 339.322 855.62 339.288 855.566 339.269C855.464 339.234 855.345 339.249 855.245 339.274C855.14 339.3 855.033 339.344 854.944 339.388L855.056 339.612C855.133 339.573 855.223 339.537 855.305 339.517C855.393 339.495 855.453 339.495 855.484 339.506C855.497 339.51 855.501 339.514 855.503 339.517C855.505 339.521 855.512 339.533 855.513 339.564C855.514 339.63 855.486 339.749 855.388 339.944L855.612 340.056ZM854.588 341.588C854.766 341.411 855.207 340.866 855.612 340.056L855.388 339.944C854.993 340.734 854.568 341.256 854.412 341.412L854.588 341.588ZM853.444 341.112L854.444 341.612L854.556 341.388L853.556 340.888L853.444 341.112ZM853.112 342.056L853.612 341.056L853.388 340.944L852.888 341.944L853.112 342.056ZM852.056 342.612L853.056 342.112L852.944 341.888L851.944 342.388L852.056 342.612ZM852.125 343V342.5H851.875V343H852.125ZM853.088 343.912L852.088 342.912L851.912 343.088L852.912 344.088L853.088 343.912ZM853.125 345V344H852.875V345H853.125ZM853.5 345.875C853.386 345.875 853.289 345.782 853.218 345.583C853.149 345.392 853.125 345.158 853.125 345H852.875C852.875 345.175 852.901 345.441 852.982 345.667C853.061 345.885 853.214 346.125 853.5 346.125V345.875ZM854.125 347C854.125 346.825 854.099 346.559 854.018 346.333C853.939 346.115 853.786 345.875 853.5 345.875V346.125C853.614 346.125 853.711 346.218 853.782 346.417C853.851 346.608 853.875 346.842 853.875 347H854.125ZM854.5 346.875H854V347.125H854.5V346.875ZM853.556 347.612L854.556 347.112L854.444 346.888L853.444 347.388L853.556 347.612ZM853.121 349.53L853.621 347.53L853.379 347.47L852.879 349.47L853.121 349.53ZM853.125 350.5V349.5H852.875V350.5H853.125ZM851.625 351.5C851.625 351.451 851.657 351.38 851.752 351.288C851.842 351.199 851.973 351.108 852.125 351.021C852.428 350.847 852.795 350.7 853.04 350.619L852.96 350.381C852.705 350.466 852.322 350.62 852 350.804C851.84 350.896 851.689 350.999 851.577 351.109C851.468 351.216 851.375 351.349 851.375 351.5H851.625ZM851.772 352.302C851.709 352.129 851.625 351.901 851.625 351.5H851.375C851.375 351.944 851.47 352.204 851.537 352.388L851.772 352.302ZM851.588 353.088C851.738 352.939 851.823 352.812 851.843 352.673C851.862 352.539 851.814 352.416 851.772 352.302L851.537 352.388C851.585 352.518 851.604 352.578 851.595 352.638C851.587 352.694 851.551 352.773 851.412 352.912L851.588 353.088ZM850.619 355.04C850.701 354.793 850.849 354.398 851.026 354.015C851.205 353.627 851.406 353.271 851.588 353.088L851.412 352.912C851.194 353.129 850.978 353.523 850.799 353.91C850.618 354.302 850.466 354.707 850.381 354.96L850.619 355.04ZM849 355.125H850.5V354.875H849V355.125ZM849.621 356.97L849.121 354.97L848.879 355.03L849.379 357.03L849.621 356.97ZM848.588 358.088L849.588 357.088L849.412 356.912L848.412 357.912L848.588 358.088ZM847.604 359.569L848.604 358.069L848.396 357.931L847.396 359.431L847.604 359.569ZM847.625 361V359.5H847.375V361H847.625ZM846 362.625C846.161 362.625 846.341 362.547 846.511 362.442C846.685 362.335 846.864 362.187 847.026 362.026C847.187 361.864 847.335 361.685 847.442 361.511C847.547 361.341 847.625 361.161 847.625 361H847.375C847.375 361.089 847.328 361.221 847.23 361.38C847.134 361.534 847 361.698 846.849 361.849C846.698 362 846.534 362.134 846.38 362.23C846.221 362.328 846.089 362.375 846 362.375V362.625ZM845.598 362.656C845.682 362.627 845.779 362.625 846 362.625V362.375C845.796 362.375 845.648 362.373 845.515 362.421L845.598 362.656ZM845.088 363.088C845.234 362.943 845.332 362.845 845.413 362.776C845.491 362.708 845.545 362.675 845.598 362.656L845.515 362.421C845.421 362.454 845.34 362.508 845.25 362.586C845.16 362.663 845.054 362.769 844.912 362.912L845.088 363.088ZM844.875 363.5C844.875 363.439 844.876 363.397 844.897 363.343C844.92 363.287 844.97 363.207 845.088 363.088L844.912 362.912C844.78 363.043 844.705 363.151 844.665 363.25C844.624 363.353 844.625 363.436 844.625 363.5H844.875ZM844.588 364.088C844.72 363.957 844.795 363.849 844.835 363.75C844.876 363.647 844.875 363.564 844.875 363.5H844.625C844.625 363.561 844.624 363.603 844.603 363.657C844.58 363.713 844.53 363.793 844.412 363.912L844.588 364.088ZM843.985 364.579C844.079 364.546 844.16 364.492 844.25 364.414C844.34 364.337 844.446 364.231 844.588 364.088L844.412 363.912C844.266 364.057 844.168 364.155 844.087 364.224C844.009 364.292 843.955 364.325 843.902 364.344L843.985 364.579ZM843.5 364.625C843.704 364.625 843.852 364.627 843.985 364.579L843.902 364.344C843.818 364.373 843.721 364.375 843.5 364.375V364.625ZM843.619 365.96C843.537 365.715 843.44 365.35 843.412 365.051C843.398 364.899 843.403 364.779 843.427 364.701C843.439 364.664 843.452 364.646 843.462 364.637C843.469 364.631 843.478 364.625 843.5 364.625V364.375C843.422 364.375 843.351 364.401 843.295 364.451C843.241 364.499 843.209 364.563 843.189 364.627C843.149 364.753 843.148 364.913 843.163 365.074C843.193 365.4 843.297 365.785 843.381 366.04L843.619 365.96ZM842.5 367.625C842.651 367.625 842.784 367.532 842.891 367.423C843.001 367.311 843.104 367.16 843.196 367C843.38 366.678 843.534 366.295 843.619 366.04L843.381 365.96C843.3 366.205 843.153 366.572 842.979 366.875C842.892 367.027 842.801 367.158 842.712 367.248C842.62 367.343 842.549 367.375 842.5 367.375V367.625ZM841.941 367.201C841.995 367.286 842.061 367.39 842.146 367.472C842.234 367.557 842.349 367.625 842.5 367.625V367.375C842.432 367.375 842.376 367.347 842.32 367.292C842.26 367.235 842.209 367.156 842.152 367.067L841.941 367.201ZM841.588 367.088C841.652 367.025 841.696 366.999 841.724 366.99C841.746 366.982 841.758 366.985 841.77 366.991C841.788 366.999 841.811 367.019 841.843 367.058C841.874 367.097 841.905 367.144 841.941 367.201L842.152 367.067C842.117 367.012 842.079 366.953 842.038 366.902C841.997 366.851 841.946 366.798 841.88 366.766C841.808 366.731 841.728 366.724 841.644 366.753C841.565 366.779 841.489 366.835 841.412 366.912L841.588 367.088ZM840.588 368.088L841.588 367.088L841.412 366.912L840.412 367.912L840.588 368.088ZM839.107 370.564L840.607 368.064L840.393 367.936L838.893 370.436L839.107 370.564ZM838.5 371.625C838.716 371.625 838.886 371.58 839.01 371.493C839.138 371.405 839.206 371.282 839.235 371.152C839.289 370.902 839.2 370.621 839.112 370.444L838.888 370.556C838.967 370.713 839.027 370.931 838.99 371.098C838.973 371.177 838.935 371.241 838.868 371.288C838.798 371.337 838.684 371.375 838.5 371.375V371.625ZM837.112 372.556C837.188 372.404 837.352 372.168 837.592 371.972C837.83 371.776 838.136 371.625 838.5 371.625V371.375C838.064 371.375 837.703 371.557 837.433 371.778C837.164 371.999 836.979 372.263 836.888 372.444L837.112 372.556ZM837.125 373.5V372.5H836.875V373.5H837.125ZM836.619 375.04L837.119 373.54L836.881 373.46L836.381 374.96L836.619 375.04ZM836.625 376V375H836.375V376H836.625ZM838.125 377.5C838.125 377.356 838.039 377.204 837.935 377.068C837.827 376.926 837.68 376.776 837.521 376.632C837.203 376.344 836.823 376.065 836.569 375.896L836.431 376.104C836.677 376.268 837.047 376.54 837.354 376.818C837.507 376.957 837.641 377.095 837.736 377.219C837.836 377.35 837.875 377.444 837.875 377.5H838.125ZM838.119 379.96C838.038 379.72 837.941 379.306 837.912 378.855C837.884 378.402 837.926 377.927 838.112 377.556L837.888 377.444C837.674 377.873 837.633 378.398 837.663 378.87C837.693 379.344 837.795 379.78 837.881 380.04L838.119 379.96ZM838.115 381.401C838.32 380.93 838.37 380.585 838.336 380.339C838.303 380.094 838.183 379.939 838.047 379.884L837.953 380.116C837.983 380.128 838.064 380.189 838.089 380.373C838.114 380.556 838.08 380.853 837.885 381.301L838.115 381.401ZM838.123 384.975C838.04 384.564 837.941 383.888 837.912 383.202C837.883 382.511 837.927 381.832 838.115 381.401L837.885 381.301C837.673 381.789 837.633 382.518 837.663 383.213C837.692 383.914 837.793 384.602 837.877 385.025L838.123 384.975ZM840.612 385.556C840.67 385.44 840.694 385.325 840.671 385.216C840.647 385.105 840.578 385.021 840.491 384.959C840.324 384.841 840.063 384.786 839.785 384.763C839.22 384.716 838.483 384.793 837.979 384.877L838.021 385.123C838.517 385.041 839.23 384.968 839.765 385.012C840.037 385.035 840.238 385.086 840.347 385.163C840.397 385.198 840.419 385.234 840.426 385.268C840.434 385.304 840.43 385.36 840.388 385.444L840.612 385.556ZM840.612 387.444C840.455 387.131 840.236 386.308 840.612 385.556L840.388 385.444C839.964 386.292 840.211 387.202 840.388 387.556L840.612 387.444ZM841.5 388.375C841.434 388.375 841.357 388.347 841.269 388.287C841.181 388.228 841.093 388.143 841.007 388.043C840.836 387.845 840.692 387.604 840.612 387.444L840.388 387.556C840.475 387.729 840.63 387.989 840.818 388.207C840.911 388.316 841.016 388.418 841.128 388.494C841.239 388.569 841.366 388.625 841.5 388.625V388.375ZM841.912 388.162C841.788 388.285 841.695 388.375 841.5 388.375V388.625C841.805 388.625 841.962 388.465 842.088 388.338L841.912 388.162ZM842.5 387.875C842.195 387.875 842.038 388.035 841.912 388.162L842.088 388.338C842.212 388.215 842.305 388.125 842.5 388.125V387.875ZM843.125 389C843.125 388.825 843.099 388.559 843.018 388.333C842.939 388.115 842.786 387.875 842.5 387.875V388.125C842.614 388.125 842.711 388.218 842.782 388.417C842.851 388.608 842.875 388.842 842.875 389H843.125ZM842.625 390C842.625 389.832 842.696 389.646 842.796 389.475C842.894 389.306 843.012 389.165 843.088 389.088L842.912 388.912C842.821 389.002 842.689 389.16 842.579 389.35C842.47 389.537 842.375 389.768 842.375 390H842.625ZM843.604 391.931C843.439 391.683 843.191 391.286 842.985 390.903C842.882 390.712 842.791 390.525 842.725 390.364C842.658 390.198 842.625 390.074 842.625 390H842.375C842.375 390.126 842.425 390.289 842.494 390.458C842.564 390.631 842.66 390.826 842.765 391.022C842.976 391.414 843.228 391.817 843.396 392.069L843.604 391.931ZM845.556 391.888C844.708 391.464 843.798 391.711 843.444 391.888L843.556 392.112C843.869 391.955 844.692 391.736 845.444 392.112L845.556 391.888ZM847.112 393.444C846.938 393.096 846.388 392.304 845.556 391.888L845.444 392.112C846.212 392.496 846.729 393.238 846.888 393.556L847.112 393.444ZM848.5 393.375H847V393.625H848.5V393.375ZM849.556 393.888L848.556 393.388L848.444 393.612L849.444 394.112L849.556 393.888ZM850.061 395.287L849.619 393.96L849.381 394.04L849.824 395.366L850.061 395.287ZM850.056 395.388C849.991 395.356 849.926 395.322 849.873 395.29C849.847 395.275 849.824 395.261 849.806 395.249C849.787 395.236 849.779 395.228 849.776 395.226C849.775 395.225 849.781 395.23 849.787 395.242C849.793 395.253 849.81 395.292 849.789 395.339C849.769 395.385 849.729 395.398 849.72 395.401C849.708 395.405 849.701 395.404 849.705 395.404C849.713 395.404 849.732 395.406 849.768 395.413C849.803 395.42 849.85 395.431 849.91 395.448L849.975 395.206C849.854 395.173 849.764 395.155 849.708 395.154C849.693 395.154 849.671 395.155 849.649 395.161C849.629 395.167 849.583 395.186 849.56 395.238C849.537 395.291 849.555 395.337 849.565 395.356C849.575 395.377 849.589 395.392 849.599 395.402C849.633 395.437 849.692 395.474 849.747 395.506C849.807 395.541 849.877 395.578 849.944 395.612L850.056 395.388ZM849.824 395.366L849.881 395.54L850.119 395.46L850.061 395.287L849.824 395.366ZM850.54 395.381C850.29 395.298 850.107 395.242 849.975 395.206L849.91 395.448C850.035 395.481 850.213 395.536 850.46 395.619L850.54 395.381ZM852.17 395.501C851.975 395.554 851.806 395.6 851.57 395.597C851.331 395.594 851.017 395.541 850.54 395.381L850.46 395.619C850.952 395.782 851.293 395.843 851.566 395.847C851.841 395.851 852.04 395.796 852.236 395.742L852.17 395.501ZM853 395.375C852.628 395.375 852.386 395.442 852.17 395.501L852.236 395.742C852.448 395.684 852.663 395.625 853 395.625V395.375ZM854.944 394.888C854.619 395.051 853.773 395.375 853 395.375V395.625C853.827 395.625 854.714 395.283 855.056 395.112L854.944 394.888ZM856.588 394.912C856.349 394.673 856.011 394.632 855.712 394.663C855.411 394.694 855.121 394.8 854.944 394.888L855.056 395.112C855.212 395.034 855.473 394.939 855.738 394.912C856.006 394.884 856.251 394.927 856.412 395.088L856.588 394.912ZM858.5 395.375C858.256 395.375 857.865 395.35 857.486 395.277C857.297 395.241 857.115 395.192 856.957 395.131C856.797 395.068 856.671 394.995 856.588 394.912L856.412 395.088C856.529 395.205 856.69 395.294 856.865 395.363C857.042 395.433 857.24 395.484 857.439 395.523C857.835 395.6 858.244 395.625 858.5 395.625V395.375ZM858.5 396.375C858.467 396.375 858.451 396.368 858.442 396.363C858.435 396.359 858.428 396.352 858.421 396.338C858.405 396.303 858.398 396.239 858.411 396.142C858.438 395.954 858.531 395.718 858.612 395.556L858.388 395.444C858.302 395.616 858.196 395.88 858.164 396.108C858.148 396.219 858.147 396.343 858.195 396.444C858.22 396.497 858.258 396.545 858.314 396.578C858.369 396.611 858.433 396.625 858.5 396.625V396.375ZM859.246 396.453C858.924 396.411 858.642 396.375 858.5 396.375V396.625C858.622 396.625 858.882 396.658 859.215 396.701L859.246 396.453ZM861.375 396.5C861.375 396.501 861.377 396.504 861.363 396.515C861.345 396.53 861.308 396.547 861.245 396.562C861.12 396.592 860.936 396.602 860.711 396.596C860.266 396.584 859.705 396.512 859.246 396.453L859.215 396.701C859.67 396.759 860.244 396.833 860.705 396.845C860.934 396.852 861.145 396.843 861.303 396.805C861.381 396.787 861.458 396.758 861.517 396.712C861.58 396.663 861.625 396.591 861.625 396.5H861.375ZM862.412 394.912C862.242 395.082 861.987 395.361 861.774 395.651C861.668 395.796 861.57 395.945 861.498 396.087C861.428 396.226 861.375 396.37 861.375 396.5H861.625C861.625 396.43 861.656 396.328 861.721 396.2C861.784 396.075 861.874 395.938 861.976 395.799C862.179 395.522 862.425 395.252 862.588 395.088L862.412 394.912ZM863.444 394.388L862.444 394.888L862.556 395.112L863.556 394.612L863.444 394.388ZM864.056 394.388C863.854 394.287 863.706 394.224 863.6 394.189C863.547 394.172 863.5 394.16 863.459 394.156C863.423 394.152 863.369 394.151 863.32 394.182C863.293 394.199 863.271 394.225 863.259 394.257C863.248 394.287 863.247 394.316 863.25 394.337C863.255 394.378 863.273 394.413 863.288 394.438C863.319 394.49 863.367 394.544 863.412 394.588L863.588 394.412C863.549 394.373 863.518 394.335 863.502 394.309C863.494 394.295 863.497 394.295 863.498 394.305C863.499 394.312 863.5 394.328 863.493 394.346C863.485 394.367 863.471 394.383 863.455 394.393C863.429 394.409 863.412 394.402 863.433 394.405C863.449 394.406 863.478 394.412 863.522 394.427C863.611 394.456 863.746 394.513 863.944 394.612L864.056 394.388ZM867.475 394.377C867.064 394.46 866.395 394.559 865.732 394.588C865.4 394.602 865.073 394.599 864.78 394.568C864.486 394.537 864.237 394.479 864.056 394.388L863.944 394.612C864.163 394.721 864.447 394.784 864.754 394.816C865.063 394.849 865.404 394.852 865.743 394.837C866.421 394.808 867.103 394.707 867.525 394.623L867.475 394.377ZM870 394.375H867.5V394.625H870V394.375ZM869.056 395.112L870.056 394.612L869.944 394.388L868.944 394.888L869.056 395.112ZM872.5 394.875H869V395.125H872.5V394.875ZM873 395.375C872.841 395.375 872.753 395.311 872.701 395.239C872.645 395.161 872.625 395.063 872.625 395H872.375C872.375 395.103 872.405 395.256 872.499 395.386C872.597 395.522 872.759 395.625 873 395.625V395.375ZM873.931 394.896C873.742 395.022 873.559 395.143 873.393 395.234C873.223 395.327 873.091 395.375 873 395.375V395.625C873.159 395.625 873.34 395.548 873.513 395.453C873.691 395.357 873.883 395.228 874.069 395.104L873.931 394.896ZM875 394.375C874.841 394.375 874.66 394.452 874.487 394.547C874.309 394.643 874.117 394.772 873.931 394.896L874.069 395.104C874.258 394.978 874.441 394.857 874.607 394.766C874.777 394.673 874.909 394.625 875 394.625V394.375ZM875.431 394.174C875.346 394.23 875.269 394.281 875.194 394.319C875.119 394.356 875.056 394.375 875 394.375V394.625C875.111 394.625 875.214 394.588 875.306 394.542C875.398 394.497 875.487 394.436 875.569 394.382L875.431 394.174ZM876.612 394.444C876.438 394.096 876.238 393.931 876 393.931C875.889 393.931 875.786 393.967 875.694 394.013C875.603 394.059 875.513 394.119 875.431 394.174L875.569 394.382C875.654 394.325 875.731 394.274 875.806 394.237C875.881 394.199 875.944 394.181 876 394.181C876.095 394.181 876.229 394.237 876.388 394.556L876.612 394.444ZM876.894 395.38C876.856 395.145 876.805 394.83 876.612 394.444L876.388 394.556C876.563 394.906 876.609 395.19 876.647 395.42L876.894 395.38ZM877.5 395.875C877.188 395.875 877.07 395.824 877.013 395.764C876.984 395.733 876.961 395.691 876.943 395.627C876.923 395.561 876.91 395.482 876.894 395.38L876.647 395.42C876.663 395.518 876.678 395.614 876.703 395.698C876.728 395.784 876.766 395.867 876.832 395.936C876.965 396.076 877.18 396.125 877.5 396.125V395.875ZM878.138 395.444C878.074 395.573 878.021 395.674 877.934 395.749C877.853 395.819 877.728 395.875 877.5 395.875V396.125C877.772 396.125 877.96 396.056 878.097 395.939C878.229 395.826 878.301 395.677 878.362 395.556L878.138 395.444ZM879 394.875C878.728 394.875 878.54 394.944 878.403 395.061C878.271 395.174 878.199 395.323 878.138 395.444L878.362 395.556C878.426 395.427 878.479 395.326 878.566 395.251C878.647 395.181 878.772 395.125 879 395.125V394.875ZM881.556 395.388C881.048 395.134 880.661 395.004 880.271 394.939C879.883 394.875 879.498 394.875 879 394.875V395.125C879.502 395.125 879.867 395.125 880.229 395.186C880.589 395.246 880.952 395.366 881.444 395.612L881.556 395.388ZM884.388 395.444C884.173 395.875 883.742 395.998 883.201 395.938C882.661 395.878 882.051 395.636 881.556 395.388L881.444 395.612C881.949 395.864 882.589 396.122 883.174 396.187C883.758 396.252 884.327 396.125 884.612 395.556L884.388 395.444ZM886.54 394.881C886.277 394.794 885.858 394.715 885.448 394.763C885.036 394.812 884.614 394.993 884.388 395.444L884.612 395.556C884.786 395.207 885.114 395.055 885.477 395.012C885.842 394.968 886.223 395.039 886.46 395.119L886.54 394.881ZM887.375 394.5C887.375 394.614 887.282 394.711 887.083 394.782C886.892 394.851 886.658 394.875 886.5 394.875V395.125C886.675 395.125 886.941 395.099 887.167 395.018C887.385 394.939 887.625 394.786 887.625 394.5H887.375ZM888.861 393.639C888.589 393.699 888.29 393.765 888.029 393.88C887.765 393.995 887.527 394.166 887.388 394.444L887.612 394.556C887.716 394.349 887.897 394.211 888.129 394.109C888.364 394.006 888.638 393.944 888.915 393.883L888.861 393.639ZM889.875 393C889.875 393.106 889.848 393.184 889.805 393.247C889.761 393.311 889.694 393.366 889.603 393.415C889.417 393.515 889.158 393.573 888.861 393.639L888.915 393.883C889.2 393.82 889.498 393.755 889.721 393.635C889.836 393.574 889.938 393.495 890.011 393.389C890.085 393.281 890.125 393.152 890.125 393H889.875ZM891.625 392C891.625 391.902 891.586 391.818 891.513 391.76C891.444 391.706 891.357 391.685 891.273 391.68C891.103 391.67 890.893 391.726 890.694 391.826C890.298 392.024 889.875 392.433 889.875 393H890.125C890.125 392.567 890.452 392.226 890.806 392.049C890.982 391.961 891.147 391.923 891.259 391.929C891.315 391.933 891.345 391.946 891.358 391.957C891.367 391.963 891.375 391.973 891.375 392H891.625ZM891.656 392.331C891.627 392.266 891.625 392.183 891.625 392H891.375C891.375 392.164 891.373 392.308 891.427 392.432L891.656 392.331ZM892.556 392.888C892.227 392.724 892.013 392.617 891.871 392.529C891.729 392.442 891.68 392.385 891.656 392.331L891.427 392.432C891.482 392.557 891.585 392.646 891.74 392.742C891.894 392.837 892.12 392.95 892.444 393.112L892.556 392.888ZM893.244 393.312C893.072 393.19 892.858 393.039 892.556 392.888L892.444 393.112C892.728 393.254 892.928 393.395 893.099 393.516L893.244 393.312ZM894.444 393.388C894.098 393.561 893.898 393.599 893.745 393.576C893.588 393.552 893.457 393.463 893.244 393.312L893.099 393.516C893.3 393.658 893.481 393.789 893.707 393.823C893.938 393.858 894.195 393.792 894.556 393.612L894.444 393.388ZM897 392.875C896.502 392.875 896.117 392.875 895.729 392.939C895.339 393.004 894.952 393.134 894.444 393.388L894.556 393.612C895.048 393.366 895.411 393.246 895.771 393.186C896.133 393.125 896.498 393.125 897 393.125V392.875ZM897.774 392.936C897.696 392.902 897.615 392.888 897.5 392.882C897.388 392.875 897.231 392.875 897 392.875V393.125C897.235 393.125 897.382 393.125 897.486 393.131C897.587 393.137 897.635 393.148 897.676 393.166L897.774 392.936ZM898.556 393.388C898.294 393.257 898.138 393.162 898.031 393.092C897.931 393.027 897.855 392.971 897.774 392.936L897.676 393.166C897.73 393.189 897.774 393.223 897.895 393.302C898.009 393.376 898.173 393.476 898.444 393.612L898.556 393.388ZM899.154 394.949C899.104 394.684 899.026 394.273 898.612 393.444L898.388 393.556C898.791 394.361 898.862 394.749 898.908 394.995L899.154 394.949ZM900.069 395.896C899.622 395.598 899.412 395.442 899.302 395.319C899.204 395.211 899.188 395.133 899.154 394.949L898.908 394.995C898.943 395.181 898.968 395.321 899.116 395.486C899.251 395.637 899.491 395.811 899.931 396.104L900.069 395.896ZM902.121 398.97C902.035 398.625 901.831 398.064 901.496 397.487C901.161 396.911 900.691 396.31 900.069 395.896L899.931 396.104C900.509 396.49 900.956 397.056 901.279 397.613C901.603 398.169 901.798 398.708 901.879 399.03L902.121 398.97ZM902.088 399.912C901.917 399.74 901.888 399.573 901.911 399.433C901.935 399.285 902.019 399.158 902.088 399.088L901.912 398.912C901.814 399.009 901.698 399.182 901.664 399.392C901.629 399.611 901.683 399.86 901.912 400.088L902.088 399.912ZM904.117 404.456C903.867 403.788 903.466 402.761 903.077 401.851C902.883 401.396 902.692 400.968 902.523 400.629C902.439 400.459 902.359 400.31 902.288 400.19C902.218 400.072 902.15 399.973 902.088 399.912L901.912 400.088C901.95 400.127 902.004 400.202 902.073 400.317C902.14 400.43 902.216 400.573 902.299 400.74C902.465 401.073 902.654 401.496 902.848 401.949C903.234 402.855 903.633 403.878 903.883 404.544L904.117 404.456ZM905.119 406.54C905.331 405.901 905.2 405.401 904.939 405.039C904.683 404.684 904.309 404.471 904.04 404.381L903.96 404.619C904.191 404.696 904.517 404.882 904.736 405.186C904.95 405.483 905.069 405.899 904.881 406.46L905.119 406.54ZM905.112 408.944C904.96 408.641 904.729 407.709 905.119 406.54L904.881 406.46C904.471 407.691 904.706 408.692 904.888 409.056L905.112 408.944ZM904.612 410.056L905.112 409.056L904.888 408.944L904.388 409.944L904.612 410.056ZM905.121 411.97L904.621 409.97L904.379 410.03L904.879 412.03L905.121 411.97ZM905.125 414.5V412H904.875V414.5H905.125ZM905.623 416.975L905.123 414.475L904.877 414.525L905.377 417.025L905.623 416.975ZM906.125 422.99L905.625 416.99L905.375 417.01L905.875 423.01L906.125 422.99ZM905.088 424.088L906.088 423.088L905.912 422.912L904.912 423.912L905.088 424.088ZM904.612 424.444C904.514 424.249 904.486 424.13 904.487 424.064C904.488 424.033 904.495 424.021 904.497 424.017C904.499 424.014 904.503 424.01 904.516 424.006C904.547 423.995 904.607 423.995 904.695 424.017C904.777 424.037 904.867 424.073 904.944 424.112L905.056 423.888C904.967 423.844 904.86 423.8 904.755 423.774C904.655 423.749 904.536 423.734 904.434 423.769C904.38 423.788 904.329 423.822 904.292 423.875C904.255 423.928 904.239 423.991 904.238 424.058C904.235 424.187 904.286 424.351 904.388 424.556L904.612 424.444ZM904.116 428.046C904.285 427.624 904.512 426.942 904.648 426.262C904.715 425.922 904.76 425.579 904.763 425.268C904.765 424.959 904.725 424.67 904.612 424.444L904.388 424.556C904.475 424.73 904.515 424.974 904.513 425.266C904.51 425.556 904.468 425.882 904.402 426.213C904.271 426.875 904.048 427.542 903.884 427.954L904.116 428.046ZM904.624 431.984L904.124 427.984L903.876 428.016L904.376 432.015L904.624 431.984ZM904.125 433.5C904.125 433.501 904.125 433.496 904.127 433.484C904.129 433.473 904.132 433.458 904.136 433.44C904.145 433.403 904.158 433.356 904.174 433.3C904.208 433.189 904.254 433.05 904.306 432.899C904.409 432.599 904.534 432.263 904.617 432.044L904.383 431.956C904.3 432.175 904.174 432.514 904.069 432.818C904.017 432.969 903.97 433.113 903.935 433.229C903.918 433.287 903.903 433.339 903.893 433.382C903.884 433.422 903.875 433.465 903.875 433.5H904.125ZM903.118 436.542C903.285 436.072 903.535 435.359 903.743 434.744C903.848 434.437 903.942 434.153 904.01 433.937C904.044 433.829 904.072 433.737 904.091 433.666C904.101 433.631 904.109 433.6 904.114 433.575C904.119 433.553 904.125 433.525 904.125 433.5H903.875C903.875 433.494 903.876 433.498 903.87 433.521C903.866 433.54 903.859 433.567 903.85 433.6C903.832 433.666 903.805 433.755 903.771 433.862C903.704 434.076 903.611 434.357 903.507 434.664C903.299 435.277 903.049 435.989 902.882 436.458L903.118 436.542ZM902.623 439.025L903.123 436.525L902.877 436.475L902.377 438.975L902.623 439.025ZM901.619 442.04L902.619 439.04L902.381 438.96L901.381 441.96L901.619 442.04ZM900.536 443.821C900.513 443.74 900.526 443.623 900.583 443.471C900.638 443.322 900.73 443.156 900.844 442.986C901.069 442.647 901.368 442.309 901.588 442.088L901.412 441.912C901.183 442.14 900.873 442.491 900.635 442.848C900.517 443.026 900.413 443.21 900.348 443.384C900.285 443.554 900.251 443.732 900.295 443.889L900.536 443.821ZM900.42 443.73C899.162 443.692 897.902 443.654 896.641 443.617L896.634 443.867C897.895 443.904 899.154 443.942 900.412 443.98L900.42 443.73ZM896.753 443.791L897.667 441.664L897.437 441.565L896.523 443.693L896.753 443.791ZM897.677 441.618L897.715 440.118L897.465 440.112L897.427 441.612L897.677 441.618ZM897.681 440.029L897.194 439.517L897.012 439.689L897.5 440.201L897.681 440.029ZM897.213 439.661L898.264 437.688L898.043 437.57L896.993 439.544L897.213 439.661ZM898.279 437.632L898.329 435.633L898.079 435.626L898.029 437.626L898.279 437.632ZM898.322 435.672L898.86 434.185L898.625 434.1L898.087 435.587L898.322 435.672ZM898.867 434.146L898.944 431.147L898.694 431.14L898.617 434.139L898.867 434.146ZM898.941 431.171L899.504 428.685L899.26 428.63L898.697 431.116L898.941 431.171ZM899.492 428.716L900.018 427.729L899.797 427.611L899.272 428.598L899.492 428.716ZM899.904 427.795L900.404 427.808L900.41 427.558L899.91 427.545L899.904 427.795ZM900.493 427.773L901.006 427.286L900.834 427.105L900.321 427.592L900.493 427.773ZM901.01 427.11L900.523 426.597L900.342 426.769L900.829 427.282L901.01 427.11ZM900.429 426.808L901.929 426.846L901.935 426.596L900.436 426.558L900.429 426.808ZM902.057 426.724L902.07 426.225L901.82 426.218L901.807 426.718L902.057 426.724ZM901.948 426.097L901.448 426.084L901.442 426.334L901.942 426.346L901.948 426.097ZM901.555 426.267L902.08 425.281L901.86 425.163L901.335 426.15L901.555 426.267ZM902.081 425.281L902.606 424.294L902.385 424.176L901.86 425.163L902.081 425.281ZM902.586 424.149L902.099 423.636L901.918 423.808L902.405 424.321L902.586 424.149ZM902.061 423.835L903.074 423.361L902.968 423.135L901.955 423.609L902.061 423.835ZM903.134 423.195L902.659 422.182L902.433 422.289L902.907 423.301L903.134 423.195ZM902.543 422.36L903.543 422.386L903.549 422.136L902.549 422.111L902.543 422.36ZM903.659 422.208L903.185 421.195L902.958 421.302L903.433 422.314L903.659 422.208ZM903.125 421.362L904.137 420.887L904.031 420.661L903.018 421.135L903.125 421.362ZM904.194 420.833L904.719 419.846L904.499 419.728L903.974 420.715L904.194 420.833ZM904.734 419.79L904.798 417.291L904.548 417.285L904.484 419.784L904.734 419.79ZM904.786 417.235L903.837 415.21L903.611 415.316L904.559 417.341L904.786 417.235ZM903.843 415.227L903.382 413.714L903.143 413.787L903.604 415.3L903.843 415.227ZM903.353 413.665C903.187 413.491 902.914 413.229 902.63 413.009C902.488 412.899 902.341 412.797 902.201 412.722C902.064 412.648 901.921 412.591 901.791 412.588L901.785 412.838C901.855 412.84 901.955 412.873 902.082 412.941C902.205 413.008 902.341 413.101 902.477 413.206C902.748 413.417 903.012 413.67 903.171 413.837L903.353 413.665ZM901.791 412.588C901.616 412.584 901.345 412.501 901.064 412.39C900.788 412.28 900.521 412.151 900.36 412.065L900.242 412.286C900.41 412.375 900.686 412.509 900.972 412.622C901.252 412.733 901.56 412.832 901.785 412.838L901.791 412.588ZM900.304 412.05L899.305 412.025L899.298 412.275L900.298 412.3L900.304 412.05ZM899.305 412.025C899.168 412.021 898.941 411.973 898.671 411.915L898.618 412.159C898.876 412.215 899.132 412.27 899.298 412.275L899.305 412.025ZM898.671 411.915C898.37 411.85 898.025 411.776 897.754 411.763C897.62 411.757 897.487 411.765 897.383 411.808C897.328 411.831 897.276 411.864 897.238 411.915C897.198 411.967 897.179 412.029 897.177 412.096L897.427 412.102C897.428 412.082 897.433 412.072 897.437 412.066C897.442 412.06 897.453 412.05 897.478 412.039C897.53 412.018 897.618 412.008 897.743 412.013C897.989 412.024 898.311 412.093 898.618 412.159L898.671 411.915ZM897.177 412.096C897.174 412.21 897.079 412.304 896.878 412.371C896.686 412.434 896.451 412.452 896.293 412.448L896.287 412.698C896.462 412.703 896.728 412.684 896.956 412.608C897.176 412.535 897.42 412.388 897.427 412.102L897.177 412.096ZM896.165 412.57L896.139 413.57L896.389 413.576L896.415 412.577L896.165 412.57ZM896.178 413.482L895.666 413.97L895.838 414.151L896.35 413.664L896.178 413.482ZM895.699 413.947L894.686 414.421L894.792 414.648L895.805 414.173L895.699 413.947ZM894.614 414.531L894.602 415.031L894.852 415.038L894.864 414.538L894.614 414.531ZM894.674 414.921L893.661 415.396L893.767 415.622L894.78 415.148L894.674 414.921ZM893.773 415.399C893.604 415.308 893.342 415.195 893.115 415.157C893.004 415.139 892.881 415.135 892.779 415.18C892.725 415.203 892.676 415.241 892.641 415.296C892.607 415.35 892.591 415.413 892.59 415.48L892.84 415.487C892.84 415.454 892.848 415.437 892.853 415.429C892.857 415.422 892.865 415.415 892.879 415.409C892.914 415.393 892.978 415.388 893.074 415.404C893.263 415.435 893.496 415.534 893.656 415.619L893.773 415.399ZM892.59 415.48C892.584 415.712 892.673 415.945 892.778 416.136C892.883 416.328 893.01 416.489 893.098 416.582L893.28 416.41C893.205 416.331 893.091 416.187 892.997 416.015C892.902 415.842 892.835 415.655 892.84 415.487L892.59 415.48ZM893.103 416.405L892.59 416.892L892.763 417.074L893.275 416.586L893.103 416.405ZM892.59 416.892L892.078 417.379L892.25 417.561L892.763 417.074L892.59 416.892ZM892.078 417.379L891.565 417.867L891.738 418.048L892.25 417.561L892.078 417.379ZM891.532 417.994L891.994 419.506L892.233 419.433L891.771 417.921L891.532 417.994ZM892.023 419.556L892.997 420.581L893.178 420.408L892.204 419.383L892.023 419.556ZM892.962 420.491L892.937 421.491L893.187 421.497L893.212 420.498L892.962 420.491ZM892.952 421.435L892.426 422.422L892.647 422.54L893.172 421.553L892.952 421.435ZM892.424 422.534L892.898 423.547L893.124 423.441L892.65 422.428L892.424 422.534ZM892.886 423.49L892.874 423.99L893.123 423.997L893.136 423.497L892.886 423.49ZM892.885 424.046L893.36 425.059L893.586 424.953L893.112 423.94L892.885 424.046ZM893.387 424.915L891.849 426.377L892.021 426.558L893.559 425.096L893.387 424.915ZM891.822 426.415L890.233 429.876L890.46 429.98L892.049 426.519L891.822 426.415ZM890.35 429.803L889.35 429.778L889.344 430.027L890.344 430.053L890.35 429.803ZM889.406 429.792L886.445 428.216L886.327 428.437L889.288 430.013L889.406 429.792ZM886.477 428.241L884.528 426.19L884.347 426.363L886.296 428.413L886.477 428.241ZM884.441 426.152L882.941 426.113L882.935 426.363L884.435 426.402L884.441 426.152ZM882.981 426.121L881.494 425.583L881.409 425.818L882.896 426.356L882.981 426.121ZM881.455 425.576L880.455 425.55L880.448 425.8L881.448 425.825L881.455 425.576ZM880.337 425.626L879.274 428.099L879.503 428.198L880.567 425.724L880.337 425.626ZM879.33 428.259L881.304 429.31L881.421 429.089L879.447 428.039L879.33 428.259ZM881.257 429.266L882.218 430.791L882.43 430.658L881.468 429.133L881.257 429.266ZM882.281 430.842L883.768 431.38L883.853 431.145L882.366 430.607L882.281 430.842ZM883.698 431.315L884.172 432.328L884.398 432.222L883.924 431.209L883.698 431.315ZM884.288 432.15L882.789 432.112L882.782 432.361L884.282 432.4L884.288 432.15ZM882.835 432.122L880.361 431.058L880.263 431.288L882.736 432.351L882.835 432.122ZM880.345 431.053L878.359 430.502L878.292 430.743L880.279 431.294L880.345 431.053ZM878.244 430.528L872.618 435.387L872.782 435.576L878.407 430.717L878.244 430.528ZM872.614 435.391L869.539 438.313L869.711 438.495L872.786 435.572L872.614 435.391ZM869.597 438.282L867.585 438.731L867.64 438.975L869.652 438.526L869.597 438.282ZM867.526 438.762L866.501 439.737L866.674 439.918L867.699 438.944L867.526 438.762ZM866.57 439.704L863.558 440.127L863.593 440.375L866.605 439.951L866.57 439.704ZM863.49 440.16L861.952 441.622L862.124 441.803L863.662 440.342L863.49 440.16ZM861.913 441.709L861.884 442.873L862.134 442.879L862.163 441.715L861.913 441.709ZM862.011 442.751C834.064 442.173 805.516 441.875 776.5 441.875V442.125C805.515 442.125 834.06 442.423 862.006 443.001L862.011 442.751ZM776.5 441.875C606.53 441.875 452.649 452.117 341.257 468.676C285.563 476.956 240.485 486.815 209.328 497.766C193.75 503.241 181.645 508.992 173.431 514.958C165.222 520.923 160.875 527.122 160.875 533.5H161.125C161.125 527.244 165.39 521.109 173.578 515.161C181.763 509.215 193.842 503.474 209.41 498.002C240.545 487.059 285.605 477.202 341.294 468.923C452.67 452.366 606.539 442.125 776.5 442.125V441.875ZM160.875 533.5C160.875 539.878 165.222 546.077 173.431 552.042C181.645 558.008 193.75 563.759 209.328 569.234C240.485 580.185 285.563 590.044 341.257 598.324C452.649 614.883 606.53 625.125 776.5 625.125V624.875C606.539 624.875 452.67 614.634 341.294 598.077C285.605 589.798 240.545 579.941 209.41 568.998C193.842 563.526 181.763 557.785 173.578 551.839C165.39 545.891 161.125 539.756 161.125 533.5H160.875ZM776.5 625.125C946.47 625.125 1100.35 614.883 1211.74 598.324C1267.44 590.044 1312.52 580.185 1343.67 569.234C1359.25 563.759 1371.36 558.008 1379.57 552.042C1387.78 546.077 1392.12 539.878 1392.12 533.5H1391.88C1391.88 539.756 1387.61 545.891 1379.42 551.839C1371.24 557.785 1359.16 563.526 1343.59 568.998C1312.45 579.941 1267.39 589.798 1211.71 598.077C1100.33 614.634 946.461 624.875 776.5 624.875V625.125ZM1392.12 533.5C1392.12 527.98 1388.87 522.593 1382.67 517.379C1376.47 512.163 1367.32 507.106 1355.48 502.243C1331.81 492.518 1297.37 483.562 1254.32 475.691C1168.22 459.95 1047.62 448.545 909.662 444.022L909.654 444.272C1047.61 448.795 1168.19 460.198 1254.28 475.937C1297.32 483.807 1331.74 492.759 1355.39 502.475C1367.21 507.333 1376.34 512.378 1382.51 517.57C1388.68 522.762 1391.88 528.086 1391.88 533.5H1392.12ZM914.495 443.875C913.168 443.924 911.441 443.979 909.655 444.022L909.661 444.272C911.448 444.229 913.177 444.174 914.505 444.125L914.495 443.875ZM886.426 443.399L885.656 441.757L885.43 441.863L886.2 443.505L886.426 443.399ZM874.785 443.285C878.638 443.377 882.48 443.474 886.31 443.577L886.316 443.327C882.487 443.225 878.645 443.127 874.791 443.035L874.785 443.285ZM875.948 441.491L874.69 443.083L874.886 443.238L876.144 441.646L875.948 441.491ZM875.465 440.093L875.927 441.605L876.166 441.532L875.704 440.02L875.465 440.093ZM878.059 438.021L875.509 439.956L875.66 440.156L878.21 438.22L878.059 438.021ZM879.586 436.568L878.049 438.03L878.221 438.211L879.758 436.749L879.586 436.568ZM881.692 437.089L879.706 436.538L879.639 436.779L881.626 437.33L881.692 437.089ZM883.698 438.662L881.736 437.111L881.581 437.308L883.543 438.858L883.698 438.662ZM885.172 440.211L883.711 438.674L883.53 438.846L884.991 440.384L885.172 440.211ZM885.663 441.773L885.201 440.261L884.962 440.334L885.424 441.846L885.663 441.773Z" fill="black"/>
</g>
</g>
<defs>
<clipPath id="clip0_108_257">
<rect width="1451" height="513" fill="white"/>
</clipPath>
<clipPath id="clip1_108_257">
<rect width="1433" height="199" fill="white" transform="translate(53 314)"/>
</clipPath>
</defs>
</svg>
