<svg width="1360" height="199" viewBox="0 0 1360 199" fill="none" xmlns="http://www.w3.org/2000/svg">
<g clip-path="url(#clip0_108_258)">
<path fill-rule="evenodd" clip-rule="evenodd" d="M793.5 130V127.5L793 126.5C792.667 126 792 124.8 792 124C792 123.2 792.333 122 792.5 121.5V118L793 116V114.5C792.667 114 792.1 112.9 792.5 112.5C792.9 112.1 793 109.667 793 108.5V104.5L792 102.5L792.5 100L792 98.5V96.5L791.5 94.5L792 92L793 88.6706L793.5 86.5L794.5 84L796 82.5H797.279L798.5 83.5L799.5 84L801 83L802 82.5L802.237 83.5L803 84L804 85L805.5 84.5L806 85L807 84H807.801H808.5L809 83L811 84L812.5 85L811.5 85.5H813.5C814 85.3333 815.1 85.1 815.5 85.5C815.9 85.9 816.667 86 817 86L818 86.5C817.833 86.5 817.7 86.6 818.5 87C819.5 87.5 820.5 87.5 820.5 87C820.5 86.6 821.5 86.1667 822 86C822.333 86.3333 823.2 87 824 87C824.8 87 826.333 87.3333 827 87.5C826.833 87.3333 826.7 87 827.5 87C828.3 87 828.5 87.3333 828.5 87.5H830C830.167 87.8902 830.6 88.6706 831 88.6706C831.4 88.6706 832.5 88.5569 833 88.5H834.5C834.333 88.1667 834.2 87.5 835 87.5H836.5L838 89C837.833 89.3333 837.7 90 838.5 90C839.3 90 839.833 90.3333 840 90.5H841.5L843 90L843.5 88.5V87.5C844.333 87.8333 846.1 88.4 846.5 88C846.9 87.6 848 86.8333 848.5 86.5V85.5C848.943 85.5 849.896 85.4 850.164 85C850.433 84.6 851.5 83.8333 852 83.5C851.5 83 850.7 82 851.5 82C852.3 82 853.167 82.3333 853.5 82.5L855 80.5L855.5 79L855 77C855 76.8333 855.2 76.4 856 76C856.8 75.6 857.333 74.8333 857.5 74.5C857.333 74.1667 857.2 73.5 858 73.5C858.8 73.5 859.333 72.8333 859.5 72.5L859 71C858.5 70.3333 857.6 69 858 69C858.4 69 859.5 68.3333 860 68C860.167 68.3333 860.6 68.9 861 68.5C861.4 68.1 861.5 67.3333 861.5 67L861 64L860 62L859.5 60.5C859.667 60.6667 860.1 60.9 860.5 60.5C860.9 60.1 860.667 58.6667 860.5 58L861.5 56.5L859.5 54.5L860 53.5L857.5 52.5C857.333 52.3333 856.9 52 856.5 52C856.1 52 855.333 51 855 50.5L852.5 50H850.5V48.5L851.5 47.5C851.667 47.6667 852.1 47.9 852.5 47.5C852.814 47.1861 852.537 46.6753 852.287 46.2147C852.139 45.9416 852 45.6861 852 45.5V43.5L851 42.5L850 42L849.5 42.5V40L848.5 39L848 38.5V36C847.667 36 846.9 35.9 846.5 35.5C846.1 35.1 845.667 34 845.5 33.5L846.5 33L847 31.5L846 30.5L843.5 30C843.333 29.5 842.9 28.4 842.5 28C842.1 27.6 841.333 27.5 841 27.5L840 25.5C840 25.3333 839.9 25 839.5 25C839.1 25 838 24.6667 837.5 24.5L836 22L834.5 21.5L831.5 20.5L830.5 19.5C830.117 20.1667 829.315 21.3 829.175 20.5C829.035 19.7 828.667 19.1667 828.5 19H827.5L826 18L824 16.5C824.167 16.1667 824.4 15.5 824 15.5H822C821.667 16 821 16.9 821 16.5C821 16.1 820 15.6667 819.5 15.5H818.5L818 16L815.5 14H813.5L811.5 12.5H810C809.667 12.8333 808.9 13.4 808.5 13C808.1 12.6 807 12.5 806.5 12.5C806.333 12.8333 805.9 13.4 805.5 13C805.1 12.6 804.667 12.5 804.5 12.5L803.5 11.5L802 11L801 10L800 10.5L798.5 9.5C798.333 9.16667 797.9 8.4 797.5 8C797.1 7.6 796.667 6.83333 796.5 6.5L795 7C795 7.16667 794.8 7.5 794 7.5C793.414 7.5 793.172 7.32843 792.971 7.18629C792.828 7.08579 792.707 7 792.5 7C792.25 7 792.25 6.875 792.25 6.75C792.25 6.625 792.25 6.5 792 6.5H789.5C789.1 6.5 788.333 6.16667 788 6H785C785 5.83333 784.9 5.5 784.5 5.5H783L782.5 5L782 6L780.5 5.5H779L778 6L776.5 5.5C776.62 5.83333 776.587 6.4 775.5 6C774.413 5.6 772.047 5.5 771 5.5L770.5 6.5L769.348 7.5C769.066 7.83333 768.5 8.4 768.5 8C768.5 7.6 767.833 7.83333 767.5 8L765.5 8.5H763.5C763.333 8.66667 762.9 9 762.5 9C762.1 9 762 9.66667 762 10C761.5 9.83333 760.5 9.6 760.5 10C760.5 10.4 760.167 10.8333 760 11C759.667 11.1667 758.9 11.5 758.5 11.5H757C756.6 11.5 755.664 11.1667 755.246 11L754 12L751.5 13V13.5L750 14.5C750.167 14.6667 750.2 15 749 15H747L746.5 16L745.5 16.5C745.333 16 744.9 15.1 744.5 15.5C744.25 15.75 744.125 16 744 16.25C743.875 16.5 743.75 16.75 743.5 17C743.1 17.4 742.333 17.5 742 17.5L741.5 18.5H740.5C740.191 18.5 740.073 18.691 739.91 18.9549C739.809 19.118 739.691 19.309 739.5 19.5C739.1 19.9 738.333 20.3333 738 20.5C737.5 20.5 736.5 20.6 736.5 21C736.5 21.4 736.833 21.8333 737 22C737.167 22.5 737.4 23.5 737 23.5C736.631 23.5 736.233 23.7839 736.043 23.9587C736.202 23.795 736.366 23.4845 736 23.2797C735.6 23.0559 734.833 23.6667 734.5 24L734 25.5C734.333 25.3333 734.9 25.2 734.5 26C734.1 26.8 733.667 27.3333 733.5 27.5L732.5 27L732 28L731 28.5V29L732 30V31C732 31.3333 732.1 32 732.5 32C732.9 32 733 32.6667 733 33H733.5L732.5 33.5L732 35.5V36.5C731.5 36.6667 730.5 37.1 730.5 37.5C730.5 37.9226 730.589 38.1667 730.655 38.3453C730.744 38.5893 730.789 38.7113 730.5 39C730.1 39.4 729.667 40.5 729.5 41H728L728.5 43L727.5 44L726.5 45.5V47C726.5 47.5 725.5 48.5 725 48.5C724.788 48.5 724.665 48.5 724.557 48.5384C724.41 48.5903 724.288 48.7125 724 49C723.75 49.25 723.75 49.375 723.75 49.5C723.75 49.625 723.75 49.75 723.5 50C723.212 50.2875 723.09 50.4097 722.943 50.4616C722.835 50.5 722.712 50.5 722.5 50.5C722.1 50.5 722.333 51.5 722.5 52C722.333 52.5 721.9 53.5 721.5 53.5C721.281 53.5 721.158 53.3078 721.046 53.134C720.904 52.9115 720.781 52.7192 720.5 53L719.5 54L718 56.5C718.167 56.8333 718.3 57.5 717.5 57.5C716.7 57.5 716.167 58.1667 716 58.5V59.5L715.5 61V62C716 62.3333 717 63.1 717 63.5C716.6 64.3 716.833 65.5 717 66C717.167 66.0674 717.4 66.4319 717 67.351C716.6 68.2702 716.833 70.1667 717 71C718 70.8333 719.9 70.7 719.5 71.5C719.1 72.3 719.333 73.1667 719.5 73.5C719.667 73.8333 720.1 74.5 720.5 74.5C720.75 74.5 720.875 74.375 721 74.25C721.125 74.125 721.25 74 721.5 74C721.9 74 722 74.6667 722 75C721.833 75.1667 721.5 75.6 721.5 76C721.5 76.4 722.167 77.5 722.5 78C722.833 77.8333 723.7 77.6 724.5 78C725.3 78.4 725.833 79.1667 726 79.5H727.5L728.5 80L728.942 81.3269C728.45 81.1937 728.736 81.3678 729 81.5L728.942 81.3269C729.071 81.3616 729.252 81.4173 729.5 81.5C730.469 81.8229 730.812 81.7288 731.203 81.6216C731.417 81.5627 731.646 81.5 732 81.5C732.8 81.5 733.667 81.1667 734 81C734.333 80.8333 735.1 80.6 735.5 81C735.9 81.4 737 81.5 737.5 81.5C737.333 81.8333 737.1 82.5 737.5 82.5C737.632 82.5 737.903 82.5348 738.23 82.5768C739.145 82.6942 740.5 82.8681 740.5 82.5C740.5 82.1 741.167 81.3333 741.5 81L742.5 80.5C742.333 80.3333 742.2 80.1 743 80.5C743.8 80.9 745.667 80.6667 746.5 80.5H749L748 81H751.5C751.5 81.1667 751.6 81.5 752 81.5C752.25 81.5 752.625 81.25 753 81C753.375 80.75 753.75 80.5 754 80.5C754.167 80.5 754.333 80.3889 754.5 80.2778C754.833 80.0556 755.167 79.8333 755.5 80.5C755.684 80.8675 755.732 81.1675 755.77 81.4C755.835 81.8 755.868 82 756.5 82C757 82 757.125 81.75 757.25 81.5C757.375 81.25 757.5 81 758 81C759 81 759.5 81 760.5 81.5C761.5 82 763 82.5 763.5 81.5C763.9 80.7 765 80.8333 765.5 81C765.833 81 766.5 80.9 766.5 80.5C766.743 80.0147 767.339 79.8827 767.888 79.761C768.47 79.632 769 79.5147 769 79C769 78 770.5 77.5 770.5 78C770.5 78.1735 770.5 78.2868 770.542 78.3817C770.62 78.5602 770.847 78.6735 771.5 79C771.793 79.1464 772 79.2929 772.172 79.4142C772.586 79.7071 772.793 79.8536 773.5 79.5C774.5 79 775 79 776 79C776.467 79 776.607 79 776.725 79.0508C776.86 79.1088 776.967 79.2333 777.5 79.5C777.908 80.3169 777.983 80.7167 778.031 80.972C778.1 81.3418 778.113 81.4084 779 82C780.2 82.8 780.833 84.3333 781 85C780.833 85.1667 780.6 85.6 781 86C781.4 86.4 782.5 89.1667 783 90.5C783.5 90.6667 784.4 91.3 784 92.5C783.6 93.7 783.833 94.6667 784 95L783.5 96L784 98V100.5L784.5 103L785 109L784 110C783.667 109.833 783.1 109.7 783.5 110.5C783.9 111.3 783.333 113.167 783 114L783.5 118C783.333 118.438 783 119.351 783 119.5C783 119.649 782.333 121.562 782 122.5L781.5 125L780.5 128C780.052 128.448 779.282 129.379 779.416 129.855C778.158 129.817 776.898 129.779 775.638 129.742L776.552 127.615L776.59 126.115L776.103 125.603L777.154 123.629L777.204 121.629L777.742 120.143L777.819 117.144L778.382 114.657L778.907 113.67L779.407 113.683L779.92 113.196L779.432 112.683L780.932 112.721L780.945 112.221L780.445 112.209L780.97 111.222L781.495 110.235L781.008 109.722L782.021 109.248L781.546 108.235L782.546 108.261L782.071 107.248L783.084 106.774L783.609 105.787L783.673 103.288L782.724 101.263L782.262 99.7509C781.937 99.4092 781.188 98.7233 780.788 98.7131C780.388 98.703 779.63 98.3503 779.301 98.1752L778.301 98.1497C778.15 98.1459 777.908 98.0939 777.644 98.0371C777.036 97.9064 776.311 97.7504 776.302 98.0989C776.292 98.4988 775.623 98.5818 775.29 98.5734L775.264 99.573L774.752 100.06L773.739 100.535L773.727 101.034L772.714 101.509C772.385 101.334 771.725 101.084 771.715 101.483C771.704 101.883 772.027 102.325 772.189 102.496L771.677 102.983L771.164 103.47L770.651 103.957L771.113 105.469L772.087 106.495L772.062 107.494L771.537 108.481L772.011 109.494L771.998 109.993L772.473 111.006L770.935 112.467L769.347 115.928L768.347 115.903L765.386 114.327L763.438 112.277L761.938 112.238L760.451 111.7L759.452 111.675L758.388 114.149L760.362 115.199L761.324 116.724L762.811 117.262L763.285 118.275L761.786 118.237L759.312 117.173L757.325 116.623L751.7 121.481L748.625 124.404L746.613 124.853L745.588 125.827L742.576 126.251L741.038 127.712L741.009 128.876C713.062 128.298 684.516 128 655.5 128C315.569 128 40 168.966 40 219.5C40 270.034 315.569 311 655.5 311C995.431 311 1271 270.034 1271 219.5C1271 175.763 1064.58 139.193 788.658 130.147C790.445 130.104 792.172 130.049 793.5 130ZM764.543 127.81L765.313 129.452C761.483 129.35 757.642 129.252 753.788 129.16L755.046 127.568L754.585 126.056L757.135 124.12L758.672 122.659L760.659 123.209L762.62 124.76L764.082 126.297L764.543 127.81Z" fill="black"/>
<path d="M793.5 127.5H793.625V127.47L793.612 127.444L793.5 127.5ZM793.5 130L793.505 130.125L793.625 130.12V130H793.5ZM793 126.5L793.112 126.444L793.108 126.437L793.104 126.431L793 126.5ZM792.5 121.5L792.619 121.54L792.625 121.52V121.5H792.5ZM792.5 118L792.379 117.97L792.375 117.985V118H792.5ZM793 116L793.121 116.03L793.125 116.015V116H793ZM793 114.5H793.125V114.462L793.104 114.431L793 114.5ZM792.5 112.5L792.412 112.412V112.412L792.5 112.5ZM793 104.5H793.125V104.47L793.112 104.444L793 104.5ZM792 102.5L791.877 102.475L791.869 102.518L791.888 102.556L792 102.5ZM792.5 100L792.623 100.025L792.629 99.992L792.619 99.9605L792.5 100ZM792 98.5H791.875V98.5203L791.881 98.5395L792 98.5ZM792 96.5H792.125V96.4846L792.121 96.4697L792 96.5ZM791.5 94.5L791.377 94.4755L791.372 94.503L791.379 94.5303L791.5 94.5ZM792 92L791.88 91.9639L791.877 91.9755L792 92ZM793 88.6706L793.12 88.7066L793.122 88.6986L793 88.6706ZM793.5 86.5L793.384 86.4536L793.38 86.4625L793.378 86.4719L793.5 86.5ZM794.5 84L794.412 83.9116L794.393 83.9298L794.384 83.9536L794.5 84ZM796 82.5V82.375H795.948L795.912 82.4116L796 82.5ZM797.279 82.5L797.358 82.4033L797.323 82.375H797.279V82.5ZM798.5 83.5L798.421 83.5967L798.432 83.6056L798.444 83.6118L798.5 83.5ZM799.5 84L799.444 84.1118L799.509 84.1442L799.569 84.104L799.5 84ZM801 83L800.944 82.8882L800.937 82.8917L800.931 82.896L801 83ZM802 82.5L802.122 82.4712L802.085 82.3176L801.944 82.3882L802 82.5ZM802.237 83.5L802.115 83.5288L802.127 83.5773L802.168 83.6046L802.237 83.5ZM803 84L803.088 83.9116L803.079 83.9025L803.068 83.8954L803 84ZM804 85L803.912 85.0884L803.966 85.143L804.04 85.1186L804 85ZM805.5 84.5L805.588 84.4116L805.534 84.357L805.46 84.3814L805.5 84.5ZM806 85L805.912 85.0884L806 85.1768L806.088 85.0884L806 85ZM807 84V83.875H806.948L806.912 83.9116L807 84ZM808.5 84V84.125H808.577L808.612 84.0559L808.5 84ZM809 83L809.056 82.8882L808.944 82.8323L808.888 82.9441L809 83ZM811 84L811.069 83.896L811.063 83.8917L811.056 83.8882L811 84ZM812.5 85L812.556 85.1118L812.749 85.0155L812.569 84.896L812.5 85ZM811.5 85.5L811.444 85.3882L811.5 85.625V85.5ZM813.5 85.5V85.625H813.52L813.54 85.6186L813.5 85.5ZM815.5 85.5L815.412 85.5884V85.5884L815.5 85.5ZM817 86L817.056 85.8882L817.029 85.875H817V86ZM818 86.5V86.625L818.056 86.3882L818 86.5ZM818.5 87L818.444 87.1118L818.5 87ZM822 86L822.088 85.9116L822.034 85.857L821.96 85.8814L822 86ZM827 87.5L826.97 87.6213L827.407 87.7307L827.088 87.4116L827 87.5ZM828.5 87.5H828.375V87.625H828.5V87.5ZM830 87.5L830.115 87.4509L830.083 87.375H830V87.5ZM833 88.5V88.375H832.993L832.986 88.3758L833 88.5ZM834.5 88.5V88.625H834.702L834.612 88.4441L834.5 88.5ZM836.5 87.5L836.588 87.4116L836.552 87.375H836.5V87.5ZM838 89L838.112 89.0559L838.152 88.9753L838.088 88.9116L838 89ZM840 90.5L839.912 90.5884L839.948 90.625H840V90.5ZM841.5 90.5V90.625H841.52L841.54 90.6186L841.5 90.5ZM843 90L843.04 90.1186L843.099 90.0988L843.119 90.0395L843 90ZM843.5 88.5L843.619 88.5395L843.625 88.5203V88.5H843.5ZM843.5 87.5L843.546 87.3839L843.375 87.3154V87.5H843.5ZM846.5 88L846.412 87.9116V87.9116L846.5 88ZM848.5 86.5L848.569 86.604L848.625 86.5669V86.5H848.5ZM848.5 85.5V85.375H848.375V85.5H848.5ZM850.164 85L850.268 85.0697V85.0697L850.164 85ZM852 83.5L852.069 83.604L852.196 83.5194L852.088 83.4116L852 83.5ZM853.5 82.5L853.444 82.6118L853.537 82.6585L853.6 82.575L853.5 82.5ZM855 80.5L855.1 80.575L855.112 80.5588L855.119 80.5395L855 80.5ZM855.5 79L855.619 79.0395L855.63 79.005L855.621 78.9697L855.5 79ZM855 77H854.875V77.0154L854.879 77.0303L855 77ZM856 76L855.944 75.8882L856 76ZM857.5 74.5L857.612 74.5559L857.64 74.5L857.612 74.4441L857.5 74.5ZM859.5 72.5L859.612 72.5559L859.635 72.5096L859.619 72.4605L859.5 72.5ZM859 71L859.119 70.9605L859.112 70.9412L859.1 70.925L859 71ZM860 68L860.112 67.9441L860.048 67.8175L859.931 67.896L860 68ZM861 68.5L860.912 68.4116V68.4116L861 68.5ZM861.5 67H861.625V66.9897L861.623 66.9795L861.5 67ZM861 64L861.123 63.9795L861.12 63.9609L861.112 63.9441L861 64ZM860 62L859.881 62.0395L859.884 62.048L859.888 62.0559L860 62ZM859.5 60.5L859.588 60.4116L859.381 60.5395L859.5 60.5ZM860.5 60.5L860.412 60.4116V60.4116L860.5 60.5ZM860.5 58L860.396 57.9307L860.365 57.9767L860.379 58.0303L860.5 58ZM861.5 56.5L861.604 56.5693L861.661 56.4841L861.588 56.4116L861.5 56.5ZM859.5 54.5L859.388 54.4441L859.348 54.5247L859.412 54.5884L859.5 54.5ZM860 53.5L860.112 53.5559L860.173 53.4344L860.046 53.3839L860 53.5ZM857.5 52.5L857.412 52.5884L857.43 52.6065L857.454 52.6161L857.5 52.5ZM855 50.5L855.104 50.4307L855.075 50.3876L855.025 50.3774L855 50.5ZM852.5 50L852.525 49.8774L852.512 49.875H852.5V50ZM850.5 50H850.375V50.125H850.5V50ZM850.5 48.5L850.412 48.4116L850.375 48.4482V48.5H850.5ZM851.5 47.5L851.588 47.4116L851.5 47.3232L851.412 47.4116L851.5 47.5ZM852.5 47.5L852.412 47.4116V47.4116L852.5 47.5ZM852.287 46.2147L852.397 46.1551V46.1551L852.287 46.2147ZM852 43.5H852.125V43.4482L852.088 43.4116L852 43.5ZM851 42.5L851.088 42.4116L851.074 42.3973L851.056 42.3882L851 42.5ZM850 42L850.056 41.8882L849.975 41.8479L849.912 41.9116L850 42ZM849.5 42.5H849.375V42.8018L849.588 42.5884L849.5 42.5ZM849.5 40H849.625V39.9482L849.588 39.9116L849.5 40ZM848 38.5H847.875V38.5518L847.912 38.5884L848 38.5ZM848 36H848.125V35.875H848V36ZM846.5 35.5L846.412 35.5884V35.5884L846.5 35.5ZM845.5 33.5L845.444 33.3882L845.347 33.4367L845.381 33.5395L845.5 33.5ZM846.5 33L846.556 33.1118L846.602 33.0886L846.619 33.0395L846.5 33ZM847 31.5L847.119 31.5395L847.143 31.4662L847.088 31.4116L847 31.5ZM846 30.5L846.088 30.4116L846.062 30.3848L846.025 30.3774L846 30.5ZM843.5 30L843.381 30.0395L843.404 30.1083L843.475 30.1226L843.5 30ZM842.5 28L842.412 28.0884V28.0884L842.5 28ZM841 27.5L840.888 27.5559L840.923 27.625H841V27.5ZM840 25.5H839.875V25.5295L839.888 25.5559L840 25.5ZM837.5 24.5L837.393 24.5643L837.417 24.604L837.46 24.6186L837.5 24.5ZM836 22L836.107 21.9357L836.083 21.896L836.04 21.8814L836 22ZM831.5 20.5L831.412 20.5884L831.432 20.6093L831.46 20.6186L831.5 20.5ZM830.5 19.5L830.588 19.4116L830.473 19.2962L830.392 19.4377L830.5 19.5ZM829.175 20.5L829.052 20.5216L829.175 20.5ZM828.5 19L828.588 18.9116L828.552 18.875H828.5V19ZM827.5 19L827.431 19.104L827.462 19.125H827.5V19ZM826 18L825.925 18.1002L825.931 18.104L826 18ZM824 16.5L823.888 16.4441L823.842 16.5374L823.925 16.6L824 16.5ZM822 15.5V15.375H821.933L821.896 15.4307L822 15.5ZM819.5 15.5L819.54 15.3814L819.52 15.375H819.5V15.5ZM818.5 15.5V15.375H818.448L818.412 15.4116L818.5 15.5ZM818 16L817.922 16.0976L818.009 16.1675L818.088 16.0884L818 16ZM815.5 14L815.578 13.9024L815.544 13.875H815.5V14ZM813.5 14L813.425 14.1L813.458 14.125H813.5V14ZM811.5 12.5L811.575 12.4L811.542 12.375H811.5V12.5ZM810 12.5V12.375H809.948L809.912 12.4116L810 12.5ZM808.5 13L808.412 13.0884V13.0884L808.5 13ZM806.5 12.5V12.375H806.423L806.388 12.4441L806.5 12.5ZM805.5 13L805.412 13.0884V13.0884L805.5 13ZM804.5 12.5L804.412 12.5884L804.448 12.625H804.5V12.5ZM803.5 11.5L803.588 11.4116L803.568 11.3907L803.54 11.3814L803.5 11.5ZM802 11L801.912 11.0884L801.932 11.1093L801.96 11.1186L802 11ZM801 10L801.088 9.91161L801.025 9.84791L800.944 9.8882L801 10ZM800 10.5L799.931 10.604L799.991 10.6442L800.056 10.6118L800 10.5ZM798.5 9.5L798.388 9.55589L798.403 9.58559L798.431 9.60401L798.5 9.5ZM797.5 8L797.412 8.08838V8.08839L797.5 8ZM796.5 6.5L796.612 6.44409L796.563 6.34713L796.46 6.38141L796.5 6.5ZM795 7L794.96 6.88141L794.875 6.90991V7H795ZM792.971 7.18629L793.043 7.08423V7.08423L792.971 7.18629ZM788 6L788.056 5.88819L788.029 5.875H788V6ZM785 6H784.875V6.125H785V6ZM783 5.5L782.912 5.58839L782.948 5.625H783V5.5ZM782.5 5L782.588 4.91161L782.466 4.78898L782.388 4.9441L782.5 5ZM782 6L781.96 6.11859L782.063 6.15287L782.112 6.0559L782 6ZM780.5 5.5L780.54 5.38141L780.52 5.375H780.5V5.5ZM779 5.5V5.375H778.971L778.944 5.3882L779 5.5ZM778 6L777.96 6.11859L778.01 6.13496L778.056 6.1118L778 6ZM776.5 5.5L776.54 5.38141L776.295 5.30005L776.382 5.54222L776.5 5.5ZM775.5 6L775.457 6.11731V6.11731L775.5 6ZM771 5.5V5.375H770.923L770.888 5.4441L771 5.5ZM770.5 6.5L770.582 6.59438L770.601 6.57811L770.612 6.5559L770.5 6.5ZM769.348 7.5L769.266 7.40562L769.259 7.41187L769.253 7.41914L769.348 7.5ZM767.5 8L767.53 8.12127L767.544 8.11794L767.556 8.11181L767.5 8ZM765.5 8.5V8.625H765.515L765.53 8.62127L765.5 8.5ZM763.5 8.5V8.375H763.448L763.412 8.41162L763.5 8.5ZM762 10L761.96 10.1186L762.125 10.1734V10H762ZM760 11L760.056 11.1118L760.074 11.1027L760.088 11.0884L760 11ZM755.246 11L755.292 10.8839L755.224 10.8569L755.167 10.9025L755.246 11ZM754 12L754.046 12.1161L754.064 12.1091L754.078 12.0975L754 12ZM751.5 13L751.454 12.8839L751.375 12.9154V13H751.5ZM751.5 13.5L751.569 13.604L751.625 13.5669V13.5H751.5ZM750 14.5L749.931 14.396L749.804 14.4806L749.912 14.5884L750 14.5ZM747 15V14.875H746.923L746.888 14.9441L747 15ZM746.5 16L746.556 16.1118L746.593 16.0932L746.612 16.0559L746.5 16ZM745.5 16.5L745.381 16.5395L745.427 16.6763L745.556 16.6118L745.5 16.5ZM744.5 15.5L744.412 15.4116V15.4116L744.5 15.5ZM743.5 17L743.588 17.0884V17.0884L743.5 17ZM742 17.5V17.375H741.923L741.888 17.4441L742 17.5ZM741.5 18.5V18.625H741.577L741.612 18.5559L741.5 18.5ZM739.91 18.9549L740.016 19.0206V19.0206L739.91 18.9549ZM739.5 19.5L739.588 19.5884V19.5884L739.5 19.5ZM738 20.5V20.625H738.029L738.056 20.6118L738 20.5ZM737 22L737.119 21.9605L737.109 21.9325L737.088 21.9116L737 22ZM736.043 23.9587L735.953 23.8718L736.128 24.0507L736.043 23.9587ZM736 23.2797L736.061 23.1706V23.1706L736 23.2797ZM734.5 24L734.412 23.9116L734.391 23.9325L734.381 23.9605L734.5 24ZM734 25.5L733.881 25.4605L733.786 25.7468L734.056 25.6118L734 25.5ZM733.5 27.5L733.444 27.6118L733.525 27.6521L733.588 27.5884L733.5 27.5ZM732.5 27L732.556 26.8882L732.444 26.8323L732.388 26.9441L732.5 27ZM732 28L732.056 28.1118L732.093 28.0932L732.112 28.0559L732 28ZM731 28.5L730.944 28.3882L730.875 28.4227V28.5H731ZM731 29H730.875V29.0518L730.912 29.0884L731 29ZM732 30H732.125V29.9482L732.088 29.9116L732 30ZM733 33H732.875V33.125H733V33ZM733.5 33L733.556 33.1118L733.5 32.875V33ZM732.5 33.5L732.444 33.3882L732.393 33.4139L732.379 33.4697L732.5 33.5ZM732 35.5L731.879 35.4697L731.875 35.4846V35.5H732ZM732 36.5L732.04 36.6186L732.125 36.5901V36.5H732ZM730.655 38.3453L730.537 38.3883V38.3883L730.655 38.3453ZM730.5 39L730.412 38.9116L730.5 39ZM729.5 41V41.125H729.59L729.619 41.0395L729.5 41ZM728 41V40.875H727.84L727.879 41.0303L728 41ZM728.5 43L728.588 43.0884L728.638 43.0383L728.621 42.9697L728.5 43ZM727.5 44L727.412 43.9116L727.403 43.9204L727.396 43.9307L727.5 44ZM726.5 45.5L726.396 45.4307L726.375 45.4622V45.5H726.5ZM724.557 48.5384L724.515 48.4205V48.4205L724.557 48.5384ZM724 49L723.912 48.9116V48.9116L724 49ZM723.5 50L723.588 50.0884V50.0884L723.5 50ZM722.943 50.4616L722.985 50.5795V50.5795L722.943 50.4616ZM722.5 52L722.619 52.0395L722.632 52L722.619 51.9605L722.5 52ZM721.046 53.134L721.152 53.0666L721.046 53.134ZM720.5 53L720.588 53.0884L720.5 53ZM719.5 54L719.412 53.9116L719.401 53.9225L719.393 53.9357L719.5 54ZM718 56.5L717.893 56.4357L717.857 56.4945L717.888 56.5559L718 56.5ZM716 58.5L715.888 58.4441L715.875 58.4705V58.5H716ZM716 59.5L716.119 59.5395L716.125 59.5203V59.5H716ZM715.5 61L715.381 60.9605L715.375 60.9797V61H715.5ZM715.5 62H715.375V62.0669L715.431 62.104L715.5 62ZM717 63.5L717.112 63.5559L717.125 63.5295V63.5H717ZM717 66L716.881 66.0395L716.9 66.0943L716.953 66.1159L717 66ZM717 71L716.877 71.0245L716.901 71.1432L717.021 71.1233L717 71ZM722 75L722.088 75.0884L722.125 75.0518V75H722ZM722.5 78L722.396 78.0693L722.457 78.1612L722.556 78.1118L722.5 78ZM726 79.5L725.888 79.5559L725.923 79.625H726V79.5ZM727.5 79.5L727.556 79.3882L727.529 79.375H727.5V79.5ZM728.5 80L728.619 79.9605L728.602 79.9114L728.556 79.8882L728.5 80ZM729 81.5L728.944 81.6118L729.214 81.7467L729.119 81.4605L729 81.5ZM729.5 81.5L729.54 81.3814L729.5 81.5ZM731.203 81.6216L731.169 81.501L731.203 81.6216ZM737.5 81.5L737.612 81.5559L737.702 81.375H737.5V81.5ZM738.23 82.5768L738.215 82.7008L738.23 82.5768ZM741.5 81L741.444 80.8882L741.426 80.8973L741.412 80.9116L741.5 81ZM742.5 80.5L742.556 80.6118L742.711 80.5342L742.588 80.4116L742.5 80.5ZM746.5 80.5V80.375H746.488L746.475 80.3774L746.5 80.5ZM749 80.5L749.056 80.6118L749 80.375V80.5ZM748 81L747.944 80.8882L748 81.125V81ZM751.5 81H751.625V80.875H751.5V81ZM754.5 80.2778L754.569 80.3818V80.3818L754.5 80.2778ZM755.5 80.5L755.388 80.5559L755.5 80.5ZM755.77 81.4L755.894 81.38V81.38L755.77 81.4ZM763.5 81.5L763.388 81.4441L763.5 81.5ZM765.5 81L765.46 81.1186L765.48 81.125H765.5V81ZM766.5 80.5L766.388 80.4441L766.375 80.4705V80.5H766.5ZM767.888 79.761L767.861 79.639L767.888 79.761ZM770.542 78.3817L770.656 78.3314V78.3313L770.542 78.3817ZM771.5 79L771.444 79.1118L771.5 79ZM772.172 79.4142L772.099 79.5163V79.5163L772.172 79.4142ZM773.5 79.5L773.444 79.3882L773.5 79.5ZM776.725 79.0508L776.774 78.9359V78.9359L776.725 79.0508ZM777.5 79.5L777.612 79.4441L777.593 79.4068L777.556 79.3882L777.5 79.5ZM778.031 80.972L778.154 80.949V80.949L778.031 80.972ZM779 82L778.931 82.104L779 82ZM781 85L781.088 85.0884L781.138 85.0383L781.121 84.9697L781 85ZM783 90.5L782.883 90.5439L782.904 90.5997L782.96 90.6186L783 90.5ZM784 95L784.112 95.0559L784.14 95L784.112 94.9441L784 95ZM783.5 96L783.388 95.9441L783.367 95.9855L783.379 96.0303L783.5 96ZM784 98H784.125V97.9846L784.121 97.9697L784 98ZM784 100.5H783.875V100.512L783.877 100.525L784 100.5ZM784.5 103L784.625 102.99L784.624 102.982L784.623 102.975L784.5 103ZM785 109L785.088 109.088L785.129 109.047L785.125 108.99L785 109ZM784 110L783.944 110.112L784.025 110.152L784.088 110.088L784 110ZM783 114L782.884 113.954L782.872 113.984L782.876 114.016L783 114ZM783.5 118L783.617 118.044L783.628 118.015L783.624 117.984L783.5 118ZM782 122.5L781.882 122.458L781.879 122.467L781.877 122.475L782 122.5ZM781.5 125L781.619 125.04L781.621 125.032L781.623 125.025L781.5 125ZM780.5 128L780.588 128.088L780.609 128.068L780.619 128.04L780.5 128ZM779.416 129.855L779.412 129.98L779.582 129.985L779.536 129.821L779.416 129.855ZM775.638 129.742L775.523 129.693L775.45 129.862L775.634 129.867L775.638 129.742ZM776.552 127.615L776.667 127.664L776.676 127.642L776.677 127.618L776.552 127.615ZM776.59 126.115L776.715 126.118L776.716 126.067L776.681 126.029L776.59 126.115ZM776.103 125.603L775.993 125.544L775.95 125.624L776.012 125.689L776.103 125.603ZM777.154 123.629L777.264 123.688L777.278 123.661L777.279 123.632L777.154 123.629ZM777.204 121.629L777.087 121.587L777.08 121.606L777.079 121.626L777.204 121.629ZM777.742 120.143L777.86 120.185L777.867 120.166L777.867 120.146L777.742 120.143ZM777.819 117.144L777.697 117.116L777.694 117.128L777.694 117.14L777.819 117.144ZM778.382 114.657L778.272 114.598L778.264 114.613L778.26 114.63L778.382 114.657ZM778.907 113.67L778.91 113.545L778.833 113.543L778.797 113.611L778.907 113.67ZM779.407 113.683L779.404 113.808L779.456 113.809L779.493 113.773L779.407 113.683ZM779.92 113.196L780.006 113.286L780.096 113.2L780.01 113.11L779.92 113.196ZM779.432 112.683L779.436 112.558L779.134 112.551L779.342 112.769L779.432 112.683ZM780.932 112.721L780.929 112.846L781.054 112.849L781.057 112.724L780.932 112.721ZM780.945 112.221L781.07 112.225L781.073 112.1L780.948 112.097L780.945 112.221ZM780.445 112.209L780.335 112.15L780.24 112.329L780.442 112.334L780.445 112.209ZM780.97 111.222L781.081 111.281L780.97 111.222ZM781.495 110.235L781.606 110.294L781.648 110.214L781.586 110.149L781.495 110.235ZM781.008 109.722L780.955 109.609L780.798 109.683L780.918 109.808L781.008 109.722ZM782.021 109.248L782.074 109.361L782.187 109.308L782.134 109.195L782.021 109.248ZM781.546 108.235L781.549 108.111L781.347 108.105L781.433 108.289L781.546 108.235ZM782.546 108.261L782.543 108.386L782.745 108.391L782.659 108.208L782.546 108.261ZM782.071 107.248L782.018 107.135L781.905 107.188L781.958 107.302L782.071 107.248ZM783.084 106.774L783.137 106.887L783.175 106.87L783.194 106.833L783.084 106.774ZM783.609 105.787L783.719 105.846L783.733 105.82L783.734 105.79L783.609 105.787ZM783.673 103.288L783.798 103.291L783.798 103.262L783.786 103.235L783.673 103.288ZM782.724 101.263L782.604 101.3L782.607 101.308L782.611 101.316L782.724 101.263ZM782.262 99.7509L782.382 99.7144L782.373 99.6862L782.353 99.6648L782.262 99.7509ZM780.788 98.7131L780.785 98.8381L780.788 98.7131ZM779.301 98.1752L779.36 98.0648L779.334 98.051L779.304 98.0502L779.301 98.1752ZM778.301 98.1497L778.305 98.0248L778.301 98.1497ZM777.644 98.0371L777.671 97.9149L777.644 98.0371ZM776.302 98.0989L776.427 98.1021V98.1021L776.302 98.0989ZM775.29 98.5734L775.293 98.4484L775.168 98.4452L775.165 98.5702L775.29 98.5734ZM775.264 99.573L775.35 99.6636L775.388 99.628L775.389 99.5762L775.264 99.573ZM774.752 100.06L774.805 100.173L774.823 100.165L774.838 100.151L774.752 100.06ZM773.739 100.535L773.686 100.421L773.616 100.454L773.614 100.531L773.739 100.535ZM773.727 101.034L773.78 101.148L773.85 101.115L773.852 101.038L773.727 101.034ZM772.714 101.509L772.656 101.619L772.711 101.649L772.767 101.622L772.714 101.509ZM771.715 101.483L771.59 101.48V101.48L771.715 101.483ZM772.189 102.496L772.275 102.586L772.366 102.5L772.28 102.41L772.189 102.496ZM771.677 102.983L771.763 103.074V103.074L771.677 102.983ZM771.164 103.47L771.078 103.379L771.164 103.47ZM770.651 103.957L770.565 103.867L770.509 103.92L770.532 103.994L770.651 103.957ZM771.113 105.469L770.994 105.506L771.002 105.534L771.023 105.556L771.113 105.469ZM772.087 106.495L772.212 106.498L772.214 106.446L772.178 106.408L772.087 106.495ZM772.062 107.494L772.172 107.553L772.186 107.527L772.187 107.497L772.062 107.494ZM771.537 108.481L771.426 108.422L771.397 108.478L771.424 108.534L771.537 108.481ZM772.011 109.494L772.136 109.497L772.137 109.467L772.124 109.441L772.011 109.494ZM771.998 109.993L771.874 109.99L771.873 110.02L771.885 110.046L771.998 109.993ZM772.473 111.006L772.559 111.096L772.624 111.034L772.586 110.953L772.473 111.006ZM770.935 112.467L770.849 112.377L770.832 112.393L770.822 112.415L770.935 112.467ZM769.347 115.928L769.344 116.053L769.426 116.055L769.46 115.98L769.347 115.928ZM768.347 115.903L768.288 116.013L768.314 116.027L768.344 116.027L768.347 115.903ZM765.386 114.327L765.296 114.413L765.31 114.428L765.327 114.437L765.386 114.327ZM763.438 112.277L763.528 112.19L763.493 112.153L763.441 112.152L763.438 112.277ZM761.938 112.238L761.896 112.356L761.915 112.363L761.935 112.363L761.938 112.238ZM760.451 111.7L760.494 111.583L760.475 111.576L760.455 111.576L760.451 111.7ZM759.452 111.675L759.455 111.55L759.37 111.548L759.337 111.626L759.452 111.675ZM758.388 114.149L758.274 114.099L758.228 114.205L758.33 114.259L758.388 114.149ZM760.362 115.199L760.468 115.133L760.45 115.105L760.421 115.089L760.362 115.199ZM761.324 116.724L761.218 116.791L761.241 116.827L761.281 116.842L761.324 116.724ZM762.811 117.262L762.924 117.209L762.902 117.162L762.853 117.145L762.811 117.262ZM763.285 118.275L763.282 118.4L763.484 118.405L763.398 118.222L763.285 118.275ZM761.786 118.237L761.736 118.351L761.758 118.361L761.782 118.361L761.786 118.237ZM759.312 117.173L759.361 117.058L759.353 117.055L759.345 117.053L759.312 117.173ZM757.325 116.623L757.359 116.502L757.294 116.484L757.244 116.528L757.325 116.623ZM751.7 121.481L751.618 121.387L751.614 121.391L751.7 121.481ZM748.625 124.404L748.652 124.526L748.686 124.518L748.711 124.495L748.625 124.404ZM746.613 124.853L746.585 124.731L746.552 124.739L746.526 124.762L746.613 124.853ZM745.588 125.827L745.605 125.951L745.645 125.946L745.674 125.918L745.588 125.827ZM742.576 126.251L742.558 126.127L742.519 126.133L742.49 126.16L742.576 126.251ZM741.038 127.712L740.952 127.622L740.914 127.657L740.913 127.709L741.038 127.712ZM741.009 128.876L741.006 129.001L741.13 129.003L741.133 128.879L741.009 128.876ZM788.658 130.147L788.655 130.022L788.654 130.272L788.658 130.147ZM765.313 129.452L765.31 129.577L765.512 129.582L765.426 129.399L765.313 129.452ZM764.543 127.81L764.424 127.846L764.426 127.855L764.43 127.863L764.543 127.81ZM753.788 129.16L753.69 129.083L753.534 129.279L753.785 129.285L753.788 129.16ZM755.046 127.568L755.144 127.646L755.185 127.594L755.166 127.532L755.046 127.568ZM754.585 126.056L754.509 125.956L754.44 126.009L754.465 126.093L754.585 126.056ZM757.135 124.12L757.211 124.22L757.221 124.211L757.135 124.12ZM758.672 122.659L758.706 122.538L758.637 122.519L758.586 122.568L758.672 122.659ZM760.659 123.209L760.736 123.111L760.717 123.096L760.692 123.089L760.659 123.209ZM762.62 124.76L762.711 124.674L762.705 124.667L762.698 124.662L762.62 124.76ZM764.082 126.297L764.201 126.261L764.193 126.233L764.172 126.211L764.082 126.297ZM793.375 127.5V130H793.625V127.5H793.375ZM792.888 126.556L793.388 127.556L793.612 127.444L793.112 126.444L792.888 126.556ZM791.875 124C791.875 124.428 792.051 124.948 792.261 125.414C792.473 125.883 792.726 126.314 792.896 126.569L793.104 126.431C792.941 126.186 792.694 125.767 792.489 125.311C792.282 124.852 792.125 124.372 792.125 124H791.875ZM792.381 121.46C792.214 121.962 791.875 123.178 791.875 124H792.125C792.125 123.222 792.452 122.038 792.619 121.54L792.381 121.46ZM792.375 118V121.5H792.625V118H792.375ZM792.879 115.97L792.379 117.97L792.621 118.03L793.121 116.03L792.879 115.97ZM792.875 114.5V116H793.125V114.5H792.875ZM792.412 112.412C792.279 112.544 792.235 112.727 792.238 112.912C792.24 113.098 792.288 113.303 792.357 113.503C792.495 113.904 792.726 114.314 792.896 114.569L793.104 114.431C792.941 114.186 792.722 113.796 792.593 113.422C792.529 113.234 792.489 113.058 792.487 112.909C792.486 112.761 792.521 112.656 792.588 112.588L792.412 112.412ZM792.875 108.5C792.875 109.081 792.85 109.977 792.776 110.776C792.738 111.176 792.689 111.548 792.625 111.844C792.593 111.992 792.558 112.117 792.52 112.216C792.481 112.318 792.443 112.38 792.412 112.412L792.588 112.588C792.657 112.52 792.71 112.418 792.753 112.306C792.797 112.191 792.836 112.052 792.869 111.897C792.936 111.587 792.987 111.203 793.024 110.799C793.1 109.99 793.125 109.086 793.125 108.5H792.875ZM792.875 104.5V108.5H793.125V104.5H792.875ZM791.888 102.556L792.888 104.556L793.112 104.444L792.112 102.444L791.888 102.556ZM792.377 99.9755L791.877 102.475L792.123 102.525L792.623 100.025L792.377 99.9755ZM791.881 98.5395L792.381 100.04L792.619 99.9605L792.119 98.4605L791.881 98.5395ZM791.875 96.5V98.5H792.125V96.5H791.875ZM791.379 94.5303L791.879 96.5303L792.121 96.4697L791.621 94.4697L791.379 94.5303ZM791.877 91.9755L791.377 94.4755L791.623 94.5245L792.123 92.0245L791.877 91.9755ZM792.88 88.6346L791.88 91.964L792.12 92.0359L793.12 88.7065L792.88 88.6346ZM793.378 86.4719L792.878 88.6425L793.122 88.6986L793.622 86.5281L793.378 86.4719ZM794.384 83.9536L793.384 86.4536L793.616 86.5464L794.616 84.0464L794.384 83.9536ZM795.912 82.4116L794.412 83.9116L794.588 84.0884L796.088 82.5884L795.912 82.4116ZM797.279 82.375H796V82.625H797.279V82.375ZM798.579 83.4033L797.358 82.4033L797.199 82.5967L798.421 83.5967L798.579 83.4033ZM799.556 83.8882L798.556 83.3882L798.444 83.6118L799.444 84.1118L799.556 83.8882ZM800.931 82.896L799.431 83.896L799.569 84.104L801.069 83.104L800.931 82.896ZM801.944 82.3882L800.944 82.8882L801.056 83.1118L802.056 82.6118L801.944 82.3882ZM802.358 83.4712L802.122 82.4712L801.878 82.5288L802.115 83.5288L802.358 83.4712ZM803.068 83.8954L802.305 83.3954L802.168 83.6046L802.932 84.1046L803.068 83.8954ZM804.088 84.9116L803.088 83.9116L802.912 84.0884L803.912 85.0884L804.088 84.9116ZM805.46 84.3814L803.96 84.8814L804.04 85.1186L805.54 84.6186L805.46 84.3814ZM806.088 84.9116L805.588 84.4116L805.412 84.5884L805.912 85.0884L806.088 84.9116ZM806.912 83.9116L805.912 84.9116L806.088 85.0884L807.088 84.0884L806.912 83.9116ZM807.801 83.875H807V84.125H807.801V83.875ZM808.5 83.875H807.801V84.125H808.5V83.875ZM808.888 82.9441L808.388 83.9441L808.612 84.0559L809.112 83.0559L808.888 82.9441ZM811.056 83.8882L809.056 82.8882L808.944 83.1118L810.944 84.1118L811.056 83.8882ZM812.569 84.896L811.069 83.896L810.931 84.104L812.431 85.104L812.569 84.896ZM811.556 85.6118L812.556 85.1118L812.444 84.8882L811.444 85.3882L811.556 85.6118ZM813.5 85.375H811.5V85.625H813.5V85.375ZM815.588 85.4116C815.464 85.2873 815.293 85.2194 815.112 85.185C814.931 85.1505 814.728 85.1478 814.528 85.1628C814.128 85.193 813.718 85.2957 813.46 85.3814L813.54 85.6186C813.782 85.5376 814.172 85.4404 814.547 85.4121C814.734 85.398 814.913 85.4016 815.066 85.4306C815.219 85.4598 815.336 85.5127 815.412 85.5884L815.588 85.4116ZM817 85.875C816.843 85.875 816.579 85.8512 816.307 85.7792C816.033 85.7066 815.766 85.5891 815.588 85.4116L815.412 85.5884C815.634 85.8109 815.95 85.9434 816.243 86.0208C816.538 86.0988 816.823 86.125 817 86.125V85.875ZM818.056 86.3882L817.056 85.8882L816.944 86.1118L817.944 86.6118L818.056 86.3882ZM818.556 86.8882C818.358 86.7895 818.222 86.7109 818.131 86.6495C818.036 86.5853 818.002 86.5478 817.994 86.5348C817.991 86.5297 818.002 86.544 817.998 86.5708C817.993 86.6016 817.974 86.6195 817.965 86.6259C817.955 86.6321 817.962 86.625 818 86.625V86.375C817.954 86.375 817.882 86.3804 817.826 86.4179C817.793 86.4399 817.759 86.4781 817.75 86.5346C817.743 86.5872 817.761 86.6328 817.781 86.6652C817.819 86.7272 817.892 86.7897 817.991 86.8568C818.095 86.9266 818.242 87.0106 818.444 87.1118L818.556 86.8882ZM820.375 87C820.375 87.074 820.342 87.1293 820.266 87.1727C820.183 87.2201 820.052 87.25 819.875 87.25C819.524 87.25 819.043 87.1319 818.556 86.8882L818.444 87.1118C818.957 87.3681 819.476 87.5 819.875 87.5C820.073 87.5 820.254 87.4674 820.39 87.3898C820.533 87.3082 820.625 87.176 820.625 87H820.375ZM821.96 85.8814C821.705 85.9664 821.322 86.1195 821 86.3041C820.84 86.3961 820.689 86.4991 820.577 86.6091C820.468 86.7159 820.375 86.8487 820.375 87H820.625C820.625 86.9513 820.657 86.88 820.752 86.7877C820.842 86.6988 820.973 86.6081 821.125 86.5209C821.428 86.3471 821.795 86.2002 822.04 86.1186L821.96 85.8814ZM824 86.875C823.632 86.875 823.238 86.7205 822.888 86.5169C822.54 86.3144 822.248 86.0713 822.088 85.9116L821.912 86.0884C822.085 86.2621 822.394 86.5189 822.762 86.7331C823.129 86.9462 823.568 87.125 824 87.125V86.875ZM827.03 87.3787C826.695 87.2948 826.142 87.1693 825.573 87.0646C825.005 86.9603 824.412 86.875 824 86.875V87.125C824.388 87.125 824.961 87.2064 825.527 87.3104C826.091 87.4141 826.639 87.5385 826.97 87.6213L827.03 87.3787ZM827.5 86.875C827.293 86.875 827.136 86.8963 827.02 86.9366C826.904 86.977 826.815 87.0419 826.773 87.1372C826.731 87.232 826.749 87.3275 826.78 87.4008C826.812 87.4742 826.862 87.5391 826.912 87.5884L827.088 87.4116C827.054 87.3775 827.026 87.3383 827.01 87.3023C826.995 87.2663 826.998 87.2471 827.002 87.2378C827.006 87.2289 827.023 87.2001 827.102 87.1728C827.181 87.1454 827.307 87.125 827.5 87.125V86.875ZM828.625 87.5C828.625 87.2262 828.324 86.875 827.5 86.875V87.125C828.277 87.125 828.375 87.4405 828.375 87.5H828.625ZM830 87.375H828.5V87.625H830V87.375ZM831 88.5456C830.94 88.5456 830.865 88.5157 830.776 88.4448C830.689 88.375 830.599 88.2747 830.513 88.1576C830.341 87.9235 830.196 87.6399 830.115 87.4509L829.885 87.5491C829.971 87.7503 830.125 88.052 830.312 88.3056C830.405 88.4323 830.509 88.5516 830.621 88.6403C830.73 88.7279 830.86 88.7956 831 88.7956V88.5456ZM832.986 88.3758C832.483 88.433 831.391 88.5456 831 88.5456V88.7956C831.409 88.7956 832.517 88.6807 833.014 88.6242L832.986 88.3758ZM834.5 88.375H833V88.625H834.5V88.375ZM835 87.375C834.784 87.375 834.614 87.4199 834.49 87.5067C834.362 87.5951 834.294 87.7182 834.265 87.8481C834.211 88.0976 834.3 88.3792 834.388 88.5559L834.612 88.4441C834.534 88.2875 834.473 88.069 834.51 87.9019C834.527 87.8235 834.565 87.759 834.632 87.712C834.702 87.6634 834.816 87.625 835 87.625V87.375ZM836.5 87.375H835V87.625H836.5V87.375ZM838.088 88.9116L836.588 87.4116L836.412 87.5884L837.912 89.0884L838.088 88.9116ZM838.5 89.875C838.316 89.875 838.202 89.8366 838.132 89.788C838.065 89.741 838.027 89.6765 838.01 89.5981C837.973 89.431 838.034 89.2125 838.112 89.0559L837.888 88.9441C837.8 89.1208 837.711 89.4024 837.765 89.6519C837.794 89.7818 837.862 89.9049 837.99 89.9933C838.114 90.0801 838.284 90.125 838.5 90.125V89.875ZM840.088 90.4116C839.898 90.221 839.333 89.875 838.5 89.875V90.125C839.268 90.125 839.769 90.4456 839.912 90.5884L840.088 90.4116ZM841.5 90.375H840V90.625H841.5V90.375ZM842.96 89.8814L841.46 90.3814L841.54 90.6186L843.04 90.1186L842.96 89.8814ZM843.381 88.4605L842.881 89.9605L843.119 90.0395L843.619 88.5395L843.381 88.4605ZM843.375 87.5V88.5H843.625V87.5H843.375ZM846.412 87.9116C846.35 87.9728 846.212 88.0146 845.981 88.0125C845.759 88.0105 845.484 87.9688 845.19 87.903C844.602 87.7716 843.959 87.549 843.546 87.3839L843.454 87.6161C843.874 87.7843 844.531 88.0117 845.135 88.147C845.437 88.2145 845.731 88.2603 845.979 88.2625C846.217 88.2646 846.45 88.2272 846.588 88.0884L846.412 87.9116ZM848.431 86.396C848.179 86.5635 847.778 86.8395 847.389 87.1241C847.002 87.407 846.619 87.7039 846.412 87.9116L846.588 88.0884C846.781 87.8961 847.148 87.6097 847.536 87.3259C847.922 87.0438 848.321 86.7699 848.569 86.604L848.431 86.396ZM848.375 85.5V86.5H848.625V85.5H848.375ZM850.061 84.9303C850.01 85.005 849.922 85.074 849.798 85.1346C849.676 85.1946 849.527 85.242 849.37 85.2782C849.054 85.3506 848.714 85.375 848.5 85.375V85.625C848.729 85.625 849.087 85.5994 849.425 85.5218C849.595 85.483 849.763 85.4304 849.908 85.3591C850.052 85.2885 850.184 85.195 850.268 85.0697L850.061 84.9303ZM851.931 83.396C851.679 83.564 851.284 83.8408 850.918 84.1265C850.736 84.2693 850.559 84.4152 850.41 84.5516C850.263 84.6863 850.136 84.8174 850.061 84.9303L850.268 85.0697C850.327 84.9826 850.434 84.8679 850.579 84.7359C850.721 84.6056 850.892 84.4641 851.072 84.3235C851.432 84.0425 851.821 83.7693 852.069 83.604L851.931 83.396ZM851.5 81.875C851.389 81.875 851.291 81.8921 851.213 81.9334C851.13 81.9769 851.075 82.0446 851.05 82.129C851.027 82.2087 851.034 82.2934 851.053 82.3727C851.073 82.4529 851.108 82.5368 851.152 82.6202C851.323 82.9501 851.659 83.336 851.912 83.5884L852.088 83.4116C851.841 83.164 851.527 82.7999 851.373 82.5048C851.336 82.432 851.31 82.3674 851.296 82.3129C851.283 82.2574 851.284 82.221 851.29 82.1991C851.295 82.182 851.305 82.1676 851.33 82.1545C851.359 82.1392 851.411 82.125 851.5 82.125V81.875ZM853.556 82.3882C853.214 82.2172 852.327 81.875 851.5 81.875V82.125C852.273 82.125 853.119 82.4495 853.444 82.6118L853.556 82.3882ZM854.9 80.425L853.4 82.425L853.6 82.575L855.1 80.575L854.9 80.425ZM855.381 78.9605L854.881 80.4605L855.119 80.5395L855.619 79.0395L855.381 78.9605ZM854.879 77.0303L855.379 79.0303L855.621 78.9697L855.121 76.9697L854.879 77.0303ZM855.944 75.8882C855.532 76.0943 855.267 76.3124 855.104 76.5073C854.944 76.6985 854.875 76.8762 854.875 77H855.125C855.125 76.9572 855.156 76.8348 855.296 76.6677C855.433 76.5042 855.668 76.3057 856.056 76.1118L855.944 75.8882ZM857.388 74.4441C857.229 74.7625 856.712 75.5042 855.944 75.8882L856.056 76.1118C856.888 75.6958 857.438 74.9042 857.612 74.5559L857.388 74.4441ZM858 73.375C857.784 73.375 857.614 73.4199 857.49 73.5067C857.362 73.5951 857.294 73.7182 857.265 73.8481C857.211 74.0976 857.3 74.3792 857.388 74.5559L857.612 74.4441C857.534 74.2875 857.473 74.069 857.51 73.9019C857.527 73.8235 857.565 73.759 857.632 73.712C857.702 73.6634 857.816 73.625 858 73.625V73.375ZM859.388 72.4441C859.312 72.5963 859.148 72.832 858.908 73.0283C858.67 73.2238 858.364 73.375 858 73.375V73.625C858.437 73.625 858.797 73.4428 859.067 73.2217C859.336 73.0014 859.521 72.7371 859.612 72.5559L859.388 72.4441ZM858.881 71.0395L859.381 72.5395L859.619 72.4605L859.119 70.9605L858.881 71.0395ZM858 68.875C857.958 68.875 857.913 68.8837 857.872 68.9104C857.829 68.9379 857.803 68.9774 857.789 69.0188C857.764 69.0931 857.777 69.1783 857.796 69.2508C857.837 69.4031 857.935 69.6026 858.054 69.8119C858.295 70.2351 858.649 70.7398 858.9 71.075L859.1 70.925C858.851 70.5935 858.505 70.0983 858.271 69.6881C858.153 69.4808 858.07 69.3053 858.038 69.1867C858.03 69.158 858.027 69.1358 858.026 69.1194C858.025 69.1024 858.027 69.0968 858.026 69.0984C858.025 69.102 858.02 69.1122 858.008 69.1199C857.998 69.1267 857.992 69.125 858 69.125V68.875ZM859.931 67.896C859.683 68.0611 859.286 68.3089 858.903 68.5149C858.712 68.618 858.525 68.7094 858.364 68.7748C858.198 68.842 858.074 68.875 858 68.875V69.125C858.126 69.125 858.289 69.0747 858.458 69.0065C858.631 68.9364 858.826 68.8404 859.022 68.7351C859.414 68.5244 859.817 68.2723 860.069 68.104L859.931 67.896ZM860.912 68.4116C860.832 68.4917 860.761 68.5138 860.701 68.5125C860.637 68.5112 860.565 68.4824 860.487 68.4247C860.33 68.3079 860.191 68.1024 860.112 67.9441L859.888 68.0559C859.976 68.2309 860.136 68.4754 860.338 68.6253C860.44 68.701 860.561 68.7597 860.696 68.7625C860.835 68.7654 860.968 68.7083 861.088 68.5884L860.912 68.4116ZM861.375 67C861.375 67.1567 861.351 67.4209 861.279 67.693C861.207 67.9671 861.089 68.2342 860.912 68.4116L861.088 68.5884C861.311 68.3658 861.443 68.0496 861.521 67.757C861.599 67.4624 861.625 67.1766 861.625 67H861.375ZM860.877 64.0205L861.377 67.0205L861.623 66.9795L861.123 63.9795L860.877 64.0205ZM859.888 62.0559L860.888 64.0559L861.112 63.9441L860.112 61.9441L859.888 62.0559ZM859.381 60.5395L859.881 62.0395L860.119 61.9605L859.619 60.4605L859.381 60.5395ZM860.412 60.4116C860.24 60.5828 860.073 60.6119 859.933 60.5891C859.785 60.5651 859.658 60.4808 859.588 60.4116L859.412 60.5884C859.509 60.6859 859.682 60.8016 859.892 60.8359C860.111 60.8714 860.36 60.8172 860.588 60.5884L860.412 60.4116ZM860.379 58.0303C860.461 58.3584 860.559 58.8755 860.588 59.3574C860.602 59.5986 860.599 59.8262 860.569 60.0149C860.538 60.2075 860.483 60.3399 860.412 60.4116L860.588 60.5884C860.717 60.4601 860.783 60.2633 860.816 60.0539C860.849 59.8405 860.852 59.5931 860.837 59.3426C860.808 58.8412 860.706 58.3083 860.621 57.9697L860.379 58.0303ZM861.396 56.4307L860.396 57.9307L860.604 58.0693L861.604 56.5693L861.396 56.4307ZM859.412 54.5884L861.412 56.5884L861.588 56.4116L859.588 54.4116L859.412 54.5884ZM859.888 53.4441L859.388 54.4441L859.612 54.5559L860.112 53.5559L859.888 53.4441ZM857.454 52.6161L859.954 53.6161L860.046 53.3839L857.546 52.3839L857.454 52.6161ZM856.5 52.125C856.668 52.125 856.854 52.1962 857.025 52.2956C857.194 52.3939 857.335 52.5121 857.412 52.5884L857.588 52.4116C857.498 52.3213 857.34 52.1894 857.15 52.0794C856.963 51.9705 856.732 51.875 856.5 51.875V52.125ZM854.896 50.5693C855.065 50.8228 855.344 51.2031 855.632 51.5215C855.777 51.6804 855.926 51.8273 856.068 51.9354C856.204 52.039 856.356 52.125 856.5 52.125V51.875C856.444 51.875 856.35 51.836 856.22 51.7365C856.095 51.6415 855.957 51.5071 855.818 51.3535C855.54 51.0469 855.268 50.6772 855.104 50.4307L854.896 50.5693ZM852.475 50.1226L854.975 50.6226L855.025 50.3774L852.525 49.8774L852.475 50.1226ZM850.5 50.125H852.5V49.875H850.5V50.125ZM850.375 48.5V50H850.625V48.5H850.375ZM851.412 47.4116L850.412 48.4116L850.588 48.5884L851.588 47.5884L851.412 47.4116ZM852.412 47.4116C852.24 47.5828 852.073 47.6119 851.933 47.5891C851.785 47.5651 851.658 47.4808 851.588 47.4116L851.412 47.5884C851.509 47.6859 851.682 47.8016 851.892 47.8359C852.111 47.8714 852.36 47.8172 852.588 47.5884L852.412 47.4116ZM852.177 46.2743C852.304 46.5082 852.427 46.7376 852.484 46.9453C852.54 47.1504 852.523 47.3007 852.412 47.4116L852.588 47.5884C852.791 47.3854 852.792 47.1234 852.725 46.8794C852.659 46.6381 852.52 46.3817 852.397 46.1551L852.177 46.2743ZM851.875 45.5C851.875 45.62 851.919 45.7501 851.973 45.8749C852.029 46.002 852.104 46.139 852.177 46.2743L852.397 46.1551C852.322 46.0173 852.253 45.89 852.202 45.7745C852.151 45.6568 852.125 45.5661 852.125 45.5H851.875ZM851.875 43.5V45.5H852.125V43.5H851.875ZM850.912 42.5884L851.912 43.5884L852.088 43.4116L851.088 42.4116L850.912 42.5884ZM849.944 42.1118L850.944 42.6118L851.056 42.3882L850.056 41.8882L849.944 42.1118ZM849.588 42.5884L850.088 42.0884L849.912 41.9116L849.412 42.4116L849.588 42.5884ZM849.375 40V42.5H849.625V40H849.375ZM848.412 39.0884L849.412 40.0884L849.588 39.9116L848.588 38.9116L848.412 39.0884ZM847.912 38.5884L848.412 39.0884L848.588 38.9116L848.088 38.4116L847.912 38.5884ZM847.875 36V38.5H848.125V36H847.875ZM846.412 35.5884C846.634 35.8109 846.95 35.9434 847.243 36.0208C847.538 36.0988 847.823 36.125 848 36.125V35.875C847.843 35.875 847.579 35.8512 847.307 35.7792C847.033 35.7066 846.766 35.5891 846.588 35.4116L846.412 35.5884ZM845.381 33.5395C845.466 33.7932 845.618 34.1976 845.799 34.59C845.978 34.9774 846.194 35.3711 846.412 35.5884L846.588 35.4116C846.406 35.2289 846.205 34.8726 846.026 34.485C845.849 34.1024 845.701 33.7068 845.619 33.4605L845.381 33.5395ZM846.444 32.8882L845.444 33.3882L845.556 33.6118L846.556 33.1118L846.444 32.8882ZM846.881 31.4605L846.381 32.9605L846.619 33.0395L847.119 31.5395L846.881 31.4605ZM845.912 30.5884L846.912 31.5884L847.088 31.4116L846.088 30.4116L845.912 30.5884ZM843.475 30.1226L845.975 30.6226L846.025 30.3774L843.525 29.8774L843.475 30.1226ZM842.412 28.0884C842.594 28.2711 842.795 28.6274 842.974 29.015C843.151 29.3976 843.299 29.7932 843.381 30.0395L843.619 29.9605C843.534 29.7068 843.382 29.3024 843.201 28.91C843.022 28.5226 842.806 28.1289 842.588 27.9116L842.412 28.0884ZM841 27.625C841.157 27.625 841.421 27.6488 841.693 27.7208C841.967 27.7934 842.234 27.9109 842.412 28.0884L842.588 27.9116C842.366 27.6891 842.05 27.5566 841.757 27.4792C841.462 27.4012 841.177 27.375 841 27.375V27.625ZM839.888 25.5559L840.888 27.5559L841.112 27.4441L840.112 25.4441L839.888 25.5559ZM839.5 25.125C839.659 25.125 839.747 25.1886 839.799 25.2605C839.855 25.3389 839.875 25.4367 839.875 25.5H840.125C840.125 25.3967 840.095 25.2444 840.001 25.1145C839.903 24.9781 839.741 24.875 839.5 24.875V25.125ZM837.46 24.6186C837.712 24.7025 838.115 24.8283 838.505 24.9332C838.889 25.0365 839.281 25.125 839.5 25.125V24.875C839.32 24.875 838.961 24.7969 838.57 24.6918C838.185 24.5884 837.788 24.4641 837.54 24.3814L837.46 24.6186ZM835.893 22.0643L837.393 24.5643L837.607 24.4357L836.107 21.9357L835.893 22.0643ZM834.46 21.6186L835.96 22.1186L836.04 21.8814L834.54 21.3814L834.46 21.6186ZM831.46 20.6186L834.46 21.6186L834.54 21.3814L831.54 20.3814L831.46 20.6186ZM830.412 19.5884L831.412 20.5884L831.588 20.4116L830.588 19.4116L830.412 19.5884ZM829.052 20.5216C829.071 20.6311 829.104 20.725 829.16 20.793C829.22 20.8672 829.302 20.9036 829.393 20.8999C829.475 20.8965 829.554 20.8605 829.623 20.816C829.693 20.7703 829.765 20.7085 829.835 20.6382C830.113 20.3596 830.415 19.898 830.608 19.5623L830.392 19.4377C830.201 19.7687 829.912 20.2071 829.658 20.4618C829.595 20.5248 829.538 20.5734 829.487 20.6059C829.435 20.6395 829.401 20.6493 829.382 20.6501C829.372 20.6505 829.365 20.6494 829.354 20.6351C829.337 20.6146 829.314 20.5689 829.298 20.4784L829.052 20.5216ZM828.412 19.0884C828.56 19.2362 828.916 19.746 829.052 20.5216L829.298 20.4784C829.154 19.654 828.774 19.0971 828.588 18.9116L828.412 19.0884ZM827.5 19.125H828.5V18.875H827.5V19.125ZM825.931 18.104L827.431 19.104L827.569 18.896L826.069 17.896L825.931 18.104ZM823.925 16.6L825.925 18.1L826.075 17.9L824.075 16.4L823.925 16.6ZM824 15.625C824.033 15.625 824.049 15.6317 824.058 15.6366C824.065 15.6411 824.072 15.6481 824.079 15.6625C824.095 15.6968 824.102 15.7609 824.089 15.8577C824.062 16.0465 823.969 16.2825 823.888 16.4441L824.112 16.5559C824.198 16.3842 824.304 16.1202 824.336 15.8923C824.352 15.7808 824.353 15.6573 824.305 15.5563C824.28 15.5029 824.242 15.4553 824.186 15.422C824.131 15.3891 824.067 15.375 824 15.375V15.625ZM822 15.625H824V15.375H822V15.625ZM820.875 16.5C820.875 16.5324 820.878 16.5666 820.889 16.5989C820.899 16.6316 820.92 16.6696 820.96 16.6961C821.041 16.7511 821.129 16.714 821.168 16.6932C821.259 16.6451 821.366 16.5372 821.469 16.4199C821.683 16.1762 821.936 15.8209 822.104 15.5693L821.896 15.4307C821.73 15.6791 821.484 16.0238 821.281 16.2551C821.176 16.3753 821.096 16.4486 821.051 16.4724C821.022 16.4876 821.055 16.4591 821.099 16.4887C821.12 16.5025 821.126 16.5192 821.126 16.5215C821.127 16.5232 821.125 16.5176 821.125 16.5H820.875ZM819.46 15.6186C819.705 15.7002 820.072 15.8471 820.375 16.0209C820.527 16.1081 820.658 16.1988 820.748 16.2877C820.843 16.38 820.875 16.4513 820.875 16.5H821.125C821.125 16.3487 821.032 16.2159 820.923 16.1091C820.811 15.9991 820.66 15.8961 820.5 15.8041C820.178 15.6195 819.795 15.4664 819.54 15.3814L819.46 15.6186ZM818.5 15.625H819.5V15.375H818.5V15.625ZM818.088 16.0884L818.588 15.5884L818.412 15.4116L817.912 15.9116L818.088 16.0884ZM815.422 14.0976L817.922 16.0976L818.078 15.9024L815.578 13.9024L815.422 14.0976ZM813.5 14.125H815.5V13.875H813.5V14.125ZM811.425 12.6L813.425 14.1L813.575 13.9L811.575 12.4L811.425 12.6ZM810 12.625H811.5V12.375H810V12.625ZM808.412 13.0884C808.672 13.349 809.036 13.2755 809.328 13.1381C809.629 12.9966 809.916 12.7612 810.088 12.5884L809.912 12.4116C809.751 12.5721 809.488 12.7867 809.222 12.9119C808.947 13.0412 808.728 13.051 808.588 12.9116L808.412 13.0884ZM806.5 12.625C806.744 12.625 807.135 12.6495 807.514 12.7227C807.703 12.7593 807.885 12.8075 808.043 12.8695C808.203 12.932 808.329 13.0054 808.412 13.0884L808.588 12.9116C808.471 12.7946 808.31 12.7055 808.135 12.6368C807.958 12.5675 807.76 12.5157 807.561 12.4773C807.165 12.4005 806.756 12.375 806.5 12.375V12.625ZM805.412 13.0884C805.532 13.2083 805.665 13.2654 805.804 13.2625C805.939 13.2597 806.06 13.201 806.162 13.1253C806.364 12.9754 806.524 12.7309 806.612 12.5559L806.388 12.4441C806.309 12.6024 806.17 12.8079 806.013 12.9247C805.935 12.9824 805.863 13.0112 805.799 13.0125C805.739 13.0138 805.668 12.9917 805.588 12.9116L805.412 13.0884ZM804.5 12.625C804.633 12.625 805.035 12.7114 805.412 13.0884L805.588 12.9116C805.165 12.4886 804.701 12.375 804.5 12.375V12.625ZM803.412 11.5884L804.412 12.5884L804.588 12.4116L803.588 11.4116L803.412 11.5884ZM801.96 11.1186L803.46 11.6186L803.54 11.3814L802.04 10.8814L801.96 11.1186ZM800.912 10.0884L801.912 11.0884L802.088 10.9116L801.088 9.91161L800.912 10.0884ZM800.056 10.6118L801.056 10.1118L800.944 9.8882L799.944 10.3882L800.056 10.6118ZM798.431 9.60401L799.931 10.604L800.069 10.396L798.569 9.39599L798.431 9.60401ZM797.412 8.08839C797.796 8.47301 798.222 9.22372 798.388 9.55589L798.612 9.44411C798.445 9.10961 798.004 8.32699 797.588 7.91161L797.412 8.08839ZM796.388 6.55591C796.555 6.89039 796.996 7.673 797.412 8.08838L797.588 7.91162C797.204 7.527 796.778 6.77628 796.612 6.44409L796.388 6.55591ZM795.04 7.11859L796.54 6.61859L796.46 6.38141L794.96 6.88141L795.04 7.11859ZM794 7.625C794.824 7.625 795.125 7.27379 795.125 7H794.875C794.875 7.05955 794.777 7.375 794 7.375V7.625ZM792.898 7.28835C792.999 7.35964 793.121 7.44644 793.296 7.51324C793.472 7.58018 793.694 7.625 794 7.625V7.375C793.72 7.375 793.528 7.33403 793.386 7.27966C793.243 7.22513 793.143 7.15508 793.043 7.08423L792.898 7.28835ZM792.5 7.125C792.664 7.125 792.756 7.18797 792.898 7.28836L793.043 7.08423C792.9 6.9836 792.75 6.875 792.5 6.875V7.125ZM792.125 6.75C792.125 6.80171 792.121 6.90674 792.177 6.99121C792.243 7.08964 792.359 7.125 792.5 7.125V6.875C792.447 6.875 792.417 6.86819 792.401 6.86202C792.387 6.85672 792.385 6.85255 792.385 6.85254C792.384 6.85062 792.38 6.84385 792.378 6.82528C792.375 6.80569 792.375 6.78299 792.375 6.75H792.125ZM792 6.625C792.053 6.625 792.083 6.63181 792.099 6.63798C792.113 6.64328 792.115 6.64745 792.115 6.64746C792.116 6.64938 792.12 6.65615 792.122 6.67472C792.125 6.69431 792.125 6.71701 792.125 6.75H792.375C792.375 6.69829 792.379 6.59326 792.323 6.50879C792.257 6.41036 792.141 6.375 792 6.375V6.625ZM789.5 6.625H792V6.375H789.5V6.625ZM787.944 6.11181C788.114 6.19687 788.394 6.32381 788.682 6.42982C788.965 6.53397 789.276 6.625 789.5 6.625V6.375C789.325 6.375 789.052 6.29936 788.768 6.19518C788.49 6.09286 788.219 5.9698 788.056 5.88819L787.944 6.11181ZM785 6.125H788V5.875H785V6.125ZM784.5 5.625C784.659 5.625 784.747 5.68856 784.799 5.76054C784.855 5.83889 784.875 5.93666 784.875 6H785.125C785.125 5.89667 785.095 5.74445 785.001 5.61446C784.903 5.47811 784.741 5.375 784.5 5.375V5.625ZM783 5.625H784.5V5.375H783V5.625ZM782.412 5.08839L782.912 5.58839L783.088 5.41161L782.588 4.91161L782.412 5.08839ZM782.112 6.0559L782.612 5.0559L782.388 4.9441L781.888 5.9441L782.112 6.0559ZM780.46 5.61859L781.96 6.11859L782.04 5.88141L780.54 5.38141L780.46 5.61859ZM779 5.625H780.5V5.375H779V5.625ZM778.056 6.1118L779.056 5.6118L778.944 5.3882L777.944 5.8882L778.056 6.1118ZM776.46 5.61859L777.96 6.11859L778.04 5.88141L776.54 5.38141L776.46 5.61859ZM775.457 6.11731C775.736 6.22008 775.958 6.26486 776.133 6.26249C776.31 6.2601 776.448 6.20904 776.542 6.11194C776.635 6.0161 776.668 5.89278 776.672 5.77928C776.676 5.66591 776.651 5.55196 776.618 5.45778L776.382 5.54222C776.408 5.61471 776.425 5.69659 776.422 5.77072C776.42 5.84472 776.399 5.90056 776.363 5.93806C776.328 5.9743 776.261 6.01074 776.13 6.01251C775.997 6.01431 775.807 5.97992 775.543 5.88269L775.457 6.11731ZM771 5.625C771.52 5.625 772.37 5.64989 773.224 5.72453C774.082 5.7995 774.93 5.92362 775.457 6.11731L775.543 5.88269C774.982 5.67638 774.104 5.5505 773.246 5.47547C772.384 5.40011 771.527 5.375 771 5.375V5.625ZM770.612 6.5559L771.112 5.5559L770.888 5.4441L770.388 6.4441L770.612 6.5559ZM769.43 7.59438L770.582 6.59438L770.418 6.40562L769.266 7.40562L769.43 7.59438ZM768.375 8C768.375 8.06056 768.385 8.1269 768.424 8.18031C768.469 8.24239 768.535 8.26467 768.597 8.26242C768.653 8.26041 768.706 8.23968 768.751 8.21671C768.798 8.19276 768.846 8.16064 768.893 8.12479C769.081 7.98302 769.301 7.74959 769.444 7.58086L769.253 7.41914C769.113 7.58375 768.908 7.80032 768.743 7.92521C768.702 7.95602 768.666 7.97912 768.637 7.99423C768.622 8.00171 768.611 8.00653 768.602 8.00941C768.597 8.01083 768.594 8.01164 768.591 8.0121C768.589 8.01256 768.588 8.01259 768.588 8.01258C768.593 8.01241 768.613 8.01594 768.626 8.03375C768.633 8.04289 768.625 8.03944 768.625 8H768.375ZM767.556 8.11181C767.718 8.03099 767.953 7.93773 768.142 7.91129C768.239 7.89774 768.303 7.90486 768.338 7.92097C768.352 7.92772 768.359 7.93499 768.363 7.94247C768.368 7.95061 768.375 7.96736 768.375 8H768.625C768.625 7.93264 768.611 7.86918 768.578 7.81417C768.545 7.7585 768.497 7.71968 768.444 7.69465C768.343 7.64722 768.219 7.64809 768.108 7.66371C767.88 7.6956 767.616 7.80235 767.444 7.88819L767.556 8.11181ZM765.53 8.62127L767.53 8.12127L767.47 7.87873L765.47 8.37873L765.53 8.62127ZM763.5 8.625H765.5V8.375H763.5V8.625ZM762.5 9.125C762.732 9.125 762.963 9.02954 763.15 8.92056C763.34 8.81055 763.498 8.67874 763.588 8.58838L763.412 8.41162C763.335 8.48792 763.194 8.60611 763.025 8.70444C762.854 8.80379 762.668 8.875 762.5 8.875V9.125ZM762.125 10C762.125 9.84209 762.149 9.60762 762.218 9.41734C762.289 9.21787 762.386 9.125 762.5 9.125V8.875C762.214 8.875 762.061 9.11546 761.982 9.33266C761.901 9.55905 761.875 9.82458 761.875 10H762.125ZM760.625 10C760.625 9.97849 760.631 9.96876 760.637 9.96178C760.646 9.95231 760.664 9.93882 760.701 9.92711C760.779 9.90293 760.899 9.89779 761.051 9.91196C761.35 9.93988 761.715 10.0367 761.96 10.1186L762.04 9.88141C761.785 9.79662 761.4 9.69346 761.074 9.66304C760.913 9.64804 760.753 9.64915 760.627 9.68851C760.563 9.70858 760.499 9.74118 760.451 9.79486C760.401 9.85103 760.375 9.92151 760.375 10H760.625ZM760.088 11.0884C760.179 10.998 760.311 10.8395 760.421 10.6503C760.53 10.4629 760.625 10.2319 760.625 10H760.375C760.375 10.1681 760.304 10.3538 760.204 10.5247C760.106 10.6938 759.988 10.8353 759.912 10.9116L760.088 11.0884ZM758.5 11.625C758.724 11.625 759.035 11.534 759.318 11.4298C759.607 11.3238 759.886 11.1969 760.056 11.1118L759.944 10.8882C759.781 10.9698 759.51 11.0929 759.232 11.1952C758.948 11.2994 758.676 11.375 758.5 11.375V11.625ZM757 11.625H758.5V11.375H757V11.625ZM755.199 11.1161C755.411 11.2004 755.753 11.3266 756.093 11.4319C756.427 11.5354 756.778 11.625 757 11.625V11.375C756.822 11.375 756.505 11.2979 756.167 11.1931C755.834 11.0901 755.498 10.9662 755.292 10.8839L755.199 11.1161ZM754.078 12.0975L755.324 11.0975L755.167 10.9025L753.922 11.9025L754.078 12.0975ZM751.546 13.1161L754.046 12.1161L753.954 11.8839L751.454 12.8839L751.546 13.1161ZM751.625 13.5V13H751.375V13.5H751.625ZM750.069 14.604L751.569 13.604L751.431 13.396L749.931 14.396L750.069 14.604ZM749 15.125C749.305 15.125 749.537 15.1039 749.711 15.0677C749.883 15.032 750.01 14.9793 750.094 14.9072C750.184 14.8298 750.221 14.7313 750.207 14.6308C750.194 14.5396 750.141 14.4641 750.088 14.4116L749.912 14.5884C749.943 14.6193 749.956 14.6479 749.959 14.6661C749.96 14.675 749.962 14.6911 749.931 14.7178C749.894 14.7499 749.814 14.791 749.661 14.8229C749.509 14.8544 749.295 14.875 749 14.875V15.125ZM747 15.125H749V14.875H747V15.125ZM746.612 16.0559L747.112 15.0559L746.888 14.9441L746.388 15.9441L746.612 16.0559ZM745.556 16.6118L746.556 16.1118L746.444 15.8882L745.444 16.3882L745.556 16.6118ZM744.588 15.5884C744.626 15.5507 744.657 15.5349 744.681 15.5288C744.705 15.523 744.73 15.5241 744.759 15.5348C744.824 15.5582 744.903 15.625 744.988 15.7378C745.155 15.9596 745.3 16.2949 745.381 16.5395L745.619 16.4605C745.533 16.2051 745.378 15.8404 745.187 15.5872C745.093 15.4625 744.978 15.3481 744.844 15.2996C744.774 15.2743 744.698 15.2669 744.62 15.2864C744.544 15.3058 744.474 15.3493 744.412 15.4116L744.588 15.5884ZM744.112 16.3059C744.237 16.0559 744.354 15.8226 744.588 15.5884L744.412 15.4116C744.146 15.6774 744.013 15.9441 743.888 16.1941L744.112 16.3059ZM743.588 17.0884C743.854 16.8226 743.987 16.5559 744.112 16.3059L743.888 16.1941C743.763 16.4441 743.646 16.6774 743.412 16.9116L743.588 17.0884ZM742 17.625C742.177 17.625 742.462 17.5988 742.757 17.5208C743.05 17.4434 743.366 17.3109 743.588 17.0884L743.412 16.9116C743.234 17.0891 742.967 17.2066 742.693 17.2792C742.421 17.3512 742.157 17.375 742 17.375V17.625ZM741.612 18.5559L742.112 17.5559L741.888 17.4441L741.388 18.4441L741.612 18.5559ZM740.5 18.625H741.5V18.375H740.5V18.625ZM740.016 19.0206C740.1 18.8843 740.161 18.7874 740.234 18.7208C740.3 18.6613 740.376 18.625 740.5 18.625V18.375C740.315 18.375 740.178 18.4342 740.066 18.5361C739.962 18.631 739.882 18.7616 739.804 18.8892L740.016 19.0206ZM739.588 19.5884C739.791 19.3861 739.915 19.1839 740.016 19.0206L739.804 18.8892C739.703 19.0522 739.591 19.2319 739.412 19.4116L739.588 19.5884ZM738.056 20.6118C738.39 20.4446 739.173 20.0038 739.588 19.5884L739.412 19.4116C739.027 19.7962 738.276 20.2221 737.944 20.3882L738.056 20.6118ZM736.625 21C736.625 20.9605 736.648 20.9126 736.732 20.8581C736.816 20.8037 736.941 20.7577 737.092 20.7215C737.391 20.6496 737.756 20.625 738 20.625V20.375C737.744 20.375 737.359 20.4004 737.033 20.4785C736.872 20.5173 736.715 20.5713 736.596 20.6481C736.477 20.7249 736.375 20.8395 736.375 21H736.625ZM737.088 21.9116C737.012 21.8353 736.894 21.6938 736.796 21.5247C736.696 21.3538 736.625 21.1681 736.625 21H736.375C736.375 21.2319 736.47 21.4629 736.579 21.6503C736.689 21.8395 736.821 21.998 736.912 22.0884L737.088 21.9116ZM737 23.625C737.078 23.625 737.149 23.5995 737.205 23.5491C737.259 23.501 737.291 23.4374 737.312 23.3733C737.351 23.2474 737.352 23.0866 737.337 22.9259C737.307 22.6 737.203 22.2148 737.119 21.9605L736.881 22.0395C736.963 22.2852 737.06 22.65 737.088 22.9491C737.102 23.1009 737.097 23.2213 737.073 23.2986C737.061 23.336 737.048 23.3545 737.038 23.363C737.031 23.3693 737.021 23.375 737 23.375V23.625ZM736.128 24.0507C736.217 23.9689 736.356 23.8606 736.515 23.7734C736.675 23.6854 736.845 23.625 737 23.625V23.375C736.786 23.375 736.572 23.4566 736.394 23.5542C736.215 23.6527 736.06 23.7737 735.959 23.8667L736.128 24.0507ZM735.939 23.3888C736.016 23.4316 736.055 23.4743 736.074 23.5099C736.093 23.5444 736.099 23.5804 736.094 23.6194C736.084 23.704 736.024 23.7984 735.953 23.8718L736.133 24.0456C736.22 23.9553 736.322 23.8126 736.342 23.6499C736.353 23.5651 736.341 23.4749 736.293 23.3885C736.245 23.3031 736.168 23.2302 736.061 23.1706L735.939 23.3888ZM734.588 24.0884C734.75 23.9267 735.017 23.6982 735.288 23.5387C735.424 23.4589 735.556 23.3998 735.672 23.3727C735.789 23.3455 735.876 23.3538 735.939 23.3888L736.061 23.1706C735.924 23.0937 735.765 23.0944 735.615 23.1292C735.465 23.1642 735.309 23.2366 735.162 23.3231C734.867 23.4964 734.583 23.74 734.412 23.9116L734.588 24.0884ZM734.119 25.5395L734.619 24.0395L734.381 23.9605L733.881 25.4605L734.119 25.5395ZM734.612 26.0559C734.714 25.851 734.765 25.6869 734.762 25.5583C734.761 25.4915 734.745 25.4284 734.708 25.3753C734.671 25.3215 734.62 25.2879 734.566 25.2693C734.464 25.2343 734.345 25.249 734.245 25.274C734.14 25.3003 734.033 25.3436 733.944 25.3882L734.056 25.6118C734.133 25.573 734.223 25.5372 734.305 25.5166C734.393 25.4948 734.453 25.4949 734.484 25.5057C734.497 25.51 734.501 25.5144 734.503 25.5173C734.505 25.5208 734.512 25.533 734.513 25.5636C734.514 25.6298 734.486 25.749 734.388 25.9441L734.612 26.0559ZM733.588 27.5884C733.766 27.411 734.207 26.8663 734.612 26.0559L734.388 25.9441C733.993 26.7337 733.568 27.2557 733.412 27.4116L733.588 27.5884ZM732.444 27.1118L733.444 27.6118L733.556 27.3882L732.556 26.8882L732.444 27.1118ZM732.112 28.0559L732.612 27.0559L732.388 26.9441L731.888 27.9441L732.112 28.0559ZM731.056 28.6118L732.056 28.1118L731.944 27.8882L730.944 28.3882L731.056 28.6118ZM731.125 29V28.5H730.875V29H731.125ZM732.088 29.9116L731.088 28.9116L730.912 29.0884L731.912 30.0884L732.088 29.9116ZM732.125 31V30H731.875V31H732.125ZM732.5 31.875C732.386 31.875 732.289 31.7821 732.218 31.5827C732.149 31.3924 732.125 31.1579 732.125 31H731.875C731.875 31.1754 731.901 31.4409 731.982 31.6673C732.061 31.8845 732.214 32.125 732.5 32.125V31.875ZM733.125 33C733.125 32.8246 733.099 32.5591 733.018 32.3327C732.939 32.1155 732.786 31.875 732.5 31.875V32.125C732.614 32.125 732.711 32.2179 732.782 32.4173C732.851 32.6076 732.875 32.8421 732.875 33H733.125ZM733.5 32.875H733V33.125H733.5V32.875ZM732.556 33.6118L733.556 33.1118L733.444 32.8882L732.444 33.3882L732.556 33.6118ZM732.121 35.5303L732.621 33.5303L732.379 33.4697L731.879 35.4697L732.121 35.5303ZM732.125 36.5V35.5H731.875V36.5H732.125ZM730.625 37.5C730.625 37.4513 730.657 37.38 730.752 37.2877C730.842 37.1988 730.973 37.1081 731.125 37.0209C731.428 36.8471 731.795 36.7002 732.04 36.6186L731.96 36.3814C731.705 36.4664 731.322 36.6195 731 36.8041C730.84 36.8961 730.689 36.9991 730.577 37.1091C730.468 37.2159 730.375 37.3487 730.375 37.5H730.625ZM730.772 38.3023C730.709 38.1294 730.625 37.9014 730.625 37.5H730.375C730.375 37.9439 730.47 38.2039 730.537 38.3883L730.772 38.3023ZM730.588 39.0884C730.738 38.9387 730.823 38.8117 730.843 38.6734C730.862 38.5393 730.814 38.4164 730.772 38.3023L730.537 38.3883C730.585 38.5182 730.604 38.5783 730.595 38.6384C730.587 38.6942 730.551 38.7727 730.412 38.9116L730.588 39.0884ZM729.619 41.0395C729.701 40.7932 729.849 40.3976 730.026 40.015C730.205 39.6274 730.406 39.2711 730.588 39.0884L730.412 38.9116C730.194 39.1289 729.978 39.5226 729.799 39.91C729.618 40.3024 729.466 40.7068 729.381 40.9605L729.619 41.0395ZM728 41.125H729.5V40.875H728V41.125ZM728.621 42.9697L728.121 40.9697L727.879 41.0303L728.379 43.0303L728.621 42.9697ZM727.588 44.0884L728.588 43.0884L728.412 42.9116L727.412 43.9116L727.588 44.0884ZM726.604 45.5693L727.604 44.0693L727.396 43.9307L726.396 45.4307L726.604 45.5693ZM726.625 47V45.5H726.375V47H726.625ZM725 48.625C725.161 48.625 725.341 48.5473 725.511 48.4422C725.685 48.3346 725.864 48.1875 726.026 48.0259C726.187 47.8643 726.335 47.685 726.442 47.5111C726.547 47.3413 726.625 47.1605 726.625 47H726.375C726.375 47.0895 726.328 47.2212 726.23 47.3795C726.134 47.5338 726 47.6982 725.849 47.8491C725.698 48 725.534 48.1342 725.38 48.2297C725.221 48.3277 725.089 48.375 725 48.375V48.625ZM724.598 48.6562C724.682 48.6266 724.779 48.625 725 48.625V48.375C724.796 48.375 724.648 48.3734 724.515 48.4205L724.598 48.6562ZM724.088 49.0884C724.234 48.9432 724.332 48.8448 724.413 48.7756C724.492 48.7077 724.545 48.675 724.598 48.6562L724.515 48.4205C724.421 48.4537 724.34 48.508 724.25 48.5861C724.16 48.6628 724.054 48.7693 723.912 48.9116L724.088 49.0884ZM723.875 49.5C723.875 49.4386 723.876 49.3973 723.897 49.3433C723.92 49.2867 723.97 49.2069 724.088 49.0884L723.912 48.9116C723.78 49.0431 723.705 49.1508 723.665 49.2505C723.624 49.3527 723.625 49.4364 723.625 49.5H723.875ZM723.588 50.0884C723.72 49.9569 723.795 49.8492 723.835 49.7495C723.876 49.6473 723.875 49.5636 723.875 49.5H723.625C723.625 49.5614 723.624 49.6027 723.603 49.6567C723.58 49.7133 723.53 49.7931 723.412 49.9116L723.588 50.0884ZM722.985 50.5795C723.079 50.5463 723.16 50.492 723.25 50.4139C723.34 50.3372 723.446 50.2307 723.588 50.0884L723.412 49.9116C723.266 50.0568 723.168 50.1552 723.087 50.2244C723.008 50.2923 722.955 50.325 722.902 50.3438L722.985 50.5795ZM722.5 50.625C722.704 50.625 722.852 50.6266 722.985 50.5795L722.902 50.3438C722.818 50.3734 722.721 50.375 722.5 50.375V50.625ZM722.619 51.9605C722.537 51.7148 722.44 51.35 722.412 51.0509C722.398 50.8991 722.403 50.7787 722.427 50.7014C722.439 50.664 722.452 50.6455 722.462 50.637C722.469 50.6307 722.479 50.625 722.5 50.625V50.375C722.422 50.375 722.351 50.4005 722.295 50.4509C722.241 50.499 722.209 50.5626 722.188 50.6267C722.149 50.7526 722.148 50.9134 722.163 51.0741C722.193 51.4 722.297 51.7852 722.381 52.0395L722.619 51.9605ZM721.5 53.625C721.651 53.625 721.784 53.5324 721.891 53.4234C722.001 53.3111 722.104 53.1602 722.196 52.9997C722.38 52.6778 722.534 52.2946 722.619 52.0395L722.381 51.9605C722.3 52.2054 722.153 52.5722 721.979 52.8753C721.892 53.0273 721.801 53.1577 721.712 53.2485C721.62 53.3426 721.549 53.375 721.5 53.375V53.625ZM720.941 53.2014C720.995 53.2856 721.061 53.3902 721.146 53.472C721.234 53.557 721.349 53.625 721.5 53.625V53.375C721.432 53.375 721.376 53.3469 721.32 53.2923C721.26 53.2346 721.209 53.1562 721.152 53.0666L720.941 53.2014ZM720.588 53.0884C720.652 53.0249 720.696 52.999 720.724 52.9896C720.746 52.9821 720.758 52.9847 720.77 52.9906C720.788 52.9991 720.811 53.0186 720.843 53.0578C720.874 53.0966 720.905 53.1444 720.941 53.2014L721.152 53.0666C721.117 53.0124 721.079 52.9527 721.038 52.9016C720.997 52.851 720.946 52.7982 720.88 52.7659C720.808 52.731 720.728 52.7243 720.644 52.7528C720.565 52.7794 720.489 52.8347 720.412 52.9116L720.588 53.0884ZM719.588 54.0884L720.588 53.0884L720.412 52.9116L719.412 53.9116L719.588 54.0884ZM718.107 56.5643L719.607 54.0643L719.393 53.9357L717.893 56.4357L718.107 56.5643ZM717.5 57.625C717.716 57.625 717.886 57.5801 718.01 57.4933C718.138 57.4049 718.206 57.2818 718.235 57.1519C718.289 56.9023 718.2 56.6208 718.112 56.4441L717.888 56.5559C717.966 56.7125 718.027 56.931 717.99 57.0981C717.973 57.1765 717.935 57.241 717.868 57.288C717.798 57.3366 717.684 57.375 717.5 57.375V57.625ZM716.112 58.5559C716.188 58.4037 716.352 58.168 716.592 57.9717C716.83 57.7762 717.136 57.625 717.5 57.625V57.375C717.064 57.375 716.703 57.5572 716.433 57.7783C716.164 57.9986 715.979 58.2629 715.888 58.4441L716.112 58.5559ZM716.125 59.5V58.5H715.875V59.5H716.125ZM715.619 61.0395L716.119 59.5395L715.881 59.4605L715.381 60.9605L715.619 61.0395ZM715.625 62V61H715.375V62H715.625ZM717.125 63.5C717.125 63.3558 717.039 63.2041 716.935 63.068C716.827 62.9261 716.68 62.7765 716.521 62.6324C716.203 62.3437 715.823 62.065 715.569 61.896L715.431 62.104C715.677 62.2684 716.047 62.5396 716.354 62.8176C716.507 62.9568 716.641 63.0948 716.737 63.2195C716.836 63.3501 716.875 63.4442 716.875 63.5H717.125ZM717.119 65.9605C717.038 65.7199 716.941 65.3055 716.912 64.8546C716.884 64.4017 716.926 63.9274 717.112 63.5559L716.888 63.4441C716.674 63.8726 716.633 64.3983 716.663 64.8704C716.693 65.3445 716.795 65.7801 716.881 66.0395L717.119 65.9605ZM717.115 67.4009C717.32 66.9296 717.37 66.5846 717.336 66.3392C717.303 66.0942 717.183 65.9392 717.047 65.8841L716.953 66.1159C716.983 66.1281 717.064 66.1891 717.089 66.3729C717.114 66.5565 717.08 66.8533 716.885 67.3012L717.115 67.4009ZM717.123 70.9755C717.04 70.5642 716.941 69.8882 716.912 69.2025C716.883 68.5109 716.927 67.8323 717.115 67.4009L716.885 67.3012C716.673 67.789 716.633 68.5181 716.663 69.213C716.692 69.9136 716.793 70.6025 716.877 71.0245L717.123 70.9755ZM719.612 71.5559C719.67 71.4397 719.694 71.3247 719.671 71.2157C719.647 71.1051 719.578 71.0208 719.491 70.9589C719.324 70.8407 719.063 70.7861 718.785 70.7629C718.22 70.7158 717.483 70.7927 716.979 70.8767L717.021 71.1233C717.517 71.0406 718.23 70.9675 718.765 71.0121C719.037 71.0348 719.238 71.0864 719.346 71.1629C719.397 71.1985 719.419 71.2337 719.426 71.2683C719.434 71.3045 719.43 71.3603 719.388 71.4441L719.612 71.5559ZM719.612 73.4441C719.455 73.1313 719.236 72.3083 719.612 71.5559L719.388 71.4441C718.964 72.2917 719.211 73.202 719.388 73.5559L719.612 73.4441ZM720.5 74.375C720.434 74.375 720.357 74.3473 720.269 74.2873C720.181 74.2279 720.093 74.1428 720.007 74.0435C719.836 73.8448 719.692 73.6041 719.612 73.4441L719.388 73.5559C719.475 73.7293 719.63 73.9885 719.818 74.2065C719.911 74.3155 720.016 74.418 720.128 74.494C720.239 74.5694 720.366 74.625 720.5 74.625V74.375ZM720.912 74.1616C720.788 74.2853 720.695 74.375 720.5 74.375V74.625C720.805 74.625 720.962 74.4647 721.088 74.3384L720.912 74.1616ZM721.5 73.875C721.195 73.875 721.038 74.0353 720.912 74.1616L721.088 74.3384C721.212 74.2147 721.305 74.125 721.5 74.125V73.875ZM722.125 75C722.125 74.8246 722.099 74.5591 722.018 74.3327C721.939 74.1155 721.786 73.875 721.5 73.875V74.125C721.614 74.125 721.711 74.2179 721.782 74.4173C721.851 74.6076 721.875 74.8421 721.875 75H722.125ZM721.625 76C721.625 75.8319 721.696 75.6462 721.796 75.4753C721.894 75.3062 722.012 75.1647 722.088 75.0884L721.912 74.9116C721.821 75.002 721.689 75.1605 721.579 75.3497C721.47 75.5371 721.375 75.7681 721.375 76H721.625ZM722.604 77.9307C722.439 77.683 722.191 77.2865 721.985 76.9033C721.882 76.7116 721.791 76.5254 721.725 76.364C721.658 76.198 721.625 76.0738 721.625 76H721.375C721.375 76.1262 721.425 76.2895 721.494 76.4579C721.564 76.6309 721.66 76.8259 721.765 77.0217C721.976 77.4135 722.228 77.817 722.396 78.0693L722.604 77.9307ZM724.556 77.8882C723.708 77.4644 722.798 77.7113 722.444 77.8882L722.556 78.1118C722.869 77.9554 723.692 77.7356 724.444 78.1118L724.556 77.8882ZM726.112 79.4441C725.938 79.0958 725.388 78.3042 724.556 77.8882L724.444 78.1118C725.212 78.4958 725.729 79.2375 725.888 79.5559L726.112 79.4441ZM727.5 79.375H726V79.625H727.5V79.375ZM728.556 79.8882L727.556 79.3882L727.444 79.6118L728.444 80.1118L728.556 79.8882ZM729.061 81.2874L728.619 79.9605L728.381 80.0395L728.824 81.3664L729.061 81.2874ZM729.056 81.3882C728.991 81.3559 728.926 81.3215 728.873 81.2905C728.847 81.275 728.824 81.2609 728.806 81.2488C728.787 81.2358 728.779 81.2282 728.776 81.2261C728.775 81.2245 728.781 81.2301 728.787 81.2422C728.793 81.2528 728.81 81.2918 728.789 81.3388C728.769 81.3849 728.729 81.3984 728.72 81.4013C728.708 81.4048 728.701 81.4041 728.705 81.4041C728.713 81.4042 728.732 81.406 728.768 81.4132C728.803 81.4202 728.85 81.4313 728.91 81.4475L728.975 81.2062C728.854 81.1734 728.764 81.1547 728.708 81.1542C728.693 81.154 728.671 81.1549 728.649 81.1615C728.629 81.1674 728.583 81.1856 728.56 81.2378C728.537 81.2907 728.555 81.3372 728.565 81.3564C728.575 81.377 728.589 81.3925 728.599 81.4018C728.633 81.4369 728.692 81.4744 728.747 81.5064C728.807 81.541 728.877 81.578 728.944 81.6118L729.056 81.3882ZM728.824 81.3664L728.881 81.5395L729.119 81.4605L729.061 81.2874L728.824 81.3664ZM729.54 81.3814C729.29 81.2984 729.107 81.2419 728.975 81.2062L728.91 81.4475C729.035 81.4814 729.213 81.5362 729.46 81.6186L729.54 81.3814ZM731.169 81.501C730.975 81.5544 730.806 81.6002 730.57 81.5971C730.331 81.5939 730.017 81.5405 729.54 81.3814L729.46 81.6186C729.952 81.7823 730.293 81.8434 730.566 81.847C730.841 81.8507 731.04 81.7959 731.236 81.7421L731.169 81.501ZM732 81.375C731.628 81.375 731.386 81.4415 731.169 81.501L731.236 81.7421C731.448 81.684 731.663 81.625 732 81.625V81.375ZM733.944 80.8882C733.62 81.0505 732.773 81.375 732 81.375V81.625C732.827 81.625 733.714 81.2828 734.056 81.1118L733.944 80.8882ZM735.588 80.9116C735.349 80.6726 735.011 80.6324 734.712 80.6632C734.411 80.6942 734.121 80.7997 733.944 80.8882L734.056 81.1118C734.212 81.0336 734.473 80.9391 734.738 80.9118C735.006 80.8843 735.251 80.9274 735.412 81.0884L735.588 80.9116ZM737.5 81.375C737.256 81.375 736.865 81.3505 736.486 81.2773C736.297 81.2407 736.115 81.1925 735.957 81.1305C735.797 81.068 735.671 80.9946 735.588 80.9116L735.412 81.0884C735.529 81.2054 735.69 81.2945 735.865 81.3632C736.042 81.4325 736.24 81.4843 736.439 81.5227C736.835 81.5995 737.244 81.625 737.5 81.625V81.375ZM737.5 82.375C737.467 82.375 737.451 82.3683 737.442 82.3634C737.435 82.3589 737.428 82.3519 737.421 82.3375C737.405 82.3032 737.398 82.2391 737.411 82.1423C737.438 81.9535 737.531 81.7175 737.612 81.5559L737.388 81.4441C737.302 81.6158 737.196 81.8798 737.164 82.1077C737.148 82.2192 737.147 82.3427 737.195 82.4437C737.22 82.4971 737.258 82.5447 737.314 82.578C737.369 82.6109 737.433 82.625 737.5 82.625V82.375ZM738.246 82.4528C737.924 82.4115 737.642 82.375 737.5 82.375V82.625C737.622 82.625 737.882 82.6581 738.215 82.7008L738.246 82.4528ZM740.375 82.5C740.375 82.5007 740.377 82.5042 740.363 82.5152C740.345 82.5296 740.308 82.5472 740.245 82.5622C740.12 82.5919 739.936 82.6015 739.711 82.5955C739.266 82.5836 738.705 82.5118 738.246 82.4528L738.215 82.7008C738.67 82.7593 739.244 82.8331 739.705 82.8454C739.934 82.8516 740.145 82.843 740.303 82.8054C740.381 82.7868 740.458 82.7585 740.517 82.7124C740.58 82.663 740.625 82.5913 740.625 82.5H740.375ZM741.412 80.9116C741.242 81.0816 740.987 81.3614 740.774 81.6509C740.668 81.7957 740.57 81.9455 740.498 82.0872C740.428 82.2257 740.375 82.37 740.375 82.5H740.625C740.625 82.43 740.656 82.3285 740.721 82.2003C740.784 82.0753 740.874 81.9377 740.976 81.799C741.179 81.522 741.425 81.2517 741.588 81.0884L741.412 80.9116ZM742.444 80.3882L741.444 80.8882L741.556 81.1118L742.556 80.6118L742.444 80.3882ZM743.056 80.3882C742.854 80.2872 742.706 80.2236 742.6 80.189C742.547 80.1718 742.5 80.1601 742.459 80.1559C742.423 80.1522 742.369 80.1513 742.32 80.182C742.293 80.1995 742.271 80.2251 742.259 80.257C742.247 80.287 742.247 80.3155 742.25 80.3371C742.255 80.3776 742.273 80.4132 742.288 80.4378C742.319 80.4898 742.367 80.5441 742.412 80.5884L742.588 80.4116C742.549 80.3726 742.518 80.3352 742.503 80.3091C742.494 80.2946 742.497 80.2946 742.498 80.3055C742.499 80.3123 742.5 80.3275 742.492 80.3462C742.485 80.3667 742.471 80.3828 742.455 80.393C742.429 80.4091 742.412 80.4024 742.433 80.4046C742.449 80.4063 742.478 80.4121 742.522 80.4267C742.611 80.4556 742.746 80.5128 742.944 80.6118L743.056 80.3882ZM746.475 80.3774C746.064 80.4597 745.395 80.5588 744.732 80.5876C744.401 80.602 744.073 80.5988 743.78 80.5679C743.486 80.5368 743.237 80.4785 743.056 80.3882L742.944 80.6118C743.163 80.7215 743.447 80.784 743.754 80.8165C744.063 80.8491 744.404 80.8521 744.743 80.8374C745.421 80.8079 746.103 80.7069 746.525 80.6226L746.475 80.3774ZM749 80.375H746.5V80.625H749V80.375ZM748.056 81.1118L749.056 80.6118L748.944 80.3882L747.944 80.8882L748.056 81.1118ZM751.5 80.875H748V81.125H751.5V80.875ZM752 81.375C751.841 81.375 751.753 81.3114 751.701 81.2395C751.645 81.1611 751.625 81.0633 751.625 81H751.375C751.375 81.1033 751.405 81.2556 751.499 81.3855C751.597 81.5219 751.759 81.625 752 81.625V81.375ZM752.931 80.896C752.742 81.0218 752.559 81.1434 752.393 81.234C752.223 81.327 752.091 81.375 752 81.375V81.625C752.159 81.625 752.34 81.548 752.513 81.4535C752.691 81.3566 752.883 81.2282 753.069 81.104L752.931 80.896ZM754 80.375C753.841 80.375 753.66 80.452 753.487 80.5465C753.309 80.6434 753.117 80.7718 752.931 80.896L753.069 81.104C753.258 80.9782 753.441 80.8566 753.607 80.766C753.777 80.673 753.909 80.625 754 80.625V80.375ZM754.431 80.1738C754.346 80.2303 754.269 80.2812 754.194 80.3187C754.119 80.3562 754.056 80.375 754 80.375V80.625C754.111 80.625 754.214 80.5883 754.306 80.5424C754.398 80.4966 754.487 80.4364 754.569 80.3818L754.431 80.1738ZM755.612 80.4441C755.438 80.0959 755.238 79.9306 755 79.9306C754.889 79.9306 754.786 79.9673 754.694 80.0132C754.603 80.059 754.513 80.1192 754.431 80.1738L754.569 80.3818C754.654 80.3253 754.731 80.2743 754.806 80.2368C754.881 80.1994 754.944 80.1806 755 80.1806C755.095 80.1806 755.229 80.2374 755.388 80.5559L755.612 80.4441ZM755.894 81.38C755.856 81.1453 755.805 80.8295 755.612 80.4441L755.388 80.5559C755.563 80.9056 755.609 81.1898 755.647 81.42L755.894 81.38ZM756.5 81.875C756.188 81.875 756.07 81.8235 756.013 81.7638C755.984 81.7333 755.961 81.6914 755.943 81.6272C755.923 81.5613 755.91 81.4823 755.894 81.38L755.647 81.42C755.663 81.5177 755.678 81.6137 755.703 81.6978C755.728 81.7836 755.766 81.8667 755.832 81.9362C755.965 82.0765 756.18 82.125 756.5 82.125V81.875ZM757.138 81.4441C757.074 81.5728 757.021 81.6741 756.934 81.7488C756.853 81.8188 756.728 81.875 756.5 81.875V82.125C756.772 82.125 756.96 82.0562 757.097 81.9387C757.229 81.8259 757.301 81.6772 757.362 81.5559L757.138 81.4441ZM758 80.875C757.728 80.875 757.54 80.9438 757.403 81.0613C757.271 81.1741 757.199 81.3228 757.138 81.4441L757.362 81.5559C757.426 81.4272 757.479 81.3259 757.566 81.2512C757.647 81.1812 757.772 81.125 758 81.125V80.875ZM760.556 81.3882C760.048 81.1341 759.661 81.0042 759.271 80.9392C758.883 80.8747 758.498 80.875 758 80.875V81.125C758.502 81.125 758.867 81.1253 759.229 81.1858C759.589 81.2458 759.952 81.3659 760.444 81.6118L760.556 81.3882ZM763.388 81.4441C763.173 81.8751 762.742 81.9983 762.201 81.9383C761.661 81.8782 761.051 81.636 760.556 81.3882L760.444 81.6118C760.949 81.864 761.589 82.1218 762.174 82.1867C762.758 82.2517 763.327 82.1249 763.612 81.5559L763.388 81.4441ZM765.54 80.8814C765.277 80.7939 764.858 80.7149 764.448 80.7634C764.036 80.8121 763.614 80.9932 763.388 81.4441L763.612 81.5559C763.786 81.2068 764.114 81.0546 764.477 81.0116C764.842 80.9685 765.223 81.0395 765.46 81.1186L765.54 80.8814ZM766.375 80.5C766.375 80.6143 766.282 80.7106 766.083 80.7824C765.892 80.8509 765.658 80.875 765.5 80.875V81.125C765.675 81.125 765.941 81.0991 766.167 81.0176C766.385 80.9394 766.625 80.7857 766.625 80.5H766.375ZM767.861 79.639C767.589 79.6992 767.29 79.765 767.029 79.8797C766.765 79.9954 766.527 80.1662 766.388 80.4441L766.612 80.5559C766.716 80.3485 766.897 80.2106 767.129 80.1086C767.364 80.0055 767.638 79.9445 767.915 79.883L767.861 79.639ZM768.875 79C768.875 79.1057 768.848 79.1843 768.805 79.247C768.761 79.3112 768.694 79.3662 768.603 79.4149C768.417 79.5149 768.158 79.5732 767.861 79.639L767.915 79.883C768.2 79.8198 768.498 79.755 768.721 79.6354C768.836 79.5742 768.938 79.4954 769.011 79.3888C769.086 79.2807 769.125 79.1516 769.125 79H768.875ZM770.625 78C770.625 77.9022 770.586 77.8178 770.513 77.7601C770.444 77.7063 770.357 77.6846 770.273 77.6799C770.103 77.6705 769.893 77.7261 769.694 77.8257C769.298 78.0238 768.875 78.433 768.875 79H769.125C769.125 78.567 769.452 78.2262 769.806 78.0493C769.982 77.9614 770.147 77.9233 770.259 77.9295C770.315 77.9326 770.345 77.946 770.358 77.9567C770.367 77.9634 770.375 77.9728 770.375 78H770.625ZM770.656 78.3313C770.627 78.2659 770.625 78.1833 770.625 78H770.375C770.375 78.1638 770.373 78.3078 770.427 78.4321L770.656 78.3313ZM771.556 78.8882C771.227 78.7237 771.013 78.6168 770.871 78.529C770.729 78.4415 770.68 78.3852 770.656 78.3314L770.427 78.4321C770.482 78.5567 770.585 78.6463 770.74 78.7417C770.894 78.8369 771.12 78.9499 771.444 79.1118L771.556 78.8882ZM772.244 79.3122C772.072 79.1904 771.858 79.0392 771.556 78.8882L771.444 79.1118C771.728 79.2537 771.928 79.3954 772.099 79.5163L772.244 79.3122ZM773.444 79.3882C773.098 79.5614 772.898 79.5991 772.745 79.5759C772.588 79.5522 772.457 79.463 772.244 79.3121L772.099 79.5163C772.3 79.6583 772.481 79.7888 772.707 79.8231C772.938 79.858 773.195 79.7922 773.556 79.6118L773.444 79.3882ZM776 78.875C775.502 78.875 775.117 78.8747 774.729 78.9392C774.339 79.0042 773.952 79.1341 773.444 79.3882L773.556 79.6118C774.048 79.3659 774.411 79.2458 774.771 79.1858C775.133 79.1253 775.498 79.125 776 79.125V78.875ZM776.774 78.9359C776.696 78.9024 776.615 78.8883 776.5 78.8816C776.388 78.8749 776.231 78.875 776 78.875V79.125C776.235 79.125 776.382 79.1251 776.486 79.1311C776.587 79.1371 776.635 79.1484 776.676 79.1656L776.774 78.9359ZM777.556 79.3882C777.294 79.2571 777.138 79.1617 777.031 79.0924C776.932 79.0275 776.855 78.9706 776.774 78.9359L776.676 79.1656C776.73 79.189 776.774 79.2234 776.895 79.3019C777.009 79.3761 777.173 79.4762 777.444 79.6118L777.556 79.3882ZM778.154 80.949C778.104 80.6842 778.026 80.273 777.612 79.4441L777.388 79.5559C777.791 80.3607 777.862 80.7492 777.908 80.995L778.154 80.949ZM779.069 81.896C778.622 81.5976 778.412 81.442 778.302 81.3194C778.204 81.2107 778.188 81.1329 778.154 80.949L777.908 80.995C777.943 81.1809 777.968 81.3213 778.116 81.4863C778.251 81.6373 778.491 81.8108 778.931 82.104L779.069 81.896ZM781.121 84.9697C781.035 84.6249 780.831 84.064 780.496 83.4872C780.161 82.9107 779.691 82.3102 779.069 81.896L778.931 82.104C779.509 82.4898 779.956 83.056 780.279 83.6128C780.603 84.1693 780.798 84.7084 780.879 85.0303L781.121 84.9697ZM781.088 85.9116C780.917 85.7404 780.888 85.5726 780.911 85.4326C780.935 85.2848 781.019 85.1576 781.088 85.0884L780.912 84.9116C780.814 85.0091 780.698 85.1818 780.664 85.3924C780.629 85.6107 780.683 85.8596 780.912 86.0884L781.088 85.9116ZM783.117 90.4561C782.867 89.7883 782.466 88.7615 782.077 87.851C781.883 87.3958 781.692 86.9683 781.523 86.6288C781.439 86.459 781.359 86.3099 781.288 86.1896C781.218 86.0718 781.15 85.9733 781.088 85.9116L780.912 86.0884C780.95 86.1267 781.004 86.2022 781.073 86.3174C781.14 86.4302 781.216 86.5733 781.299 86.74C781.465 87.0733 781.654 87.4958 781.848 87.9491C782.234 88.8552 782.633 89.8784 782.883 90.5439L783.117 90.4561ZM784.119 92.5395C784.331 91.9009 784.2 91.4007 783.939 91.0394C783.683 90.6844 783.309 90.4711 783.04 90.3814L782.96 90.6186C783.191 90.6956 783.517 90.8823 783.736 91.1856C783.95 91.4826 784.069 91.8991 783.881 92.4605L784.119 92.5395ZM784.112 94.9441C783.96 94.641 783.729 93.7087 784.119 92.5395L783.881 92.4605C783.471 93.6913 783.706 94.6923 783.888 95.0559L784.112 94.9441ZM783.612 96.0559L784.112 95.0559L783.888 94.9441L783.388 95.9441L783.612 96.0559ZM784.121 97.9697L783.621 95.9697L783.379 96.0303L783.879 98.0303L784.121 97.9697ZM784.125 100.5V98H783.875V100.5H784.125ZM784.623 102.975L784.123 100.475L783.877 100.525L784.377 103.025L784.623 102.975ZM785.125 108.99L784.625 102.99L784.375 103.01L784.875 109.01L785.125 108.99ZM784.088 110.088L785.088 109.088L784.912 108.912L783.912 109.912L784.088 110.088ZM783.612 110.444C783.514 110.249 783.486 110.13 783.487 110.064C783.488 110.033 783.495 110.021 783.497 110.017C783.499 110.014 783.503 110.01 783.516 110.006C783.547 109.995 783.607 109.995 783.695 110.017C783.777 110.037 783.867 110.073 783.944 110.112L784.056 109.888C783.967 109.844 783.86 109.8 783.755 109.774C783.655 109.749 783.536 109.734 783.434 109.769C783.38 109.788 783.329 109.822 783.292 109.875C783.255 109.928 783.239 109.991 783.238 110.058C783.235 110.187 783.286 110.351 783.388 110.556L783.612 110.444ZM783.116 114.046C783.285 113.624 783.512 112.942 783.648 112.262C783.715 111.922 783.76 111.579 783.763 111.268C783.765 110.959 783.725 110.67 783.612 110.444L783.388 110.556C783.475 110.73 783.515 110.974 783.513 111.266C783.51 111.556 783.468 111.882 783.402 112.213C783.271 112.875 783.048 113.542 782.884 113.954L783.116 114.046ZM783.624 117.984L783.124 113.984L782.876 114.016L783.376 118.015L783.624 117.984ZM783.125 119.5C783.125 119.501 783.125 119.496 783.127 119.484C783.129 119.473 783.132 119.458 783.136 119.44C783.145 119.403 783.158 119.356 783.174 119.3C783.208 119.189 783.254 119.05 783.306 118.899C783.409 118.599 783.534 118.263 783.617 118.044L783.383 117.956C783.3 118.175 783.174 118.514 783.069 118.818C783.017 118.969 782.969 119.113 782.935 119.229C782.918 119.287 782.903 119.339 782.893 119.382C782.884 119.422 782.875 119.465 782.875 119.5H783.125ZM782.118 122.542C782.285 122.072 782.535 121.359 782.743 120.744C782.848 120.437 782.942 120.153 783.01 119.937C783.044 119.829 783.072 119.737 783.091 119.666C783.101 119.631 783.109 119.6 783.115 119.575C783.119 119.553 783.125 119.525 783.125 119.5H782.875C782.875 119.494 782.876 119.498 782.87 119.521C782.866 119.54 782.859 119.567 782.85 119.6C782.832 119.666 782.805 119.755 782.771 119.862C782.704 120.076 782.611 120.357 782.507 120.664C782.299 121.277 782.049 121.989 781.882 122.458L782.118 122.542ZM781.623 125.025L782.123 122.525L781.877 122.475L781.377 124.975L781.623 125.025ZM780.619 128.04L781.619 125.04L781.381 124.96L780.381 127.96L780.619 128.04ZM779.536 129.821C779.513 129.74 779.526 129.623 779.583 129.471C779.638 129.322 779.73 129.156 779.844 128.986C780.069 128.647 780.368 128.309 780.588 128.088L780.412 127.912C780.183 128.14 779.873 128.491 779.635 128.848C779.517 129.026 779.413 129.21 779.349 129.384C779.285 129.554 779.251 129.732 779.295 129.889L779.536 129.821ZM779.42 129.73C778.162 129.692 776.902 129.654 775.641 129.617L775.634 129.867C776.895 129.904 778.154 129.942 779.412 129.98L779.42 129.73ZM775.753 129.791L776.667 127.664L776.437 127.565L775.523 129.693L775.753 129.791ZM776.677 127.618L776.715 126.118L776.465 126.112L776.427 127.612L776.677 127.618ZM776.681 126.029L776.194 125.517L776.012 125.689L776.5 126.201L776.681 126.029ZM776.213 125.661L777.264 123.688L777.043 123.57L775.993 125.544L776.213 125.661ZM777.279 123.632L777.329 121.633L777.079 121.626L777.029 123.626L777.279 123.632ZM777.322 121.672L777.86 120.185L777.625 120.1L777.087 121.587L777.322 121.672ZM777.867 120.146L777.944 117.147L777.694 117.14L777.617 120.139L777.867 120.146ZM777.94 117.171L778.504 114.685L778.26 114.63L777.697 117.116L777.94 117.171ZM778.492 114.716L779.018 113.729L778.797 113.611L778.272 114.598L778.492 114.716ZM778.904 113.795L779.404 113.808L779.41 113.558L778.91 113.545L778.904 113.795ZM779.493 113.773L780.006 113.286L779.833 113.105L779.321 113.592L779.493 113.773ZM780.01 113.11L779.523 112.597L779.342 112.769L779.829 113.282L780.01 113.11ZM779.429 112.808L780.929 112.846L780.935 112.596L779.436 112.558L779.429 112.808ZM781.057 112.724L781.07 112.225L780.82 112.218L780.807 112.718L781.057 112.724ZM780.948 112.097L780.448 112.084L780.442 112.334L780.942 112.346L780.948 112.097ZM780.555 112.267L781.081 111.281L780.86 111.163L780.335 112.15L780.555 112.267ZM781.081 111.281L781.606 110.294L781.385 110.176L780.86 111.163L781.081 111.281ZM781.586 110.149L781.099 109.636L780.918 109.808L781.405 110.321L781.586 110.149ZM781.061 109.835L782.074 109.361L781.968 109.135L780.955 109.609L781.061 109.835ZM782.134 109.195L781.659 108.182L781.433 108.289L781.907 109.301L782.134 109.195ZM781.543 108.36L782.543 108.386L782.549 108.136L781.549 108.111L781.543 108.36ZM782.659 108.208L782.185 107.195L781.958 107.302L782.433 108.314L782.659 108.208ZM782.125 107.362L783.137 106.887L783.031 106.661L782.018 107.135L782.125 107.362ZM783.194 106.833L783.719 105.846L783.499 105.728L782.974 106.715L783.194 106.833ZM783.734 105.79L783.798 103.291L783.548 103.285L783.484 105.784L783.734 105.79ZM783.786 103.235L782.837 101.21L782.611 101.316L783.559 103.341L783.786 103.235ZM782.843 101.227L782.382 99.7144L782.143 99.7874L782.604 101.3L782.843 101.227ZM782.353 99.6648C782.187 99.4906 781.914 99.2291 781.63 99.0089C781.488 98.8988 781.341 98.7971 781.201 98.7215C781.064 98.6477 780.921 98.5915 780.791 98.5882L780.785 98.8381C780.855 98.8399 780.955 98.8732 781.082 98.9415C781.205 99.0081 781.341 99.1011 781.477 99.2065C781.748 99.4172 782.012 99.6696 782.172 99.837L782.353 99.6648ZM780.791 98.5882C780.616 98.5837 780.345 98.5012 780.064 98.3898C779.788 98.2804 779.521 98.1505 779.36 98.0648L779.242 98.2855C779.41 98.3749 779.686 98.5089 779.972 98.6222C780.252 98.7335 780.56 98.8324 780.785 98.8381L780.791 98.5882ZM779.304 98.0502L778.305 98.0248L778.298 98.2747L779.298 98.3001L779.304 98.0502ZM778.305 98.0248C778.168 98.0213 777.941 97.973 777.671 97.9149L777.618 98.1593C777.876 98.2148 778.132 98.2705 778.298 98.2747L778.305 98.0248ZM777.671 97.9149C777.37 97.8503 777.025 97.7758 776.754 97.7635C776.62 97.7573 776.487 97.7652 776.383 97.8082C776.328 97.8305 776.276 97.8643 776.238 97.9153C776.198 97.9674 776.179 98.0292 776.177 98.0957L776.427 98.1021C776.428 98.0816 776.433 98.072 776.437 98.0664C776.442 98.0597 776.453 98.0495 776.478 98.0395C776.53 98.0178 776.618 98.0075 776.743 98.0132C776.989 98.0244 777.311 98.0932 777.618 98.1593L777.671 97.9149ZM776.177 98.0957C776.174 98.21 776.079 98.3039 775.878 98.3706C775.686 98.4343 775.451 98.4524 775.293 98.4484L775.287 98.6983C775.462 98.7028 775.728 98.6836 775.956 98.6079C776.176 98.5353 776.42 98.3877 776.427 98.1021L776.177 98.0957ZM775.165 98.5702L775.139 99.5699L775.389 99.5762L775.415 98.5765L775.165 98.5702ZM775.178 99.4824L774.666 99.9696L774.838 100.151L775.35 99.6636L775.178 99.4824ZM774.699 99.947L773.686 100.421L773.792 100.648L774.805 100.173L774.699 99.947ZM773.614 100.531L773.602 101.031L773.852 101.038L773.864 100.538L773.614 100.531ZM773.674 100.921L772.661 101.396L772.767 101.622L773.78 101.148L773.674 100.921ZM772.773 101.399C772.604 101.308 772.342 101.195 772.115 101.157C772.004 101.139 771.881 101.135 771.779 101.18C771.725 101.203 771.676 101.241 771.641 101.296C771.607 101.35 771.591 101.413 771.59 101.48L771.84 101.487C771.84 101.454 771.848 101.437 771.853 101.429C771.857 101.422 771.865 101.415 771.879 101.409C771.914 101.393 771.978 101.388 772.074 101.404C772.263 101.435 772.496 101.534 772.656 101.619L772.773 101.399ZM771.59 101.48C771.584 101.712 771.673 101.945 771.778 102.136C771.883 102.328 772.01 102.489 772.098 102.582L772.28 102.41C772.205 102.331 772.091 102.187 771.997 102.015C771.902 101.842 771.835 101.655 771.84 101.487L771.59 101.48ZM772.103 102.405L771.59 102.892L771.763 103.074L772.275 102.586L772.103 102.405ZM771.59 102.892L771.078 103.379L771.25 103.561L771.763 103.074L771.59 102.892ZM771.078 103.379L770.565 103.867L770.738 104.048L771.25 103.561L771.078 103.379ZM770.532 103.994L770.994 105.506L771.233 105.433L770.771 103.921L770.532 103.994ZM771.023 105.556L771.997 106.581L772.178 106.408L771.204 105.383L771.023 105.556ZM771.962 106.491L771.937 107.491L772.187 107.497L772.212 106.498L771.962 106.491ZM771.952 107.435L771.426 108.422L771.647 108.54L772.172 107.553L771.952 107.435ZM771.424 108.534L771.898 109.547L772.124 109.441L771.65 108.428L771.424 108.534ZM771.886 109.49L771.874 109.99L772.123 109.997L772.136 109.497L771.886 109.49ZM771.885 110.046L772.36 111.059L772.586 110.953L772.112 109.94L771.885 110.046ZM772.387 110.915L770.849 112.377L771.021 112.558L772.559 111.096L772.387 110.915ZM770.822 112.415L769.233 115.876L769.46 115.98L771.049 112.519L770.822 112.415ZM769.35 115.803L768.35 115.778L768.344 116.027L769.344 116.053L769.35 115.803ZM768.406 115.792L765.445 114.216L765.327 114.437L768.288 116.013L768.406 115.792ZM765.477 114.241L763.528 112.19L763.347 112.363L765.296 114.413L765.477 114.241ZM763.441 112.152L761.941 112.113L761.935 112.363L763.435 112.402L763.441 112.152ZM761.981 112.121L760.494 111.583L760.409 111.818L761.896 112.356L761.981 112.121ZM760.455 111.576L759.455 111.55L759.448 111.8L760.448 111.825L760.455 111.576ZM759.337 111.626L758.274 114.099L758.503 114.198L759.567 111.724L759.337 111.626ZM758.33 114.259L760.304 115.31L760.421 115.089L758.447 114.039L758.33 114.259ZM760.257 115.266L761.218 116.791L761.43 116.658L760.468 115.133L760.257 115.266ZM761.281 116.842L762.768 117.38L762.853 117.145L761.366 116.607L761.281 116.842ZM762.698 117.315L763.172 118.328L763.398 118.222L762.924 117.209L762.698 117.315ZM763.288 118.15L761.789 118.112L761.782 118.361L763.282 118.4L763.288 118.15ZM761.835 118.122L759.361 117.058L759.263 117.288L761.736 118.351L761.835 118.122ZM759.345 117.053L757.359 116.502L757.292 116.743L759.279 117.294L759.345 117.053ZM757.244 116.528L751.618 121.387L751.782 121.576L757.407 116.717L757.244 116.528ZM751.614 121.391L748.539 124.313L748.711 124.495L751.786 121.572L751.614 121.391ZM748.597 124.282L746.585 124.731L746.64 124.975L748.652 124.526L748.597 124.282ZM746.526 124.762L745.501 125.737L745.674 125.918L746.699 124.944L746.526 124.762ZM745.57 125.704L742.558 126.127L742.593 126.375L745.605 125.951L745.57 125.704ZM742.49 126.16L740.952 127.622L741.124 127.803L742.662 126.342L742.49 126.16ZM740.913 127.709L740.884 128.873L741.133 128.879L741.163 127.715L740.913 127.709ZM741.011 128.751C713.064 128.173 684.516 127.875 655.5 127.875V128.125C684.515 128.125 713.06 128.423 741.006 129.001L741.011 128.751ZM655.5 127.875C485.53 127.875 331.649 138.117 220.257 154.676C164.563 162.956 119.485 172.815 88.3276 183.766C72.7498 189.241 60.6445 194.992 52.4313 200.958C44.2217 206.923 39.875 213.122 39.875 219.5H40.125C40.125 213.244 44.3898 207.109 52.5782 201.161C60.763 195.215 72.8422 189.474 88.4105 184.002C119.545 173.059 164.605 163.202 220.294 154.923C331.67 138.366 485.539 128.125 655.5 128.125V127.875ZM39.875 219.5C39.875 225.878 44.2217 232.077 52.4313 238.042C60.6445 244.008 72.7498 249.759 88.3276 255.234C119.485 266.185 164.563 276.044 220.257 284.324C331.649 300.883 485.53 311.125 655.5 311.125V310.875C485.539 310.875 331.67 300.634 220.294 284.077C164.605 275.798 119.545 265.941 88.4105 254.998C72.8422 249.526 60.763 243.785 52.5782 237.839C44.3898 231.891 40.125 225.756 40.125 219.5H39.875ZM655.5 311.125C825.47 311.125 979.351 300.883 1090.74 284.324C1146.44 276.044 1191.52 266.185 1222.67 255.234C1238.25 249.759 1250.36 244.008 1258.57 238.042C1266.78 232.077 1271.12 225.878 1271.12 219.5H1270.88C1270.88 225.756 1266.61 231.891 1258.42 237.839C1250.24 243.785 1238.16 249.526 1222.59 254.998C1191.45 265.941 1146.39 275.798 1090.71 284.077C979.33 300.634 825.461 310.875 655.5 310.875V311.125ZM1271.12 219.5C1271.12 213.98 1267.87 208.593 1261.67 203.379C1255.47 198.163 1246.32 193.106 1234.48 188.243C1210.81 178.518 1176.37 169.562 1133.32 161.691C1047.22 145.95 926.624 134.545 788.662 130.022L788.654 130.272C926.609 134.795 1047.19 146.198 1133.28 161.937C1176.32 169.807 1210.74 178.759 1234.39 188.475C1246.21 193.333 1255.34 198.378 1261.51 203.57C1267.68 208.762 1270.88 214.086 1270.88 219.5H1271.12ZM793.495 129.875C792.168 129.924 790.441 129.979 788.655 130.022L788.661 130.272C790.448 130.229 792.177 130.174 793.505 130.125L793.495 129.875ZM765.426 129.399L764.656 127.757L764.43 127.863L765.2 129.505L765.426 129.399ZM753.785 129.285C757.638 129.377 761.48 129.474 765.31 129.577L765.316 129.327C761.487 129.225 757.645 129.127 753.791 129.035L753.785 129.285ZM754.948 127.491L753.69 129.083L753.886 129.238L755.144 127.646L754.948 127.491ZM754.465 126.093L754.927 127.605L755.166 127.532L754.704 126.02L754.465 126.093ZM757.059 124.021L754.509 125.956L754.66 126.156L757.21 124.22L757.059 124.021ZM758.586 122.568L757.049 124.03L757.221 124.211L758.758 122.749L758.586 122.568ZM760.692 123.089L758.706 122.538L758.639 122.779L760.626 123.33L760.692 123.089ZM762.698 124.662L760.736 123.111L760.581 123.308L762.543 124.858L762.698 124.662ZM764.172 126.211L762.711 124.674L762.53 124.846L763.991 126.384L764.172 126.211ZM764.663 127.773L764.201 126.261L763.962 126.334L764.424 127.846L764.663 127.773Z" fill="black"/>
</g>
<defs>
<clipPath id="clip0_108_258">
<rect width="1433" height="199" fill="white" transform="translate(-68)"/>
</clipPath>
</defs>
</svg>
