<svg width="114" height="111" viewBox="0 0 114 111" fill="none" xmlns="http://www.w3.org/2000/svg">
<path d="M32.9178 84.44H56.9818V87H29.5898V84.568L53.2058 44.696H30.2298V42.072H56.5338V44.568L32.9178 84.44ZM77.7088 87.448C74.8074 87.448 72.2688 86.936 70.0928 85.912C67.9168 84.888 66.2101 83.5013 64.9728 81.752C63.7781 80.0027 63.0954 78.0613 62.9248 75.928H65.9328C66.2741 78.2747 67.3621 80.3653 69.1968 82.2C71.0741 84.0347 73.9114 84.952 77.7088 84.952C79.9274 84.952 81.8474 84.5467 83.4688 83.736C85.1328 82.9253 86.4128 81.816 87.3088 80.408C88.2048 79 88.6528 77.4427 88.6528 75.736C88.6528 73.56 88.1194 71.832 87.0528 70.552C86.0288 69.272 84.7274 68.312 83.1488 67.672C81.6128 67.032 79.5221 66.3493 76.8768 65.624C73.9754 64.856 71.6288 64.088 69.8368 63.32C68.0874 62.552 66.5941 61.3787 65.3568 59.8C64.1621 58.1787 63.5648 55.9813 63.5648 53.208C63.5648 51.0747 64.1194 49.1333 65.2288 47.384C66.3808 45.592 68.0021 44.184 70.0928 43.16C72.1834 42.136 74.5941 41.624 77.3248 41.624C81.2928 41.624 84.4928 42.6053 86.9248 44.568C89.3568 46.5307 90.8074 48.9413 91.2768 51.8H88.2048C87.9488 50.648 87.3728 49.4747 86.4768 48.28C85.6234 47.0853 84.3861 46.104 82.7648 45.336C81.1861 44.5253 79.2874 44.12 77.0688 44.12C74.0821 44.12 71.5648 44.952 69.5168 46.616C67.4688 48.2373 66.4448 50.4133 66.4448 53.144C66.4448 55.32 66.9781 57.0693 68.0448 58.392C69.1114 59.672 70.4128 60.6533 71.9488 61.336C73.5274 61.976 75.6394 62.6373 78.2847 63.32C81.2288 64.1307 83.5541 64.92 85.2608 65.688C87.0101 66.4133 88.4821 67.5867 89.6768 69.208C90.9141 70.7867 91.5328 72.9413 91.5328 75.672C91.5328 77.6773 90.9994 79.576 89.9328 81.368C88.8661 83.16 87.2874 84.632 85.1968 85.784C83.1488 86.8933 80.6528 87.448 77.7088 87.448Z" fill="black"/>
<path fill-rule="evenodd" clip-rule="evenodd" d="M113.885 37.3102C103.99 20.9419 86.0226 10 65.5 10C34.2959 10 9 35.2959 9 66.5C9 84.1347 17.0791 99.8824 29.7379 110.244C11.9716 100.077 0 80.9364 0 59C0 26.4152 26.4152 0 59 0C83.9264 0 105.243 15.4577 113.885 37.3102Z" fill="black"/>
</svg>
